<?xml version="1.0" encoding="UTF-8"?>
<svg xmlns="http://www.w3.org/2000/svg" width="140" height="80" viewBox="0 0 140 80" fill="none">
  <path fill-rule="evenodd" clip-rule="evenodd" d="M108.073 30.5628C108.435 30.9266 108.616 31.367 108.616 31.8833C108.616 32.4029 108.435 32.8455 108.073 33.212C107.71 33.5781 107.27 33.7614 106.751 33.7614C106.235 33.7614 105.794 33.5781 105.431 33.212C105.07 32.8455 104.89 32.4029 104.89 31.8833C104.89 31.367 105.072 30.9266 105.434 30.5628C105.799 30.1962 106.237 30.0134 106.751 30.0134C107.268 30.0134 107.708 30.1962 108.073 30.5628ZM108.288 30.3528C107.864 29.9315 107.352 29.7215 106.751 29.7215C106.155 29.7215 105.646 29.9315 105.224 30.3528C104.802 30.7759 104.589 31.2864 104.589 31.8833C104.589 32.4852 104.799 32.9984 105.219 33.4216C105.64 33.847 106.151 34.0597 106.751 34.0597C107.352 34.0597 107.864 33.847 108.288 33.4216C108.711 32.9971 108.923 32.483 108.923 31.8833C108.923 31.2846 108.711 30.7746 108.288 30.3528ZM107.073 31.7824C106.985 31.8182 106.852 31.8354 106.675 31.8354H106.296V30.9737H106.654C106.887 30.9737 107.056 31.0031 107.161 31.062C107.266 31.1208 107.319 31.2371 107.319 31.4109C107.319 31.5932 107.238 31.7177 107.073 31.7824ZM105.878 33.0672H106.296V32.1277H106.628C106.851 32.1277 107.006 32.154 107.094 32.2051C107.245 32.2933 107.319 32.4757 107.319 32.7518V32.94L107.328 33.0174C107.33 33.0269 107.332 33.0364 107.334 33.0437C107.336 33.0518 107.337 33.0595 107.339 33.0672H107.732L107.718 33.0382C107.708 33.0183 107.701 32.9767 107.697 32.9138C107.693 32.8509 107.691 32.7916 107.691 32.7368V32.5622C107.691 32.4427 107.648 32.3191 107.561 32.1933C107.474 32.0671 107.337 31.9888 107.15 31.9603C107.298 31.9363 107.413 31.8978 107.497 31.8449C107.652 31.7444 107.729 31.5878 107.729 31.3751C107.729 31.0755 107.606 30.875 107.36 30.7723C107.223 30.7157 107.006 30.6868 106.71 30.6868H105.878V33.0672Z" fill="black"></path>
  <path fill-rule="evenodd" clip-rule="evenodd" d="M53.5718 49.8491H58.8378V30.0151H53.5718V49.8491Z" fill="black"></path>
  <path fill-rule="evenodd" clip-rule="evenodd" d="M42.373 40.4963L46.2627 33.4758V40.4963H42.373ZM46.2035 23.9424L32 49.8501H37.3086L39.4865 45.8332H46.2627V49.8501H51.371V23.9424H46.2035Z" fill="black"></path>
  <path fill-rule="evenodd" clip-rule="evenodd" d="M81.4772 42.0246H86.3286V37.8394H81.4799L81.4772 34.2045H86.3349V30.0193H76.557V49.8447H86.3264V45.6582H81.4772V42.0246Z" fill="black"></path>
  <path fill-rule="evenodd" clip-rule="evenodd" d="M68.6738 38.1651H66.0889V34.1636H68.6806C69.7657 34.16 70.7193 34.9706 70.7193 36.1657C70.7193 37.2016 69.9425 38.1651 68.6738 38.1651ZM71.3844 42.0548C72.7403 41.6561 75.4984 39.9264 75.4984 36.1531C75.4984 35.7924 75.4631 35.4426 75.4079 35.1009C75.4052 35.081 75.403 35.0606 75.3998 35.0412C75.3722 34.8819 75.3383 34.7257 75.2999 34.5714C75.2935 34.5465 75.2881 34.5216 75.2818 34.4972C75.2425 34.3442 75.1968 34.1944 75.1466 34.0469C75.138 34.0238 75.1303 34.0003 75.1222 33.9767C75.0693 33.8283 75.0128 33.683 74.9504 33.5409C74.9422 33.5224 74.9332 33.5034 74.9246 33.4848C74.859 33.3391 74.789 33.1965 74.713 33.0576C74.7089 33.0495 74.704 33.0413 74.6999 33.0332C73.6952 31.2144 71.8573 30.0205 69.8435 30.0205H61.0426V49.8496H66.0889L66.0907 41.8819L73.7427 55.9346H78.9803C78.9803 55.9346 71.3771 42.0575 71.3844 42.0548Z" fill="black"></path>
  <path fill-rule="evenodd" clip-rule="evenodd" d="M87.4278 49.8491H92.7011L95.4488 44.7986L98.195 49.8491H103.469L98.0635 39.9898L103.489 30.0151H98.3008L95.4483 35.219L89.2748 23.9346H84.0775L92.8331 39.9893L87.4278 49.8491Z" fill="black"></path>
</svg>
