<?xml version="1.0" encoding="UTF-8"?>
<svg xmlns="http://www.w3.org/2000/svg" width="140" height="80" viewBox="0 0 140 80" fill="none">
  <path d="M27.3193 30.908C27.319 30.7879 27.3427 30.669 27.3891 30.5582C27.4354 30.4474 27.5035 30.3471 27.5893 30.263C27.6723 30.179 27.7708 30.1118 27.8793 30.065C27.991 30.0168 28.1116 29.993 28.2333 29.995C28.3613 29.995 28.4823 30.015 28.5883 30.065C28.8083 30.1593 28.9834 30.3348 29.0773 30.555C29.1273 30.667 29.1483 30.781 29.1483 30.908C29.1512 31.0301 29.1269 31.1514 29.0773 31.263C29.0303 31.3714 28.9631 31.4698 28.8793 31.553C28.7975 31.6376 28.6982 31.7031 28.5883 31.745C28.4765 31.794 28.3553 31.8179 28.2333 31.815C28.1117 31.8167 27.9911 31.7928 27.8793 31.745C27.7725 31.6981 27.6745 31.6336 27.5893 31.554C27.5028 31.4722 27.4347 31.373 27.3893 31.263C27.3409 31.151 27.317 31.03 27.3193 30.908ZM29.9633 35.544C29.9592 35.4233 29.9472 35.3031 29.9273 35.184C29.9018 35.0192 29.8688 34.8557 29.8283 34.694C29.7823 34.508 29.7283 34.324 29.6653 34.141C29.6 33.9503 29.5242 33.7633 29.4383 33.581L31.3383 33.078C31.3883 33.213 31.4383 33.368 31.4943 33.524C31.5443 33.68 31.5943 33.851 31.6443 34.021C31.6943 34.191 31.7363 34.361 31.7713 34.531C31.8073 34.701 31.8413 34.864 31.8633 35.021C32.0473 35.12 32.2463 35.183 32.4593 35.226C32.6713 35.262 32.8773 35.282 33.0693 35.282H33.0973C33.1651 35.2794 33.2327 35.2917 33.2953 35.318C33.3193 35.3277 33.3411 35.3421 33.3593 35.3605C33.3776 35.3789 33.3918 35.4009 33.4013 35.425C33.4303 35.475 33.4443 35.538 33.4443 35.615C33.4443 35.694 33.4523 35.785 33.4523 35.892V36.176C33.4523 36.31 33.4523 36.424 33.4303 36.509C33.4207 36.5754 33.4015 36.6401 33.3733 36.701C33.3485 36.7402 33.3111 36.7698 33.2673 36.785C33.2119 36.8002 33.1547 36.8076 33.0973 36.807H33.0543C32.8428 36.8068 32.6326 36.7755 32.4303 36.714C32.2137 36.6486 32.0063 36.5559 31.8133 36.438C31.7314 36.8145 31.5853 37.1741 31.3813 37.501C31.1753 37.821 30.9213 38.097 30.6153 38.324C30.2906 38.559 29.929 38.7381 29.5453 38.854C29.1064 38.987 28.6498 39.0521 28.1913 39.047C27.5523 39.047 27.0003 38.962 26.5323 38.792C26.0643 38.622 25.6823 38.395 25.3843 38.112C25.0878 37.8387 24.8573 37.5015 24.7103 37.126C24.563 36.7536 24.4883 36.3565 24.4903 35.956C24.4903 35.772 24.5123 35.573 24.5613 35.361C24.6054 35.1402 24.6696 34.924 24.7533 34.715C24.8353 34.493 24.9303 34.275 25.0363 34.063C25.1433 33.851 25.2563 33.645 25.3843 33.46L26.9933 34.304C26.9154 34.4253 26.8443 34.5508 26.7803 34.68C26.718 34.808 26.6658 34.9408 26.6243 35.077C26.5431 35.3242 26.4979 35.5819 26.4903 35.842C26.4865 36.055 26.5283 36.2664 26.6128 36.4619C26.6973 36.6575 26.8226 36.8328 26.9803 36.976C27.1353 37.119 27.3263 37.232 27.5533 37.31C27.8023 37.393 28.0633 37.434 28.3253 37.43C28.8653 37.43 29.2683 37.267 29.5383 36.942C29.8143 36.615 29.9483 36.154 29.9483 35.552" fill="black"></path>
  <path d="M35.1525 35.282C35.2385 35.282 35.3095 35.297 35.3525 35.318C35.4025 35.339 35.4375 35.374 35.4575 35.425C35.4875 35.484 35.5055 35.549 35.5075 35.615C35.5075 35.694 35.5155 35.785 35.5155 35.892V36.176C35.5155 36.317 35.5155 36.424 35.4935 36.509C35.4854 36.5763 35.4636 36.6413 35.4295 36.7C35.4046 36.7397 35.3668 36.7697 35.3225 36.785C35.2673 36.8011 35.2099 36.8085 35.1525 36.807H33.0825C33.025 36.808 32.9677 36.8006 32.9125 36.785C32.8686 36.7698 32.8313 36.7402 32.8065 36.701C32.7718 36.6427 32.7522 36.5767 32.7495 36.509C32.7338 36.3987 32.7271 36.2873 32.7295 36.176V35.892C32.7295 35.785 32.7295 35.694 32.7355 35.615C32.7364 35.5493 32.751 35.4846 32.7785 35.425C32.7882 35.401 32.8025 35.3792 32.8207 35.3608C32.8389 35.3425 32.8606 35.3279 32.8845 35.318C32.9477 35.2928 33.0154 35.2808 33.0835 35.283H35.1535L35.1525 35.282Z" fill="black"></path>
  <path d="M37.2097 35.282C37.2775 35.2797 37.345 35.292 37.4077 35.318C37.4548 35.3396 37.4925 35.3776 37.5137 35.425C37.5437 35.484 37.5607 35.549 37.5637 35.615C37.5637 35.694 37.5707 35.785 37.5707 35.892V36.176C37.5707 36.317 37.5707 36.424 37.5497 36.509C37.5416 36.5767 37.5198 36.642 37.4857 36.701C37.4608 36.7402 37.4235 36.7698 37.3797 36.785C37.3245 36.8011 37.2671 36.8085 37.2097 36.807H35.1397C35.0819 36.8081 35.0243 36.8007 34.9687 36.785C34.9238 36.7718 34.8858 36.7417 34.8627 36.701C34.8276 36.6429 34.8077 36.5768 34.8047 36.509C34.789 36.3987 34.7823 36.2874 34.7847 36.176V35.892C34.7847 35.786 34.7847 35.694 34.7917 35.615C34.7917 35.538 34.8127 35.475 34.8347 35.425C34.8442 35.401 34.8586 35.3791 34.8768 35.3607C34.895 35.3424 34.9167 35.3278 34.9407 35.318C35.0035 35.2929 35.0709 35.281 35.1387 35.283H37.2087L37.2097 35.282Z" fill="black"></path>
  <path d="M39.2575 35.282C39.3253 35.2797 39.3928 35.292 39.4555 35.318C39.4797 35.3276 39.5017 35.342 39.5201 35.3604C39.5385 35.3788 39.5529 35.4008 39.5625 35.425C39.5925 35.484 39.6095 35.549 39.6125 35.615C39.6125 35.694 39.6195 35.785 39.6195 35.892V36.176C39.6195 36.317 39.6195 36.424 39.5975 36.509C39.5894 36.5767 39.5677 36.642 39.5335 36.701C39.5086 36.7401 39.4712 36.7697 39.4275 36.785C39.3723 36.8011 39.3149 36.8085 39.2575 36.807H37.1875C37.13 36.808 37.0728 36.8006 37.0175 36.785C36.9727 36.7717 36.9347 36.7416 36.9115 36.701C36.8765 36.6428 36.8565 36.5768 36.8535 36.509C36.8378 36.3987 36.8311 36.2874 36.8335 36.176V35.892C36.8335 35.786 36.8335 35.694 36.8405 35.615C36.8405 35.538 36.8615 35.475 36.8835 35.425C36.9029 35.3768 36.9407 35.3384 36.9885 35.318C37.0514 35.2929 37.1188 35.281 37.1865 35.283L39.2575 35.282Z" fill="black"></path>
  <path d="M41.3135 35.282C41.3813 35.2797 41.4488 35.292 41.5115 35.318C41.5357 35.3276 41.5577 35.342 41.5761 35.3604C41.5945 35.3788 41.609 35.4008 41.6185 35.425C41.6485 35.475 41.6615 35.538 41.6685 35.615C41.6685 35.694 41.6755 35.785 41.6755 35.892V36.176C41.6755 36.317 41.6755 36.424 41.6545 36.509C41.6464 36.5767 41.6247 36.642 41.5905 36.701C41.5654 36.7404 41.5277 36.77 41.4835 36.785C41.4283 36.8011 41.371 36.8085 41.3135 36.807H39.2435C39.1861 36.808 39.1288 36.8006 39.0735 36.785C39.0297 36.7698 38.9923 36.7402 38.9675 36.701C38.9329 36.6427 38.9133 36.5768 38.9105 36.509C38.8945 36.3988 38.8875 36.2874 38.8895 36.176V35.892C38.8895 35.786 38.8895 35.694 38.8965 35.615C38.8965 35.538 38.9175 35.475 38.9395 35.425C38.9491 35.401 38.9634 35.3791 38.9816 35.3607C38.9999 35.3424 39.0216 35.3278 39.0455 35.318C39.1084 35.2929 39.1758 35.281 39.2435 35.283L41.3135 35.282Z" fill="black"></path>
  <path d="M43.3697 35.282C43.4378 35.2796 43.5057 35.2919 43.5687 35.318C43.6155 35.3401 43.653 35.378 43.6747 35.425C43.7047 35.484 43.7217 35.549 43.7247 35.615C43.7247 35.694 43.7317 35.785 43.7317 35.892V36.176C43.7317 36.317 43.7317 36.424 43.7097 36.509C43.7017 36.5767 43.6799 36.6421 43.6457 36.701C43.6208 36.7402 43.5835 36.7698 43.5397 36.785C43.4845 36.8012 43.4271 36.8086 43.3697 36.807H41.2997C41.2422 36.8081 41.1849 36.8007 41.1297 36.785C41.0844 36.7721 41.046 36.742 41.0227 36.701C40.988 36.6428 40.9684 36.5768 40.9657 36.509C40.9497 36.3988 40.9427 36.2874 40.9447 36.176V35.892C40.9447 35.786 40.9447 35.694 40.9517 35.615C40.9529 35.5494 40.9675 35.4848 40.9947 35.425C41.0043 35.4011 41.0187 35.3793 41.0369 35.3609C41.0551 35.3425 41.0768 35.328 41.1007 35.318C41.1642 35.2927 41.2323 35.2808 41.3007 35.283L43.3697 35.282Z" fill="black"></path>
  <path d="M45.5035 38.777C45.5035 38.65 45.5325 38.529 45.5745 38.423C45.6214 38.3142 45.6886 38.2154 45.7725 38.132C45.8557 38.0478 45.9541 37.9802 46.0625 37.933C46.1743 37.8839 46.2955 37.86 46.4175 37.863C46.5395 37.8612 46.6604 37.885 46.7725 37.933C46.8785 37.983 46.9785 38.047 47.0625 38.132C47.1496 38.215 47.2186 38.3152 47.265 38.4262C47.3115 38.5372 47.3345 38.6566 47.3325 38.777C47.3355 38.8991 47.3112 39.0203 47.2615 39.132C47.1668 39.35 46.9911 39.5228 46.7715 39.614C46.6601 39.6628 46.5392 39.6867 46.4175 39.684C46.296 39.6856 46.1754 39.6618 46.0635 39.614C45.9577 39.5651 45.8599 39.5003 45.7735 39.422C45.6877 39.3403 45.6199 39.2415 45.5745 39.132C45.5256 39.0201 45.502 38.8991 45.5035 38.777ZM43.2845 38.777C43.2856 38.6555 43.3097 38.5354 43.3555 38.423C43.4024 38.3142 43.4696 38.2155 43.5535 38.132C43.6367 38.0478 43.7351 37.9802 43.8435 37.933C43.9556 37.8847 44.0766 37.8608 44.1985 37.863C44.3205 37.8612 44.4414 37.885 44.5535 37.933C44.6595 37.983 44.7595 38.047 44.8435 38.132C44.9283 38.2148 44.9962 38.3133 45.0435 38.422C45.0925 38.536 45.1135 38.65 45.1135 38.777C45.1119 38.9559 45.0581 39.1304 44.9586 39.2791C44.8591 39.4278 44.7183 39.5442 44.5535 39.614C44.4417 39.6629 44.3206 39.6868 44.1985 39.684C44.0769 39.6868 43.956 39.6629 43.8445 39.614C43.7378 39.5668 43.6397 39.5018 43.5545 39.422C43.4687 39.3403 43.4009 39.2415 43.3555 39.132C43.3072 39.02 43.2823 38.8989 43.2845 38.777ZM46.4745 34.864V34.984C46.6665 35.098 46.8785 35.169 47.1065 35.211C47.3325 35.254 47.5455 35.275 47.7505 35.275H47.7795C47.8474 35.2726 47.9149 35.2849 47.9775 35.311C48.0016 35.3206 48.0234 35.3349 48.0418 35.3531C48.0601 35.3714 48.0747 35.393 48.0845 35.417C48.1125 35.467 48.1265 35.531 48.1345 35.608C48.1345 35.686 48.1405 35.778 48.1405 35.884V36.169C48.1405 36.303 48.1405 36.416 48.1195 36.502C48.1099 36.568 48.0907 36.6324 48.0625 36.693C48.0368 36.7344 47.9965 36.7647 47.9495 36.778C47.8941 36.7928 47.8369 36.7999 47.7795 36.799H47.7365C47.4595 36.799 47.1835 36.742 46.9005 36.629C46.615 36.5139 46.3512 36.3509 46.1205 36.147C45.9705 36.352 45.7705 36.516 45.5385 36.622C45.2985 36.742 44.9865 36.799 44.6175 36.799H43.3625C43.3051 36.8008 43.2478 36.7938 43.1925 36.778C43.1471 36.7648 43.1087 36.7343 43.0855 36.693C43.0515 36.6349 43.0322 36.5693 43.0295 36.502C43.0133 36.3917 43.0059 36.2804 43.0075 36.169V35.884C43.0075 35.778 43.0075 35.686 43.0145 35.608C43.0145 35.531 43.0365 35.467 43.0575 35.418C43.0814 35.3719 43.1187 35.3342 43.1645 35.31C43.2273 35.2842 43.2948 35.2723 43.3625 35.275H44.1145C44.2625 35.275 44.3695 35.239 44.4325 35.169C44.4975 35.098 44.5255 34.963 44.5255 34.765V32.106H46.4755L46.4745 34.864Z" fill="black"></path>
  <path d="M49.8278 35.282C49.8956 35.2797 49.9631 35.292 50.0258 35.318C50.05 35.3276 50.072 35.342 50.0904 35.3604C50.1088 35.3788 50.1232 35.4008 50.1328 35.425C50.1628 35.484 50.1798 35.549 50.1828 35.615C50.1828 35.694 50.1898 35.785 50.1898 35.892V36.176C50.1898 36.317 50.1898 36.424 50.1678 36.509C50.1598 36.5767 50.138 36.6421 50.1038 36.701C50.0791 36.74 50.0422 36.7695 49.9988 36.785C49.9436 36.8011 49.8862 36.8085 49.8288 36.807H47.7578C47.7003 36.8081 47.643 36.8006 47.5878 36.785C47.5439 36.7698 47.5066 36.7402 47.4818 36.701C47.4467 36.6428 47.4268 36.5768 47.4238 36.509C47.4082 36.3987 47.4015 36.2874 47.4038 36.176V35.892C47.4038 35.786 47.4038 35.694 47.4108 35.615C47.4108 35.538 47.4318 35.475 47.4538 35.425C47.4634 35.401 47.4778 35.3792 47.496 35.3609C47.5142 35.3425 47.5359 35.3279 47.5598 35.318C47.6227 35.2929 47.6901 35.2809 47.7578 35.283L49.8278 35.282Z" fill="black"></path>
  <path d="M51.8834 35.282C51.9516 35.2797 52.0194 35.292 52.0824 35.318C52.1296 35.3396 52.1673 35.3776 52.1884 35.425C52.2184 35.484 52.2354 35.549 52.2384 35.615C52.2384 35.694 52.2454 35.785 52.2454 35.892V36.176C52.2454 36.317 52.2454 36.424 52.2244 36.509C52.2159 36.5764 52.1938 36.6414 52.1594 36.7C52.1348 36.7396 52.0974 36.7695 52.0534 36.785C51.9983 36.8011 51.9409 36.8086 51.8834 36.807H49.8134C49.756 36.808 49.6987 36.8006 49.6434 36.785C49.5986 36.7717 49.5607 36.7416 49.5374 36.701C49.5025 36.6428 49.4825 36.5768 49.4794 36.509C49.4638 36.3987 49.4571 36.2874 49.4594 36.176V35.892C49.4594 35.785 49.4594 35.694 49.4664 35.615C49.4664 35.538 49.4874 35.475 49.5094 35.425C49.529 35.3769 49.5667 35.3384 49.6144 35.318C49.678 35.2927 49.7461 35.2808 49.8144 35.283L51.8834 35.282Z" fill="black"></path>
  <path d="M51.8705 36.8C51.813 36.8015 51.7557 36.794 51.7005 36.778C51.6562 36.7627 51.6184 36.7327 51.5935 36.693C51.5586 36.6351 51.5387 36.5694 51.5355 36.502C51.5201 36.3916 51.5135 36.2803 51.5155 36.169V35.884C51.5155 35.778 51.5155 35.686 51.5225 35.608C51.5225 35.531 51.5435 35.467 51.5655 35.417C51.575 35.3929 51.5894 35.371 51.6076 35.3526C51.6258 35.3342 51.6475 35.3197 51.6715 35.31C51.7343 35.2844 51.8017 35.2722 51.8695 35.274H53.6995C53.8615 35.274 53.9965 35.261 54.1035 35.233C54.1949 35.2121 54.2812 35.1733 54.3575 35.119C54.4154 35.0785 54.4599 35.0218 54.4855 34.956C54.5076 34.897 54.5198 34.8349 54.5215 34.772C54.5215 34.524 54.3375 34.248 53.9685 33.928C53.5995 33.608 53.0685 33.255 52.3665 32.858L54.9465 28.752L56.4205 29.667L54.7275 32.432C54.9895 32.588 55.2155 32.758 55.4215 32.936C55.6275 33.113 55.7975 33.297 55.9385 33.496C56.0805 33.694 56.1945 33.899 56.2655 34.112C56.3425 34.325 56.3785 34.552 56.3785 34.786V34.899C56.3785 34.935 56.3785 34.971 56.3715 35.013C56.5555 35.113 56.7545 35.176 56.9675 35.218C57.1795 35.261 57.3855 35.275 57.5775 35.275H57.6055C57.6733 35.2727 57.7408 35.2849 57.8035 35.311C57.8535 35.331 57.8885 35.367 57.9105 35.416C57.9385 35.466 57.9525 35.531 57.9525 35.608C57.9525 35.686 57.9595 35.778 57.9595 35.884V36.169C57.9595 36.303 57.9595 36.416 57.9385 36.502C57.9322 36.5687 57.9128 36.6336 57.8815 36.693C57.8569 36.7325 57.8195 36.7625 57.7755 36.778C57.7201 36.7928 57.6629 36.7998 57.6055 36.799H57.5625C57.2785 36.799 56.9875 36.735 56.6975 36.622C56.4029 36.4998 56.1319 36.3272 55.8965 36.112C55.6985 36.317 55.4215 36.487 55.0885 36.615C54.7485 36.743 54.3295 36.807 53.8265 36.807H51.8765L51.8695 36.799L51.8705 36.8Z" fill="black"></path>
  <path d="M59.6606 35.282C59.7466 35.282 59.8176 35.297 59.8596 35.318C59.9066 35.34 59.9446 35.378 59.9656 35.425C59.9956 35.484 60.0126 35.549 60.0156 35.615C60.0156 35.694 60.0236 35.785 60.0236 35.892V36.176C60.0236 36.317 60.0236 36.424 60.0016 36.509C59.9931 36.5764 59.971 36.6414 59.9366 36.7C59.9119 36.7395 59.8746 36.7695 59.8306 36.785C59.7754 36.8011 59.7181 36.8085 59.6606 36.807H57.5906C57.5331 36.808 57.4759 36.8006 57.4206 36.785C57.3758 36.7716 57.3378 36.7416 57.3146 36.701C57.2799 36.6427 57.2603 36.5767 57.2576 36.509C57.2413 36.3988 57.2339 36.2874 57.2356 36.176V35.892C57.2356 35.785 57.2356 35.694 57.2426 35.615C57.2438 35.5494 57.2584 35.4847 57.2856 35.425C57.2954 35.4009 57.3099 35.3791 57.3283 35.3607C57.3467 35.3423 57.3685 35.3278 57.3926 35.318C57.4555 35.2929 57.5229 35.281 57.5906 35.283L59.6606 35.282Z" fill="black"></path>
  <path d="M61.7162 35.282C61.7844 35.2796 61.8523 35.2919 61.9153 35.318C61.9621 35.3401 61.9996 35.378 62.0212 35.425C62.0514 35.484 62.0685 35.5488 62.0712 35.615C62.0712 35.694 62.0782 35.785 62.0782 35.892V36.176C62.0782 36.317 62.0782 36.424 62.0562 36.509C62.0483 36.5767 62.0265 36.6421 61.9923 36.701C61.9674 36.7402 61.93 36.7698 61.8863 36.785C61.8311 36.8011 61.7737 36.8085 61.7162 36.807H59.6462C59.5888 36.8081 59.5315 36.8007 59.4763 36.785C59.431 36.7721 59.3926 36.7419 59.3692 36.701C59.3349 36.6427 59.3157 36.5767 59.3132 36.509C59.2969 36.3988 59.2896 36.2874 59.2912 36.176V35.892C59.2912 35.786 59.2912 35.694 59.2982 35.615C59.2992 35.5494 59.3138 35.4847 59.3412 35.425C59.351 35.4011 59.3654 35.3793 59.3836 35.3609C59.4018 35.3426 59.4234 35.328 59.4472 35.318C59.5105 35.2929 59.5782 35.2809 59.6462 35.283L61.7162 35.282Z" fill="black"></path>
  <path d="M63.7656 35.282C63.8337 35.2796 63.9016 35.2919 63.9646 35.318C64.0114 35.3401 64.0489 35.378 64.0706 35.425C64.1007 35.484 64.1178 35.5488 64.1206 35.615C64.1206 35.694 64.1276 35.785 64.1276 35.892V36.176C64.1276 36.317 64.1276 36.424 64.1056 36.509C64.0916 36.594 64.0766 36.658 64.0416 36.701C64.0167 36.7402 63.9794 36.7698 63.9356 36.785C63.8804 36.8012 63.823 36.8086 63.7656 36.807H61.6956C61.6381 36.8081 61.5808 36.8007 61.5256 36.785C61.4803 36.772 61.4419 36.7419 61.4186 36.701C61.3843 36.6427 61.365 36.5767 61.3626 36.509C61.3463 36.3988 61.3389 36.2874 61.3406 36.176V35.892C61.3406 35.786 61.3406 35.694 61.3476 35.615C61.3485 35.5494 61.3631 35.4847 61.3906 35.425C61.4004 35.401 61.4149 35.3792 61.4333 35.3608C61.4517 35.3424 61.4735 35.3279 61.4976 35.318C61.5605 35.293 61.6279 35.2811 61.6956 35.283L63.7656 35.282Z" fill="black"></path>
  <path d="M68.5147 34.4672C68.5147 34.3542 68.4947 34.2402 68.4587 34.1342C68.4176 34.0314 68.3602 33.9358 68.2887 33.8512C68.2076 33.7671 68.1112 33.6993 68.0047 33.6512C67.8861 33.6017 67.7583 33.5778 67.6297 33.5812C67.3667 33.5812 67.1197 33.6942 66.8997 33.9142C66.6717 34.1342 66.4877 34.4962 66.3397 34.9922C66.4177 35.0352 66.5097 35.0842 66.6087 35.1192C66.8097 35.2092 67.0217 35.2702 67.2397 35.3042C67.3457 35.3182 67.4447 35.3332 67.5297 35.3332C67.6717 35.3332 67.7997 35.3182 67.9197 35.2832C68.0355 35.2564 68.1443 35.2053 68.2387 35.1332C68.3337 35.0649 68.4075 34.9714 68.4517 34.8632C68.5053 34.7357 68.5319 34.5984 68.5297 34.4602M65.5507 36.2102C65.3773 36.3925 65.1701 36.5396 64.9407 36.6432C64.6887 36.7529 64.4156 36.8058 64.1407 36.7982H63.7647C63.6937 36.7982 63.6367 36.7982 63.5947 36.7772C63.5484 36.7622 63.5083 36.7323 63.4807 36.6922C63.447 36.6334 63.4256 36.5684 63.4177 36.5012C63.4014 36.3909 63.3941 36.2796 63.3957 36.1682V35.8842C63.3957 35.7782 63.3957 35.6852 63.4027 35.6072C63.4036 35.5415 63.4183 35.4768 63.4457 35.4172C63.4698 35.3715 63.5071 35.3342 63.5527 35.3102C63.6156 35.2847 63.683 35.2724 63.7507 35.2742H64.0557C64.1405 35.2783 64.2252 35.2647 64.3044 35.2342C64.3836 35.2037 64.4556 35.157 64.5157 35.0972C64.5663 35.0417 64.6093 34.9799 64.6437 34.9132C64.6779 34.8446 64.7063 34.7734 64.7287 34.7002C64.8987 34.1752 65.1117 33.7362 65.3597 33.3892C65.5752 33.0738 65.8411 32.7961 66.1467 32.5672C66.4227 32.3612 66.6917 32.2192 66.9617 32.1342C67.1957 32.0572 67.4387 32.0162 67.6847 32.0142C68.1958 32 68.6995 32.1382 69.1317 32.4112C69.3227 32.5312 69.4857 32.6802 69.6267 32.8432C69.7687 33.0062 69.8827 33.1762 69.9747 33.3602C70.0667 33.5452 70.1377 33.7302 70.1807 33.9272C70.2707 34.2802 70.2757 34.6502 70.1947 35.0052C70.3867 35.1052 70.5847 35.1682 70.7977 35.2102C71.0097 35.2462 71.2157 35.2682 71.4077 35.2682H71.4347C71.5197 35.2682 71.5907 35.2822 71.6327 35.3032C71.6827 35.3242 71.7187 35.3592 71.7387 35.4092C71.7689 35.4689 71.7859 35.5343 71.7887 35.6012C71.7887 35.6782 71.7967 35.7712 71.7967 35.8772V36.1602C71.7967 36.2952 71.7967 36.4092 71.7747 36.4932C71.7651 36.5596 71.7459 36.6243 71.7177 36.6852C71.692 36.7266 71.6517 36.7569 71.6047 36.7702C71.5495 36.7858 71.4922 36.7932 71.4347 36.7922H71.3917C71.2437 36.7922 71.0937 36.7782 70.9457 36.7422C70.7927 36.7054 70.6432 36.6556 70.4987 36.5932C70.3498 36.5292 70.2074 36.4508 70.0737 36.3592C69.9331 36.2693 69.8023 36.1647 69.6837 36.0472C69.4617 36.2912 69.1907 36.4872 68.8897 36.6212C68.5707 36.7712 68.1797 36.8482 67.7337 36.8482C67.3007 36.8491 66.8701 36.7823 66.4577 36.6502C66.1389 36.5565 65.839 36.4076 65.5717 36.2102H65.5357H65.5507Z" fill="black"></path>
  <path d="M73.9034 29.7242C73.9034 29.5962 73.9314 29.4762 73.9734 29.3702C74.0684 29.1504 74.2437 28.9751 74.4634 28.8802C74.5751 28.8309 74.6964 28.807 74.8184 28.8102C74.9454 28.8102 75.0654 28.8302 75.1714 28.8802C75.2784 28.9302 75.3774 28.9942 75.4624 29.0792C75.5474 29.1642 75.6124 29.2562 75.6614 29.3692C75.7114 29.4832 75.7314 29.5962 75.7314 29.7242C75.7344 29.8462 75.7105 29.9674 75.6614 30.0792C75.6142 30.1876 75.5466 30.286 75.4624 30.3692C75.3795 30.4536 75.281 30.5211 75.1724 30.5682C75.0607 30.6172 74.9395 30.6411 74.8174 30.6382C74.6958 30.6399 74.5752 30.616 74.4634 30.5682C74.3559 30.5193 74.2577 30.452 74.1734 30.3692C74.0872 30.2876 74.0191 30.1888 73.9734 30.0792C73.9251 29.9672 73.9012 29.8461 73.9034 29.7242ZM71.6834 29.7242C71.6834 29.5962 71.7134 29.4762 71.7554 29.3702C71.8023 29.2615 71.8695 29.1627 71.9534 29.0792C72.0366 28.9953 72.135 28.9281 72.2434 28.8812C72.3556 28.8319 72.477 28.8073 72.5994 28.8092C72.7264 28.8092 72.8394 28.8312 72.9524 28.8812C73.0604 28.9295 73.1589 28.9965 73.2434 29.0792C73.3284 29.1642 73.3934 29.2562 73.4424 29.3692C73.4924 29.4832 73.5124 29.5962 73.5124 29.7242C73.5153 29.8462 73.4914 29.9674 73.4424 30.0792C73.3951 30.1876 73.3276 30.286 73.2434 30.3692C73.1605 30.4536 73.062 30.5211 72.9534 30.5682C72.8417 30.6172 72.7205 30.6411 72.5984 30.6382C72.4782 30.6401 72.3589 30.6171 72.2479 30.5709C72.137 30.5246 72.0367 30.4559 71.9534 30.3692C71.8679 30.2874 71.8005 30.1886 71.7554 30.0792C71.7064 29.9673 71.6819 29.8463 71.6834 29.7242ZM71.4284 36.7992C71.371 36.8011 71.3137 36.794 71.2584 36.7782C71.2356 36.7727 71.2143 36.7622 71.196 36.7475C71.1776 36.7328 71.1628 36.7143 71.1524 36.6932C71.1179 36.6352 71.0984 36.5696 71.0954 36.5022C71.0794 36.3919 71.0721 36.2806 71.0734 36.1692V35.8842C71.0734 35.7782 71.0734 35.6862 71.0814 35.6082C71.0824 35.5425 71.097 35.4778 71.1244 35.4182C71.148 35.3723 71.185 35.3346 71.2304 35.3102C71.2934 35.2851 71.3607 35.2732 71.4284 35.2752H72.6194V32.1132H74.5694V36.8072H71.4294L71.4284 36.7992ZM13.9134 43.0522C13.9132 42.9014 13.9717 42.7565 14.0764 42.6482C14.1278 42.598 14.1878 42.5573 14.2534 42.5282C14.3992 42.4703 14.5616 42.4703 14.7074 42.5282C14.7752 42.5574 14.8374 42.598 14.8914 42.6482C14.9414 42.6982 14.9844 42.7622 15.0194 42.8332C15.0773 42.9738 15.0773 43.1316 15.0194 43.2722C14.9918 43.3407 14.9479 43.4015 14.8914 43.4492C14.7808 43.5548 14.6334 43.6133 14.4804 43.6122C14.3675 43.6153 14.2563 43.5836 14.162 43.5214C14.0677 43.4591 13.9949 43.3693 13.9534 43.2642C13.9253 43.1947 13.9117 43.1201 13.9134 43.0452M12.3744 43.0452C12.3742 42.8944 12.4327 42.7495 12.5374 42.6412C12.5905 42.5892 12.6534 42.5484 12.7224 42.5212C12.8679 42.4635 13.0299 42.4635 13.1754 42.5212C13.2445 42.5484 13.3075 42.5892 13.3604 42.6412C13.4125 42.6952 13.4554 42.7573 13.4874 42.8252C13.5455 42.9661 13.5455 43.1242 13.4874 43.2652C13.4601 43.3336 13.4165 43.3943 13.3604 43.4422C13.2501 43.5484 13.1026 43.6072 12.9494 43.6062C12.8743 43.608 12.7996 43.5944 12.7299 43.5662C12.6603 43.538 12.5971 43.4958 12.5444 43.4422C12.4914 43.3894 12.4496 43.3264 12.4218 43.2569C12.3939 43.1874 12.3805 43.113 12.3824 43.0382M11.9214 49.0712C11.5491 49.0767 11.1769 49.0526 10.8084 48.9992C10.5375 48.9616 10.2713 48.8953 10.0144 48.8012C9.82319 48.7309 9.64556 48.6281 9.48944 48.4972C9.36369 48.388 9.26014 48.2555 9.18444 48.1072C9.11264 47.9616 9.06245 47.8063 9.03544 47.6462C9.00921 47.4775 8.9975 47.3069 9.00044 47.1362C9.00044 47.0652 9.00044 46.9862 9.00744 46.9022C9.00744 46.8162 9.02144 46.7242 9.02944 46.6252C9.04344 46.5332 9.05044 46.4412 9.06444 46.3422C9.07844 46.2492 9.09344 46.1652 9.10744 46.0792L10.0214 46.1652C10.0004 46.2852 9.98544 46.4122 9.96444 46.5402C9.94442 46.6645 9.93505 46.7903 9.93644 46.9162C9.93644 47.1292 9.96444 47.3132 10.0144 47.4612C10.0794 47.6242 10.2044 47.7552 10.3614 47.8312C10.5394 47.9292 10.8014 47.9932 11.1414 48.0432C11.4814 48.0862 11.9424 48.1072 12.5164 48.1072H16.8764V44.9452H17.8474V49.0642H11.9144L11.9214 49.0712ZM19.5714 41.4282H20.5414V47.1502C20.5414 47.3422 20.5484 47.5052 20.5704 47.6252C20.578 47.7292 20.6066 47.8306 20.6544 47.9232C20.6984 47.9932 20.7544 48.0502 20.8254 48.0792C20.9119 48.1104 21.0035 48.125 21.0954 48.1222H21.4564C21.5844 48.1222 21.6834 48.1422 21.7464 48.1852C21.8114 48.2282 21.8464 48.2982 21.8464 48.4052V48.7732C21.8492 48.829 21.8393 48.8847 21.8174 48.9362C21.799 48.975 21.7694 49.0074 21.7324 49.0292C21.6933 49.0515 21.6502 49.0658 21.6054 49.0712C21.5624 49.0782 21.5054 49.0782 21.4564 49.0782H20.9464C20.7347 49.0814 20.5246 49.0405 20.3294 48.9582C20.1634 48.8847 20.0174 48.7725 19.9034 48.6312C19.7881 48.4871 19.7039 48.3206 19.6564 48.1422C19.6002 47.9438 19.5733 47.7383 19.5764 47.5322V41.4222L19.5714 41.4282Z" fill="black"></path>
  <path d="M23.5472 48.7801C23.5472 48.8441 23.5392 48.9001 23.5192 48.9431C23.5003 48.9816 23.4704 49.0137 23.4332 49.0351C23.3942 49.0578 23.351 49.0724 23.3062 49.0781C23.2562 49.0861 23.2062 49.0861 23.1562 49.0861H21.4502C21.3922 49.0861 21.3432 49.0861 21.3002 49.0781C21.2557 49.0713 21.2127 49.0567 21.1732 49.0351C21.1364 49.0135 21.1068 48.9815 21.0882 48.9431C21.0659 48.8921 21.056 48.8366 21.0592 48.7811V48.4111C21.0592 48.3111 21.0952 48.2341 21.1592 48.1921C21.2476 48.1431 21.3483 48.1205 21.4492 48.1271H23.1582C23.2591 48.1207 23.3597 48.1432 23.4482 48.1921C23.5132 48.2341 23.5482 48.3051 23.5482 48.4121V48.7811L23.5472 48.7801Z" fill="black"></path>
  <path d="M25.2552 48.7801C25.2582 48.8358 25.2487 48.8915 25.2272 48.9431C25.2086 48.9814 25.179 49.0135 25.1422 49.0351C25.1031 49.0577 25.06 49.0723 25.0152 49.0781C24.9652 49.0861 24.9152 49.0861 24.8652 49.0861H23.1582C23.1002 49.0861 23.0512 49.0861 23.0082 49.0781C22.9634 49.0723 22.9202 49.0577 22.8812 49.0351C22.8444 49.0135 22.8148 48.9814 22.7962 48.9431C22.7739 48.8921 22.764 48.8366 22.7672 48.7811V48.4111C22.7672 48.3111 22.8032 48.2341 22.8672 48.1921C22.9558 48.1434 23.0563 48.1208 23.1572 48.1271H24.8662C24.9671 48.1206 25.0677 48.1432 25.1562 48.1921C25.2212 48.2341 25.2562 48.3051 25.2562 48.4121V48.7811L25.2552 48.7801Z" fill="black"></path>
  <path d="M26.9645 48.7801C26.9645 48.8441 26.9575 48.9001 26.9355 48.9431C26.9171 48.9813 26.8879 49.0133 26.8515 49.0351C26.8122 49.0579 26.7686 49.0725 26.7235 49.0781C26.6735 49.0861 26.6235 49.0861 26.5745 49.0861H24.8665C24.8095 49.0861 24.7595 49.0861 24.7175 49.0781C24.6749 49.0724 24.634 49.0577 24.5975 49.0351C24.5603 49.0137 24.5303 48.9816 24.5115 48.9431C24.4893 48.8921 24.4793 48.8366 24.4825 48.7811V48.4111C24.4825 48.3111 24.5185 48.2341 24.5825 48.1921C24.671 48.1432 24.7716 48.1206 24.8725 48.1271H26.5815C26.7095 48.1271 26.8085 48.1491 26.8725 48.1921C26.9365 48.2341 26.9725 48.3051 26.9725 48.4121V48.7811L26.9645 48.7801Z" fill="black"></path>
  <path d="M28.6735 48.7801C28.6762 48.8359 28.6663 48.8916 28.6445 48.9431C28.6259 48.9815 28.5963 49.0135 28.5595 49.0351C28.5205 49.0577 28.4773 49.0723 28.4325 49.0781C28.3825 49.0861 28.3325 49.0861 28.2835 49.0861H26.5745C26.5185 49.0861 26.4685 49.0861 26.4265 49.0781C26.3839 49.0724 26.343 49.0577 26.3065 49.0351C26.2693 49.0136 26.2394 48.9816 26.2205 48.9431C26.1982 48.8921 26.1883 48.8366 26.1915 48.7811V48.4111C26.1915 48.3111 26.2275 48.2341 26.2915 48.1921C26.38 48.1432 26.4806 48.1206 26.5815 48.1271H28.2905C28.4175 48.1271 28.5175 48.1491 28.5805 48.1921C28.6445 48.2341 28.6805 48.3051 28.6805 48.4121V48.7811L28.6735 48.7801Z" fill="black"></path>
  <path d="M30.3816 48.7801C30.3816 48.8441 30.3746 48.9001 30.3536 48.9431C30.335 48.9815 30.3054 49.0135 30.2686 49.0351C30.2292 49.0578 30.1857 49.0724 30.1406 49.0781C30.0906 49.0861 30.0416 49.0861 29.9926 49.0861H28.2836C28.2266 49.0861 28.1776 49.0861 28.1336 49.0781C28.091 49.0724 28.0501 49.0577 28.0136 49.0351C27.9768 49.0135 27.9472 48.9814 27.9286 48.9431C27.9067 48.892 27.8971 48.8365 27.9006 48.7811V48.4111C27.9006 48.3111 27.9366 48.2341 28.0006 48.1921C28.0891 48.1432 28.1897 48.1206 28.2906 48.1271H29.9986C30.0995 48.1206 30.2001 48.1432 30.2886 48.1921C30.3546 48.2341 30.3886 48.3051 30.3886 48.4121V48.7811L30.3816 48.7801Z" fill="black"></path>
  <path d="M32.0974 48.7801C32.1004 48.8358 32.0908 48.8915 32.0694 48.9431C32.0505 48.9816 32.0206 49.0136 31.9834 49.0351C31.9444 49.0577 31.9012 49.0723 31.8564 49.0781C31.8064 49.0861 31.7564 49.0861 31.7064 49.0861H30.0004C29.9434 49.0861 29.8934 49.0861 29.8504 49.0781C29.8081 49.0712 29.7674 49.0566 29.7304 49.0351C29.6936 49.0135 29.664 48.9814 29.6454 48.9431C29.6235 48.892 29.6139 48.8365 29.6174 48.7811V48.4111C29.6174 48.3111 29.6524 48.2341 29.7164 48.1921C29.805 48.1434 29.9055 48.1208 30.0064 48.1271H31.7164C31.8173 48.1206 31.9179 48.1432 32.0064 48.1921C32.0704 48.2341 32.1054 48.3051 32.1054 48.4121V48.7811H32.0984L32.0974 48.7801Z" fill="black"></path>
  <path d="M33.7844 50.6868C33.7844 50.5368 33.8424 50.3918 33.9474 50.2828C34.058 50.1771 34.2054 50.1186 34.3584 50.1198C34.5114 50.1198 34.6584 50.1778 34.7694 50.2828C34.8485 50.3638 34.902 50.4662 34.9234 50.5773C34.9447 50.6884 34.9329 50.8034 34.8894 50.9078C34.8459 51.0115 34.7719 51.0995 34.6773 51.1603C34.5826 51.221 34.4718 51.2515 34.3594 51.2478C34.2462 51.2508 34.1349 51.2189 34.0404 51.1565C33.946 51.0941 33.873 51.0041 33.8314 50.8988C33.8033 50.8293 33.7896 50.7548 33.7914 50.6798M32.2534 50.6798C32.2532 50.5291 32.3116 50.3842 32.4164 50.2758C32.4665 50.2241 32.5268 50.1833 32.5934 50.1558C32.6655 50.1266 32.7426 50.112 32.8204 50.1128C32.9734 50.1116 33.1208 50.1701 33.2314 50.2758C33.2831 50.329 33.3239 50.3919 33.3514 50.4608C33.3814 50.5308 33.4014 50.6018 33.4014 50.6808C33.4027 50.7568 33.3855 50.8319 33.3514 50.8998C33.3229 50.9672 33.2812 51.0283 33.2288 51.0795C33.1765 51.1306 33.1145 51.1709 33.0464 51.1978C32.9746 51.2269 32.8978 51.2415 32.8204 51.2408C32.7445 51.2418 32.6691 51.2279 32.5986 51.1997C32.5281 51.1716 32.4638 51.1298 32.4094 51.0768C32.3562 51.0241 32.3143 50.9611 32.2863 50.8916C32.2583 50.8222 32.2447 50.7477 32.2464 50.6728M34.1314 47.7808C34.2954 47.8938 34.4864 47.9708 34.7054 48.0288C34.9254 48.0858 35.1874 48.1138 35.5004 48.1138H35.5434C35.6442 48.1071 35.7448 48.1293 35.8334 48.1778C35.8974 48.2208 35.9334 48.2908 35.9334 48.3978V48.7658C35.9358 48.8217 35.9255 48.8774 35.9034 48.9288C35.885 48.9671 35.8558 48.9991 35.8194 49.0208C35.7824 49.0424 35.7417 49.057 35.6994 49.0638C35.6494 49.0708 35.5994 49.0708 35.5494 49.0708H35.4924C35.1748 49.0787 34.8583 49.0306 34.5574 48.9288C34.3282 48.8449 34.1149 48.7228 33.9264 48.5678C33.8337 48.7132 33.7101 48.8365 33.5644 48.9288C33.3946 49.0341 33.1971 49.086 32.9974 49.0778H31.7074C31.6061 49.0844 31.505 49.0626 31.4154 49.0148C31.3524 48.9708 31.3164 48.8998 31.3164 48.7948V48.4258C31.3164 48.3538 31.3244 48.3058 31.3464 48.2628C31.3647 48.2245 31.3939 48.1925 31.4304 48.1708C31.4673 48.1489 31.508 48.1339 31.5504 48.1268C31.6004 48.1198 31.6504 48.1198 31.6994 48.1198H32.7904C32.8445 48.1213 32.898 48.1084 32.9455 48.0824C32.9929 48.0564 33.0326 48.0182 33.0604 47.9718C33.1244 47.8718 33.1604 47.7238 33.1604 47.5178V44.9658H34.1304V47.7948V47.7798L34.1314 47.7808Z" fill="black"></path>
  <path d="M37.6485 48.7801C37.6485 48.8441 37.6415 48.9001 37.6205 48.9431C37.6016 48.9816 37.5717 49.0137 37.5345 49.0351C37.4952 49.0579 37.4516 49.0725 37.4065 49.0781C37.3565 49.0861 37.3075 49.0861 37.2585 49.0861H35.5505C35.4935 49.0861 35.4435 49.0861 35.4005 49.0781C35.3582 49.0713 35.3175 49.0567 35.2805 49.0351C35.2437 49.0135 35.2141 48.9815 35.1955 48.9431C35.1729 48.8922 35.1627 48.8367 35.1655 48.7811V48.4111C35.1655 48.3111 35.2025 48.2341 35.2665 48.1921C35.3549 48.143 35.4556 48.1205 35.5565 48.1271H37.2665C37.3674 48.1207 37.468 48.1432 37.5565 48.1921C37.6205 48.2341 37.6555 48.3051 37.6555 48.4121V48.7811L37.6485 48.7801Z" fill="black"></path>
  <path d="M39.3567 48.7801C39.3567 48.8441 39.3497 48.9001 39.3287 48.9431C39.3101 48.9815 39.2805 49.0135 39.2437 49.0351C39.2044 49.0578 39.1608 49.0724 39.1157 49.0781C39.0657 49.0861 39.0167 49.0861 38.9677 49.0861H37.2577C37.2017 49.0861 37.1527 49.0861 37.1097 49.0781C37.0671 49.0724 37.0262 49.0577 36.9897 49.0351C36.9525 49.0137 36.9225 48.9816 36.9037 48.9431C36.8818 48.892 36.8722 48.8365 36.8757 48.7811V48.4111C36.8757 48.3111 36.9117 48.2341 36.9757 48.1921C37.0642 48.1432 37.1648 48.1206 37.2657 48.1271H38.9737C39.1017 48.1271 39.2017 48.1491 39.2637 48.1921C39.3287 48.2341 39.3637 48.3051 39.3637 48.4121V48.7811L39.3567 48.7801Z" fill="black"></path>
  <path d="M41.0646 48.7801C41.0675 48.8358 41.058 48.8915 41.0366 48.9431C41.0182 48.9813 40.989 49.0133 40.9526 49.0351C40.9132 49.0578 40.8697 49.0724 40.8246 49.0781C40.7746 49.0861 40.7246 49.0861 40.6746 49.0861H38.9676C38.9096 49.0861 38.8606 49.0861 38.8176 49.0781C38.775 49.0724 38.7341 49.0577 38.6976 49.0351C38.6608 49.0135 38.6312 48.9814 38.6126 48.9431C38.5903 48.8921 38.5804 48.8366 38.5836 48.7811V48.4111C38.5836 48.3111 38.6196 48.2341 38.6836 48.1921C38.7722 48.1434 38.8727 48.1209 38.9736 48.1271H40.6826C40.7835 48.1206 40.8841 48.1432 40.9726 48.1921C41.0376 48.2341 41.0726 48.3051 41.0726 48.4121V48.7811L41.0646 48.7801Z" fill="black"></path>
  <path d="M42.0084 43.052C42.0081 42.9013 42.0666 42.7564 42.1714 42.648C42.2215 42.5962 42.2817 42.5554 42.3484 42.528C42.4203 42.4984 42.4975 42.4834 42.5754 42.484C42.651 42.4825 42.7261 42.4975 42.7954 42.528C42.8631 42.5572 42.9253 42.5978 42.9794 42.648C43.0315 42.7022 43.0747 42.7643 43.1074 42.832C43.1653 42.9729 43.1653 43.131 43.1074 43.272C43.0797 43.3405 43.0357 43.4012 42.9794 43.449C42.8711 43.5539 42.7261 43.6124 42.5754 43.612C42.5005 43.6139 42.4259 43.6004 42.3565 43.5724C42.287 43.5443 42.224 43.5023 42.1714 43.449C42.1181 43.3963 42.0762 43.3333 42.0482 43.2638C42.0201 43.1943 42.0066 43.1199 42.0084 43.045M43.1064 47.788C43.2704 47.901 43.4614 47.979 43.6814 48.036C43.9014 48.093 44.1634 48.121 44.4754 48.121H44.5184C44.6191 48.1142 44.7198 48.1365 44.8084 48.185C44.8724 48.228 44.9084 48.298 44.9084 48.405V48.773C44.9106 48.8289 44.9004 48.8846 44.8784 48.936C44.8602 48.9746 44.831 49.007 44.7944 49.029C44.7573 49.0506 44.7167 49.0651 44.6744 49.072C44.6244 49.078 44.5744 49.078 44.5244 49.078H44.4674C44.1498 49.0858 43.8333 49.0378 43.5324 48.936C43.3019 48.8507 43.0865 48.7292 42.8944 48.576C42.8019 48.721 42.6786 48.8439 42.5334 48.936C42.3834 49.036 42.1934 49.086 41.9664 49.086H40.6764C40.5751 49.0927 40.4741 49.0702 40.3854 49.021C40.3204 48.979 40.2854 48.908 40.2854 48.801V48.433C40.2818 48.3771 40.2918 48.3212 40.3144 48.27C40.3325 48.2313 40.3617 48.199 40.3984 48.177C40.4355 48.1558 40.4761 48.1415 40.5184 48.135C40.5694 48.128 40.6184 48.128 40.6684 48.128H41.7604C41.8144 48.1291 41.8677 48.1159 41.9149 48.0897C41.9622 48.0636 42.0017 48.0254 42.0294 47.979C42.0934 47.879 42.1294 47.731 42.1294 47.525V44.973H43.0994V47.803L43.1064 47.788Z" fill="black"></path>
  <path d="M46.6223 48.7801C46.6223 48.8441 46.6153 48.9001 46.5943 48.9431C46.5758 48.9815 46.5462 49.0136 46.5093 49.0351C46.47 49.0579 46.4265 49.0725 46.3813 49.0781C46.3313 49.0861 46.2823 49.0861 46.2333 49.0861H44.5253C44.4673 49.0861 44.4183 49.0861 44.3753 49.0781C44.3327 49.0724 44.2918 49.0578 44.2553 49.0351C44.2182 49.0137 44.1882 48.9816 44.1693 48.9431C44.1474 48.8921 44.1378 48.8366 44.1413 48.7811V48.4111C44.1413 48.3111 44.1773 48.2341 44.2413 48.1921C44.3297 48.143 44.4304 48.1205 44.5313 48.1271H46.2393C46.3683 48.1271 46.4673 48.1491 46.5313 48.1921C46.5943 48.2341 46.6303 48.3051 46.6303 48.4121V48.7811L46.6223 48.7801Z" fill="black"></path>
  <path d="M48.3316 48.7801C48.3316 48.8441 48.3246 48.9001 48.3036 48.9431C48.285 48.9815 48.2554 49.0136 48.2186 49.0351C48.1792 49.0579 48.1357 49.0725 48.0906 49.0781C48.0406 49.0861 47.9916 49.0861 47.9426 49.0861H46.2346C46.1766 49.0861 46.1266 49.0861 46.0846 49.0781C46.0423 49.0712 46.0016 49.0567 45.9646 49.0351C45.9278 49.0136 45.8982 48.9815 45.8796 48.9431C45.857 48.8922 45.8467 48.8367 45.8496 48.7811V48.4111C45.8496 48.3111 45.8866 48.2341 45.9496 48.1921C46.0384 48.143 46.1394 48.1205 46.2406 48.1271H47.9486C48.0498 48.1205 48.1508 48.143 48.2396 48.1921C48.3036 48.2341 48.3396 48.3051 48.3396 48.4121V48.7811L48.3316 48.7801Z" fill="black"></path>
  <path d="M50.0402 48.7801C50.0402 48.8441 50.0332 48.9001 50.0112 48.9431C49.9926 48.9815 49.963 49.0135 49.9262 49.0351C49.8872 49.0577 49.844 49.0723 49.7992 49.0781C49.7492 49.0861 49.6992 49.0861 49.6502 49.0861H47.9412C47.8842 49.0861 47.8352 49.0861 47.7932 49.0781C47.7506 49.0724 47.7097 49.0577 47.6732 49.0351C47.636 49.0137 47.606 48.9816 47.5872 48.9431C47.5649 48.8921 47.555 48.8366 47.5582 48.7811V48.4111C47.5582 48.3111 47.5942 48.2341 47.6582 48.1921C47.7467 48.1432 47.8473 48.1206 47.9482 48.1271H49.6572C49.7842 48.1271 49.8842 48.1491 49.9482 48.1921C50.0122 48.2341 50.0482 48.3051 50.0482 48.4121V48.7811L50.0402 48.7801Z" fill="black"></path>
  <path d="M51.7492 48.7801C51.7515 48.836 51.7413 48.8917 51.7192 48.9431C51.7008 48.9814 51.6716 49.0134 51.6352 49.0351C51.5961 49.0578 51.553 49.0724 51.5082 49.0781C51.4582 49.0861 51.4082 49.0861 51.3592 49.0861H49.6502C49.5932 49.0861 49.5442 49.0861 49.5012 49.0781C49.4589 49.0712 49.4182 49.0567 49.3812 49.0351C49.3444 49.0135 49.3148 48.9815 49.2962 48.9431C49.2739 48.8921 49.264 48.8366 49.2672 48.7811V48.4111C49.2672 48.3111 49.3032 48.2341 49.3672 48.1921C49.4557 48.1432 49.5563 48.1207 49.6572 48.1271H51.3652C51.4664 48.1205 51.5674 48.143 51.6562 48.1921C51.7212 48.2341 51.7562 48.3051 51.7562 48.4121V48.7811L51.7492 48.7801Z" fill="black"></path>
  <path d="M54.5997 43.0519C54.5992 42.9013 54.6573 42.7564 54.7617 42.6479C54.812 42.596 54.8727 42.5551 54.9397 42.5279C55.0117 42.4983 55.0888 42.4833 55.1667 42.4839C55.2517 42.4839 55.3217 42.4989 55.3867 42.5279C55.4732 42.5629 55.5494 42.6193 55.6083 42.6916C55.6672 42.764 55.7069 42.8501 55.7237 42.9419C55.7503 43.0696 55.731 43.2026 55.6692 43.3175C55.6073 43.4324 55.5069 43.5218 55.3857 43.5699C55.3158 43.5982 55.241 43.6124 55.1657 43.6119C55.0128 43.6139 54.8654 43.5553 54.7557 43.4489C54.7022 43.3963 54.6601 43.3333 54.6319 43.2638C54.6037 43.1944 54.59 43.1199 54.5917 43.0449M53.2087 46.7389C53.2087 46.9509 53.2527 47.1359 53.3367 47.3059C53.4227 47.4759 53.5357 47.6179 53.6767 47.7379C53.8257 47.8619 53.9967 47.9559 54.1807 48.0149C54.3717 48.0789 54.5777 48.1149 54.7977 48.1149H55.1377C55.1807 48.0499 55.2297 47.9789 55.2797 47.8869C55.3879 47.676 55.4688 47.4522 55.5207 47.2209C55.5497 47.0929 55.5637 46.9579 55.5637 46.8169C55.5637 46.6249 55.5347 46.4479 55.4707 46.2989C55.4126 46.159 55.3284 46.0314 55.2227 45.9229C55.1187 45.8242 54.9959 45.7473 54.8617 45.6969C54.7255 45.6454 54.5812 45.6186 54.4357 45.6179C54.2867 45.6179 54.1387 45.6399 53.9957 45.6889C53.8533 45.7303 53.7209 45.8004 53.6067 45.8949C53.4901 45.9908 53.3936 46.1087 53.3227 46.2419C53.2487 46.3989 53.2127 46.5719 53.2167 46.7459M53.0607 43.0519C53.0604 42.9012 53.1189 42.7563 53.2237 42.6479C53.3319 42.5429 53.4769 42.4844 53.6277 42.4849C53.7057 42.4849 53.7837 42.4989 53.8547 42.5279C53.9421 42.5616 54.0192 42.6176 54.0785 42.6902C54.1377 42.7627 54.1771 42.8495 54.1927 42.9419C54.2191 43.0696 54.1997 43.2025 54.1379 43.3174C54.0761 43.4322 53.9758 43.5216 53.8547 43.5699C53.7115 43.6265 53.5523 43.6273 53.4087 43.5719C53.3393 43.544 53.2763 43.5021 53.2237 43.4489C53.1704 43.3962 53.1285 43.3332 53.1005 43.2637C53.0724 43.1943 53.0589 43.1198 53.0607 43.0449M56.9737 49.0779C56.5487 49.0779 56.1657 49.0639 55.8187 49.0349C55.497 49.0118 55.1773 48.967 54.8617 48.9009C54.641 48.9385 54.4188 48.9669 54.1957 48.9859C53.6956 49.0337 53.1939 49.0624 52.6917 49.0719C52.4297 49.0719 52.1747 49.0779 51.9257 49.0779H51.3657C51.2649 49.0843 51.1644 49.0621 51.0757 49.0139C51.0117 48.9709 50.9757 48.9009 50.9757 48.7939V48.4259C50.9725 48.3699 50.9828 48.314 51.0057 48.2629C51.024 48.2246 51.0532 48.1927 51.0897 48.1709C51.1267 48.1493 51.1674 48.1347 51.2097 48.1279C51.2597 48.1209 51.3097 48.1139 51.3597 48.1139H52.8617V48.0919C52.7617 48.0119 52.6767 47.9159 52.6067 47.8089C52.5375 47.7047 52.4805 47.593 52.4367 47.4759C52.3946 47.3677 52.3611 47.2564 52.3367 47.1429C52.3162 47.0448 52.3045 46.9451 52.3017 46.8449C52.3017 46.5609 52.3587 46.2989 52.4647 46.0439C52.5707 45.7919 52.7277 45.5649 52.9257 45.3769C53.1357 45.1769 53.3847 45.0229 53.6557 44.9239C53.9467 44.8099 54.2657 44.7539 54.6197 44.7539C54.9327 44.7539 55.2087 44.8039 55.4497 44.9019C55.6907 45.0019 55.8897 45.1359 56.0527 45.3069C56.2157 45.4769 56.3427 45.6749 56.4217 45.9099C56.5057 46.1359 56.5487 46.3839 56.5487 46.6399C56.5487 46.7949 56.5337 46.9449 56.5057 47.0929C56.4777 47.2339 56.4497 47.3769 56.4067 47.5039C56.3669 47.6208 56.3245 47.7368 56.2797 47.8519C56.2357 47.9579 56.1937 48.0429 56.1657 48.1209H57.5477C57.6488 48.114 57.7498 48.1362 57.8387 48.1849C57.9037 48.2279 57.9387 48.2979 57.9387 48.4049V48.7729C57.9416 48.8287 57.9317 48.8845 57.9097 48.9359C57.8913 48.9747 57.8617 49.0071 57.8247 49.0289C57.7876 49.0505 57.747 49.0651 57.7047 49.0719C57.6547 49.0779 57.6047 49.0779 57.5547 49.0779H56.9737Z" fill="black"></path>
  <path d="M59.6466 48.7801C59.6491 48.836 59.6388 48.8917 59.6166 48.9431C59.5983 48.9813 59.5691 49.0133 59.5326 49.0351C59.4936 49.0577 59.4504 49.0723 59.4056 49.0781C59.3556 49.0861 59.3056 49.0861 59.2556 49.0861H57.5486C57.4906 49.0861 57.4416 49.0861 57.3986 49.0781C57.3563 49.0712 57.3157 49.0566 57.2786 49.0351C57.2418 49.0135 57.2123 48.9814 57.1936 48.9431C57.1714 48.8921 57.1615 48.8366 57.1646 48.7811V48.4111C57.1646 48.3111 57.2006 48.2341 57.2646 48.1921C57.3531 48.1432 57.4538 48.1206 57.5546 48.1271H59.2626C59.3916 48.1271 59.4906 48.1491 59.5546 48.1921C59.6186 48.2341 59.6536 48.3051 59.6536 48.4121V48.7811L59.6466 48.7801Z" fill="black"></path>
  <path d="M61.3547 48.7801C61.3547 48.8441 61.3477 48.9001 61.3267 48.9431C61.3081 48.9814 61.2785 49.0135 61.2417 49.0351C61.2024 49.0578 61.1588 49.0724 61.1137 49.0781C61.0637 49.0861 61.0147 49.0861 60.9657 49.0861H59.2567C59.1997 49.0861 59.1507 49.0861 59.1077 49.0781C59.0651 49.0724 59.0242 49.0577 58.9877 49.0351C58.9506 49.0136 58.9206 48.9816 58.9017 48.9431C58.8799 48.892 58.8703 48.8365 58.8737 48.7811V48.4111C58.8737 48.3111 58.9097 48.2341 58.9737 48.1921C59.0622 48.1432 59.1628 48.1206 59.2637 48.1271H60.9717C61.0997 48.1271 61.1997 48.1491 61.2637 48.1921C61.3267 48.2341 61.3627 48.3051 61.3627 48.4121V48.7811L61.3547 48.7801Z" fill="black"></path>
  <path d="M63.0706 48.7801C63.0706 48.8441 63.0636 48.9001 63.0416 48.9431C63.0232 48.9813 62.994 49.0133 62.9576 49.0351C62.9182 49.0579 62.8747 49.0725 62.8296 49.0781C62.7796 49.0861 62.7306 49.0861 62.6796 49.0861H60.9726C60.9146 49.0861 60.8666 49.0861 60.8226 49.0781C60.7803 49.0712 60.7396 49.0566 60.7026 49.0351C60.6658 49.0135 60.6362 48.9815 60.6176 48.9431C60.5956 48.892 60.586 48.8365 60.5896 48.7811V48.4111C60.5896 48.3111 60.6246 48.2341 60.6896 48.1921C60.778 48.1431 60.8787 48.1205 60.9796 48.1271H62.6876C62.7885 48.1207 62.8891 48.1432 62.9776 48.1921C63.0426 48.2341 63.0776 48.3051 63.0776 48.4121V48.7811L63.0706 48.7801Z" fill="black"></path>
  <path d="M64.7795 48.7801C64.7795 48.8441 64.7725 48.9001 64.7505 48.9431C64.7319 48.9815 64.7023 49.0135 64.6655 49.0351C64.6264 49.0577 64.5832 49.0723 64.5385 49.0781C64.4885 49.0861 64.4385 49.0861 64.3885 49.0861H62.6805C62.6235 49.0861 62.5745 49.0861 62.5315 49.0781C62.4889 49.0724 62.4479 49.0578 62.4115 49.0351C62.3746 49.0135 62.345 48.9815 62.3265 48.9431C62.3042 48.8921 62.2943 48.8366 62.2975 48.7811V48.4111C62.2975 48.3111 62.3335 48.2341 62.3975 48.1921C62.486 48.1434 62.5866 48.1208 62.6875 48.1271H64.3965C64.4973 48.1206 64.598 48.1432 64.6865 48.1921C64.7515 48.2341 64.7865 48.3051 64.7865 48.4121V48.7811L64.7795 48.7801Z" fill="black"></path>
  <path d="M66.5015 43.052C66.5015 42.902 66.5605 42.756 66.6655 42.648C66.7738 42.543 66.9188 42.4845 67.0695 42.485C67.1455 42.4832 67.221 42.4967 67.2916 42.5247C67.3622 42.5527 67.4265 42.5946 67.4805 42.648C67.5593 42.7289 67.6127 42.8311 67.634 42.942C67.6553 43.0529 67.6437 43.1676 67.6005 43.272C67.572 43.3392 67.5305 43.4002 67.4783 43.4513C67.4261 43.5025 67.3644 43.5428 67.2965 43.57C67.2244 43.5988 67.1472 43.6131 67.0695 43.612C66.9564 43.6153 66.845 43.5837 66.7505 43.5214C66.656 43.4592 66.583 43.3692 66.5415 43.264C66.5134 43.1945 66.4998 43.1199 66.5015 43.045M64.9635 43.045C64.9633 42.8942 65.0218 42.7493 65.1265 42.641C65.1779 42.5908 65.2379 42.5501 65.3035 42.521C65.4493 42.4631 65.6117 42.4631 65.7575 42.521C65.8264 42.5485 65.8889 42.5898 65.9413 42.6422C65.9937 42.6946 66.035 42.7571 66.0625 42.826C66.0925 42.895 66.1105 42.969 66.1125 43.045C66.114 43.1213 66.0968 43.1968 66.0625 43.265C66.0336 43.3322 65.9917 43.393 65.9391 43.444C65.8866 43.4949 65.8246 43.535 65.7565 43.562C65.6138 43.6184 65.4551 43.6195 65.3115 43.565C65.2421 43.537 65.1792 43.4951 65.1265 43.442C65.0733 43.3893 65.0314 43.3263 65.0033 43.2568C64.9753 43.1873 64.9618 43.1129 64.9635 43.038M66.8215 47.781C66.9845 47.894 67.1755 47.972 67.3955 48.029C67.6155 48.086 67.8775 48.114 68.1885 48.114H68.2315C68.3595 48.114 68.4585 48.135 68.5225 48.178C68.5865 48.221 68.6225 48.291 68.6225 48.398V48.766C68.625 48.8219 68.6147 48.8776 68.5925 48.929C68.5742 48.9673 68.545 48.9993 68.5085 49.021C68.4716 49.0426 68.4309 49.0572 68.3885 49.064C68.3375 49.071 68.2885 49.071 68.2385 49.071H68.1815C67.864 49.0788 67.5475 49.0307 67.2465 48.929C67.0156 48.8432 66.7998 48.721 66.6075 48.567C66.5155 48.713 66.3925 48.837 66.2475 48.929C66.0975 49.029 65.9075 49.079 65.6805 49.079H64.3885C64.2876 49.0856 64.187 49.063 64.0985 49.014C64.0335 48.971 63.9985 48.901 63.9985 48.794V48.426C63.9985 48.355 64.0055 48.306 64.0275 48.263C64.0456 48.2242 64.0748 48.1918 64.1115 48.17C64.1489 48.1484 64.1899 48.1338 64.2325 48.127C64.2825 48.121 64.3325 48.121 64.3825 48.121H65.4725C65.5865 48.121 65.6785 48.071 65.7425 47.972C65.8065 47.872 65.8425 47.724 65.8425 47.518V44.966H66.8125V47.796L66.8215 47.781Z" fill="black"></path>
  <path d="M70.6633 47.7879C70.8263 47.9009 71.0233 47.9859 71.2443 48.0429C71.4643 48.0999 71.7333 48.1279 72.0453 48.1279H72.0883C72.1891 48.1217 72.2896 48.1439 72.3783 48.1919C72.4423 48.2339 72.4783 48.3049 72.4783 48.4119V48.7799C72.4783 48.8499 72.4703 48.8999 72.4483 48.9429C72.43 48.9812 72.4008 49.0132 72.3643 49.0349C72.3253 49.0575 72.2821 49.0722 72.2373 49.0779C72.1873 49.0849 72.1373 49.0919 72.0873 49.0919H72.0313C71.6553 49.0919 71.3433 49.0419 71.0883 48.9499C70.856 48.8645 70.6402 48.7396 70.4503 48.5809C70.3628 48.7305 70.2412 48.8572 70.0953 48.9509C69.92 49.0552 69.7182 49.1066 69.5143 49.0989H68.2243C68.1232 49.1054 68.0224 49.0832 67.9333 49.0349C67.8693 48.9919 67.8333 48.9219 67.8333 48.8149V48.4469C67.831 48.391 67.8412 48.3353 67.8633 48.2839C67.8814 48.2455 67.9107 48.2134 67.9473 48.1919C67.9867 48.1691 68.0302 48.1545 68.0753 48.1489C68.1253 48.1419 68.1753 48.1419 68.2243 48.1419H69.3153C69.3695 48.1433 69.4231 48.1302 69.4706 48.104C69.518 48.0778 69.5576 48.0395 69.5853 47.9929C69.6493 47.8939 69.6843 47.7449 69.6843 47.5389V41.4419H70.6563V47.8019L70.6633 47.7879Z" fill="black"></path>
  <path d="M72.0968 49.0859C71.9952 49.0925 71.8939 49.07 71.8048 49.0209C71.7408 48.9789 71.7058 48.9079 71.7058 48.8019V48.4329C71.7023 48.377 71.7122 48.3211 71.7348 48.2699C71.7533 48.2315 71.7829 48.1994 71.8198 48.1779C71.8567 48.1564 71.8975 48.1421 71.9398 48.1359C71.9898 48.1279 72.0398 48.1209 72.0888 48.1209H73.5558V41.4209H74.5278V49.0859H72.0878H72.0968Z" fill="black"></path>
  <path d="M116.098 45.13L119.983 49.064H129.596C129.596 49.064 125.612 44.88 121.053 40.23L116.098 45.13ZM109.505 38.09L112.49 35.14L114.269 33.382L114.127 33.241C107.754 27.172 103.175 27.781 98.4743 32.432L81.6104 49.106H91.9394L104.309 36.9L106.308 34.922L109.505 38.084V38.09Z" fill="black"></path>
  <path d="M120.679 28.7951L108.343 40.8901L106.309 42.9031L103.112 39.7411L100.127 42.6911L98.3467 44.4491C98.3967 44.4921 98.4467 44.5411 98.4887 44.5901C104.891 50.9211 109.442 50.0501 114.143 45.3991L131.001 28.7951H120.672H120.679ZM96.5107 32.7021L92.6257 28.7671H83.0127C83.0127 28.7671 86.9977 32.9501 91.5557 37.6011L96.5107 32.7021Z" fill="black"></path>
</svg>
