<?xml version="1.0" encoding="UTF-8"?>
<svg xmlns="http://www.w3.org/2000/svg" width="140" height="80" viewBox="0 0 140 80" fill="none">
  <path d="M33.9708 41.5698H29.8438V47.5818H33.9708C33.9708 47.5818 38.0987 47.7618 38.0987 44.4418C38.0987 44.4418 38.0988 41.5698 33.9708 41.5698Z" fill="black"></path>
  <path d="M18.001 24.7012V55.3002H49.497V24.7012H18.001ZM41.959 44.8912C41.959 51.0822 34.87 51.0822 34.87 51.0822H26.346V29.0982H33.794C40.524 29.6362 40.164 34.9312 40.164 34.9312C40.164 38.0712 37.473 39.3272 37.473 39.3272C42.139 40.6732 41.959 44.8912 41.959 44.8912Z" fill="black"></path>
  <path d="M36.1269 35.1098C36.1269 35.1098 36.3069 32.6868 33.0759 32.5068H30.0249V38.1598H32.7169C32.5369 38.0698 36.1269 38.0698 36.1269 35.1098ZM72.3769 35.1098C72.3769 35.1098 72.5569 32.6868 69.3269 32.5068H66.2769V38.1598H68.9679C68.7879 38.0698 72.3769 38.0698 72.3769 35.1098Z" fill="black"></path>
  <path d="M54.252 24.701V55.2999H85.748V24.701H54.252ZM78.21 44.8909C78.21 51.0819 71.122 51.082 71.122 51.082H62.597V29.0979H70.045C76.775 29.6359 76.415 34.931 76.415 34.931C76.415 38.071 73.724 39.327 73.724 39.327C78.39 40.673 78.21 44.8909 78.21 44.8909ZM90.504 24.7V55.2999H122V24.701L90.504 24.7ZM115.719 49.1969C115.719 49.1969 109.348 53.235 101.721 50.094C101.721 50.094 95.529 47.6709 95.171 40.0439C95.171 40.0439 94.991 31.9679 103.336 29.4559C103.336 29.4559 105.669 28.5589 109.527 28.9179C109.527 28.9179 112.04 29.097 115.36 30.712V34.75C115.36 34.75 111.412 32.3269 107.194 32.1479C107.194 32.1479 99.208 31.9679 98.849 40.0439C98.849 40.0439 98.49 47.402 107.015 47.761C107.015 47.761 110.604 48.12 115.36 44.979V49.1969H115.719Z" fill="black"></path>
  <path d="M70.2242 41.5698H66.0972V47.5818H70.2242C70.2242 47.5818 74.3522 47.7618 74.3522 44.4418C74.3522 44.4418 74.3522 41.5698 70.2242 41.5698Z" fill="black"></path>
</svg>
