<?xml version="1.0" encoding="UTF-8"?>
<svg xmlns="http://www.w3.org/2000/svg" width="140" height="80" viewBox="0 0 140 80" fill="none">
  <path d="M119.343 45.8423L117.05 49.6594L114.691 45.7646L113.934 45.921L116.65 50.3391V53.5211H117.417V50.3271L120.178 45.8423H119.343ZM107.256 45.8423V46.5327H109.748V53.5211H110.506V46.5327H113.021L112.909 45.8423H107.256ZM104.762 53.5211H105.53V45.8415H104.762V53.5211ZM100.5 49.1928C99.3202 48.6692 98.9535 48.3356 98.9535 47.6342C98.9535 46.9665 99.4532 46.4328 100.355 46.4328C101.001 46.4328 101.534 46.6329 101.968 46.922L102.08 46.1539C101.679 45.9202 101.113 45.7532 100.388 45.7532C99.1205 45.7532 98.1844 46.5206 98.1844 47.6789C98.1844 48.7695 98.7196 49.2586 100.188 49.9052C101.357 50.4169 101.736 50.7942 101.736 51.5525C101.736 52.4204 101.056 52.9321 100.154 52.9321C99.3754 52.9321 98.6631 52.6532 98.196 52.3532L98.0847 53.1318C98.5747 53.3987 99.2649 53.6104 100.121 53.6104C101.468 53.6104 102.502 52.8097 102.502 51.4959C102.502 50.3722 101.925 49.8159 100.5 49.1928ZM92.5539 49.4703V46.5206H93.7113C94.8235 46.5206 95.4245 47.0444 95.4245 47.9789C95.4245 48.9586 94.7117 49.4703 93.5774 49.4703H92.5539ZM96.204 47.9343C96.204 46.5998 95.2459 45.8423 93.7439 45.8423H91.785V53.5211H92.5539V50.1274H93.5443L96.0369 53.5998L96.8155 53.4332L94.379 50.0276C95.4364 49.8039 96.204 49.1256 96.204 47.9343ZM86.4982 49.8486H89.1699L89.0582 49.1583H86.4982V46.5327H89.7377V45.8423H85.7303V53.5211H89.8482V52.8318H86.4982V49.8486ZM80.9229 52.5768L78.3289 45.7646L77.5729 45.9316L80.5668 53.5671H81.2556L84.2728 45.8423H83.4713L80.9229 52.5768ZM75.1456 53.5211H75.9137V45.8415H75.1456V53.5211ZM71.8518 52.1089L67.5001 45.8423H66.7766V53.5211H67.5001V47.0558L71.9848 53.5211H72.5752V45.8423H71.8518V52.1089ZM47.3896 33.8363C47.1908 34.4419 44.9834 41.0631 44.4193 42.832C43.8532 44.6018 44.0203 45.478 44.0203 46.4149C44.0203 47.3568 44.1132 48.8141 42.4622 49.8182C41.8226 50.2061 41.356 50.5084 40.9712 50.8163C40.8797 50.814 40.7877 50.8117 40.6962 50.8117C39.1766 50.8117 37.8514 50.2263 37.1639 49.3585V49.3562C36.8578 48.9904 36.6862 48.5012 36.6862 47.9646C36.6862 47.9646 36.5638 46.6927 37.9972 45.9786C39.5416 45.212 39.7082 44.0666 39.7082 44.0666V43.78C39.6249 43.1215 39.1665 39.3629 39.3275 36.3612C39.8168 35.8376 40.449 35.5919 40.8534 35.486C40.9077 35.4695 40.9662 35.4565 41.0255 35.4446C41.1641 35.4142 41.2534 35.4022 41.2534 35.4022C42.3375 35.2744 43.4511 35.2076 44.365 34.1548C45.1128 33.3025 45.0119 32.6533 45.0119 32.6533H45.0152H40.2539C39.9295 32.6533 39.6474 32.8134 39.4697 33.0541C39.4224 33.1258 39.3717 33.2271 39.3096 33.3761C39.3073 33.3836 39.3036 33.3918 39.3014 33.401H39.299C38.1924 36.3212 39.132 43.439 39.1978 43.9304C38.589 44.09 37.4953 44.3244 36.262 44.3244C35.0278 44.3244 33.9368 44.09 33.3243 43.9304C33.3925 43.439 34.3298 36.3199 33.2231 33.401L33.2194 33.3918C33.2194 33.3918 33.2148 33.3836 33.2125 33.3761C33.1536 33.2271 33.0997 33.1258 33.056 33.0541C32.8762 32.8134 32.5931 32.6533 32.2683 32.6533H27.507H27.5106C27.5106 32.6533 27.4108 33.3025 28.1585 34.1548C29.071 35.2076 30.1846 35.2744 31.2688 35.4022C31.2688 35.4022 31.358 35.4142 31.497 35.4446C31.5559 35.4565 31.6144 35.4695 31.6696 35.486C32.0731 35.5919 32.7068 35.8376 33.196 36.3612C33.3561 39.3629 32.8972 43.1215 32.8154 43.78H32.8177V44.0666C32.8177 44.0666 32.9819 45.212 34.5249 45.9786C35.9569 46.6927 35.8386 47.9646 35.8386 47.9646C35.8386 48.5012 35.6665 48.9904 35.3596 49.3562V49.3585C34.6731 50.2263 33.3491 50.8117 31.8274 50.8117C31.7345 50.8117 31.6429 50.814 31.5509 50.8163H31.5499C31.1666 50.5084 30.6963 50.2061 30.0599 49.8182C28.4102 48.8141 28.5018 47.3568 28.5018 46.4149C28.5018 45.478 28.6689 44.6018 28.1033 42.832C27.5387 41.0631 25.3318 34.4419 25.1316 33.8363C24.9319 33.2344 24.8845 32.0786 25.8946 31.415C26.906 30.7505 28.3104 29.831 30.4396 28.4318C32.5728 27.0324 33.8756 27.5676 34.5061 27.8602C35.1337 28.1528 36.262 28.1528 36.262 28.1528C36.262 28.1528 37.3879 28.1528 38.0175 27.8602C38.6475 27.5676 39.9483 27.0324 42.0821 28.4318C44.2122 29.831 45.6161 30.7505 46.6276 31.415C47.6385 32.0786 47.5893 33.2344 47.3896 33.8363ZM39.4426 52.7098C38.6687 54.0443 37.4128 53.8717 36.262 53.8833C35.1093 53.8717 33.8544 54.0443 33.0795 52.7098C32.8006 52.2313 32.5563 51.8631 32.3 51.5516V51.5502C33.1821 51.4812 34.304 51.1669 35.73 50.4215C35.8925 50.3529 36.0733 50.3156 36.262 50.3156C36.4498 50.3156 36.632 50.3529 36.7943 50.4215C38.2186 51.1669 39.3427 51.4812 40.2235 51.5502C39.9658 51.8631 39.721 52.2313 39.4426 52.7098ZM49.2109 26.0867L49.0144 26.0881C42.7139 26.0881 42.0062 21.3949 41.9781 21.1861C41.8989 20.5942 41.3924 20.1428 40.7877 20.1428H31.7345C31.1289 20.1428 30.6232 20.5942 30.5431 21.1861C30.5159 21.3949 29.8082 26.0881 23.5063 26.0881L23.3121 26.0867C22.8409 26.0729 22.4199 26.3362 22.2188 26.7466C22.1097 26.9569 19.6318 32.0091 20.0468 38.6538C20.4301 44.7992 23.4534 53.4857 35.6937 60.0025C35.869 60.0931 36.0641 60.1414 36.262 60.1428C36.458 60.1414 36.6531 60.0931 36.8293 60.0025C49.0688 53.4857 52.093 44.7992 52.4753 38.6538C52.8903 32.0091 50.4129 26.9569 50.3033 26.7466C50.1008 26.3362 49.6812 26.0729 49.2109 26.0867ZM86.2511 32.8006H85.5094V29.0336H86.3063C87.7163 29.0336 88.4397 29.6466 88.4397 30.8706C88.4397 32.1875 87.661 32.8006 86.2511 32.8006ZM86.4922 26.6407H82.3738V39.4407H85.5457V35.1933H86.363C89.4603 35.1933 91.519 33.7088 91.519 30.8154C91.519 28.0319 89.6084 26.6407 86.4922 26.6407ZM61.9685 37.1596V33.8575H63.1009C64.4353 33.8575 65.1596 34.4322 65.1596 35.5458C65.1596 36.6207 64.417 37.1596 63.1373 37.1596H61.9685ZM61.9685 28.9231H63.1009C64.325 28.9231 64.8449 29.4607 64.8449 30.3147C64.8449 31.241 64.2145 31.8162 63.0254 31.8162H61.9685V28.9231ZM68.1466 35.7492C68.1466 34.0057 67.2189 33.1152 65.8278 32.6698C66.8664 32.2065 67.6643 31.3528 67.6643 29.9618C67.6643 27.8837 66.2359 26.6407 63.3232 26.6407H58.9626V39.4407H63.2302C66.2912 39.4407 68.1466 38.2166 68.1466 35.7492ZM74.6753 32.8006H73.9335V29.0336H74.7319C76.1404 29.0336 76.8653 29.6466 76.8653 30.8706C76.8653 32.1875 76.0853 32.8006 74.6753 32.8006ZM79.9446 30.8154C79.9446 28.0319 78.0341 26.6407 74.9165 26.6407H70.7985V39.4407H73.9708V35.1933H74.7871C77.8845 35.1933 79.9446 33.7088 79.9446 30.8154ZM63.9719 50.5954C63.9719 52.0536 63.2256 52.9542 61.8451 52.9542C60.4328 52.9542 59.7307 51.975 59.7307 50.5494V45.8423H58.9626V50.6506C58.9626 52.4416 60.0316 53.6435 61.8345 53.6435C63.6383 53.6435 64.739 52.4535 64.739 50.5954V45.8423H63.9719V50.5954Z" fill="black"></path>
</svg>
