<?xml version="1.0" encoding="UTF-8"?>
<svg xmlns="http://www.w3.org/2000/svg" width="140" height="80" viewBox="0 0 140 80" fill="none">
  <path d="M13.705 32.95H14.002C14.002 32.95 14.151 33.1 14.3 33.1H14.449C14.449 33.1 14.449 33.248 14.597 33.248L14.747 33.397V33.694C14.597 33.844 14.597 33.844 14.597 33.992C14.449 34.141 14.449 34.141 14.449 34.29C14.299 34.29 14.449 34.438 14.299 34.438V34.736C14.299 34.736 14.299 34.885 14.151 34.885V35.331C14.151 35.48 14.151 35.48 14.3 35.629C14.3 35.778 14.449 35.778 14.449 35.778C14.449 35.926 14.597 35.926 14.597 35.926H14.747C14.747 35.926 14.895 35.926 14.895 36.076C15.044 36.076 15.193 36.224 15.193 36.224V36.373C15.341 36.373 15.193 36.522 15.341 36.522C15.341 36.67 15.044 36.819 14.895 36.968C14.8177 36.9732 14.7448 37.0062 14.69 37.061C14.6352 37.1158 14.6022 37.1887 14.597 37.266V37.414C14.449 37.414 14.3 37.564 14.151 37.712C14.151 37.861 14.002 37.712 13.853 37.861H13.705C13.555 37.861 13.555 38.01 13.555 38.158L13.407 38.308H13.11C13.11 38.456 12.96 38.456 12.812 38.456H12.365L12.217 38.605C12.217 38.605 12.067 38.605 12.067 38.754C11.919 38.754 11.919 38.754 11.77 38.902H11.621C11.621 38.902 11.473 39.052 11.324 39.052C11.324 39.052 11.324 39.2 11.175 39.2C11.026 39.2 11.026 39.349 10.878 39.349C10.728 39.349 10.728 39.497 10.728 39.497C10.728 39.497 10.58 39.497 10.58 39.647C10.431 39.795 10.282 39.944 9.985 40.093L9.836 40.241C9.687 40.241 9.687 40.391 9.687 40.391C9.687 40.391 9.538 40.391 9.538 40.539C9.39 40.539 9.39 40.688 9.39 40.688L9.24 40.837C9.24 40.837 9.092 40.837 9.092 40.985L8.943 41.209L8.794 41.357C8.646 41.357 8.497 41.507 8.348 41.655C8.348 41.804 8.199 41.804 8.199 41.804H8.125C8.125 41.804 7.976 41.804 7.976 41.952C7.827 41.952 7.679 42.102 7.679 42.102C7.529 42.102 7.381 42.102 7.232 41.952C7.232 41.804 7.232 41.804 7.083 41.804V40.167C6.935 40.167 6.935 40.018 6.935 40.018V39.869C6.935 39.721 6.785 39.721 6.785 39.572C6.785 39.423 6.785 39.274 6.637 39.274V39.126C6.637 38.976 6.488 38.605 6.488 38.456C6.488 38.307 6.488 38.307 6.339 38.158C6.191 38.01 6.191 37.861 6.191 37.861C6.041 37.711 6.041 37.563 6.041 37.563V37.414C6.041 37.266 6.041 37.117 5.893 37.117V36.968C5.744 36.819 5.744 36.67 5.744 36.522C5.595 36.372 5.595 36.224 5.447 36.075C5.297 35.926 5.447 35.629 5.297 35.48V34.439C5.297 34.439 5.297 34.289 5.149 34.141C5.149 33.992 5 33.992 5 33.843V33.248L5.15 33.099C5.298 32.951 5.298 32.802 5.447 32.653V32.504C5.595 32.207 5.893 32.504 6.191 32.355H6.339C6.637 32.355 7.083 32.653 7.381 32.653C7.53 32.653 7.679 32.802 7.976 32.802H9.018C9.315 32.802 9.613 32.951 9.91 32.802H10.06C10.357 32.802 10.654 32.653 10.803 32.653H10.952C11.101 32.653 11.25 32.802 11.398 32.802C11.548 32.802 11.696 32.653 11.845 32.802H12.885C13.035 32.802 13.183 32.802 13.48 32.653C13.555 32.802 13.555 32.802 13.704 32.951L13.705 32.95ZM27.712 37.586H27.117C26.968 37.734 26.67 37.586 26.522 37.734H26.372C26.224 37.734 26.075 37.734 26.075 37.883H25.331L25.183 38.032H24.587C24.29 38.032 24.141 37.883 23.992 37.883H23.695L23.545 37.734C23.545 37.734 23.545 37.586 23.397 37.734H22.504C22.355 37.734 22.207 37.883 22.132 37.883C22.058 37.883 21.835 38.032 21.835 38.032H21.091C20.941 38.181 20.644 38.032 20.495 38.181C20.347 38.181 20.347 38.329 20.198 38.329H19.155L19.007 38.479C18.857 38.479 18.857 38.776 18.709 38.925C18.56 38.925 18.709 39.073 18.56 39.222V39.52C18.411 39.669 18.709 39.817 18.709 39.966V40.561C18.709 40.711 18.858 40.711 18.858 40.859L19.155 41.008L19.305 41.156H19.751C19.899 41.156 19.899 41.156 20.048 41.306H20.197C20.346 41.306 20.643 41.454 20.792 41.454C20.941 41.454 20.941 41.603 21.09 41.603C21.09 41.603 21.238 41.603 21.387 41.752C21.537 41.752 21.537 41.752 21.537 41.9C21.685 41.9 21.685 42.05 21.834 42.05C21.982 42.124 21.982 42.272 22.131 42.272C22.131 42.272 22.28 42.272 22.28 42.422C22.429 42.422 22.429 42.57 22.578 42.57L22.726 42.719L22.876 42.868C22.876 42.868 23.024 42.868 23.024 43.016C23.173 43.016 23.322 43.166 23.47 43.166H23.62L24.958 43.612C25.256 43.612 25.554 43.76 25.702 43.76C25.851 43.91 26.149 43.91 26.297 44.058C26.447 44.058 26.447 44.058 26.595 44.207H26.744C26.893 44.207 27.041 44.355 27.19 44.355H27.339C27.339 44.355 27.488 44.505 27.488 44.355C27.488 44.355 27.636 44.355 27.636 44.505L27.934 44.653H28.232V37.437C28.0809 37.5456 27.8967 37.5983 27.711 37.586H27.712ZM11.78 49.166V48.868C11.78 48.868 11.78 48.72 11.929 48.72C11.929 48.72 11.929 48.57 12.078 48.422C12.078 48.273 12.226 48.273 12.226 48.124C12.226 47.976 12.376 47.827 12.376 47.827C12.376 47.827 12.376 47.678 12.524 47.678C12.524 47.529 12.673 47.529 12.673 47.381V47.231C12.673 47.083 12.822 46.934 12.822 46.785C12.822 46.637 12.97 46.637 12.97 46.488V46.338C12.97 46.19 13.12 46.19 13.12 46.041L13.268 45.893C13.417 45.743 13.417 45.595 13.565 45.446C13.5704 45.3688 13.6035 45.2962 13.6583 45.2416C13.7131 45.187 13.7858 45.1541 13.863 45.149L14.012 44.999C14.012 44.851 14.161 44.851 14.161 44.851C14.161 44.702 14.458 44.553 14.458 44.256V44.107C14.458 43.958 14.608 43.735 14.756 43.587L14.905 43.437L15.053 43.289H15.203C15.203 43.289 15.351 43.289 15.351 43.139C15.5 42.991 15.5 42.842 15.5 42.842C15.5 42.694 15.649 42.694 15.649 42.545C15.649 42.395 15.723 42.395 15.723 42.247V42.098C15.872 41.95 15.723 41.652 15.723 41.503C15.7176 41.4258 15.6845 41.3532 15.6297 41.2986C15.5749 41.244 15.5022 41.2111 15.425 41.206C15.277 41.206 15.277 41.056 15.277 41.056V40.908C15.277 40.759 15.127 40.759 15.127 40.61C15.1216 40.533 15.0886 40.4605 15.034 40.406C14.9795 40.3514 14.907 40.3184 14.83 40.313H14.756C14.607 40.313 14.607 40.164 14.458 40.164H13.565C13.268 40.164 13.119 40.313 12.822 40.462C12.672 40.462 12.672 40.462 12.524 40.61C12.226 40.76 11.929 40.76 11.78 41.057H11.631C11.482 41.057 11.482 41.206 11.334 41.206C11.334 41.206 11.334 41.354 11.184 41.354C11.184 41.504 11.036 41.504 11.036 41.504C11.036 41.652 10.887 41.504 10.887 41.652C10.738 41.652 10.59 41.801 10.441 41.949C10.143 42.247 9.697 42.396 9.399 42.694L8.953 43.14C8.804 43.289 8.655 43.437 8.507 43.437C8.507 43.437 8.357 43.587 8.209 43.587C8.209 43.587 8.06 43.587 8.06 43.735C7.911 43.735 7.911 43.884 7.911 43.884C7.763 44.033 7.763 44.181 7.688 44.181V44.925C7.688 45.075 7.837 45.223 7.837 45.372C7.837 45.521 7.837 45.669 7.986 45.669L8.432 46.562V47.157C8.581 47.455 8.73 47.604 8.73 47.752C8.73 47.902 8.73 47.902 8.879 48.05C8.879 48.348 8.879 48.496 9.027 48.645V49.24C8.879 49.687 9.027 49.984 9.325 50.282C9.474 50.431 9.325 50.58 9.325 50.728C9.325 50.878 9.325 51.026 9.474 51.175C9.623 51.324 9.771 51.175 9.771 51.324H10.366C10.516 51.472 10.664 51.324 10.813 51.324L10.962 51.174L11.11 51.026C11.11 50.877 11.26 51.026 11.26 50.877H11.408L11.557 50.728V50.58C11.557 50.58 11.706 50.58 11.706 50.43C11.706 50.43 11.706 50.282 11.854 50.282C11.854 50.133 11.854 50.133 12.004 50.133V49.984C12.004 49.984 12.152 49.836 12.004 49.836V49.686C11.78 49.612 11.78 49.464 11.78 49.166C11.929 49.315 11.78 49.315 11.78 49.166ZM12.184 51.14C12.482 51.14 12.779 50.992 12.928 50.992H13.969C14.119 50.992 14.267 51.14 14.267 51.14C14.713 51.14 15.16 50.843 15.755 50.992C16.201 50.992 16.648 51.289 17.095 51.289C17.392 51.289 17.54 51.289 17.838 51.438C18.285 51.438 18.731 51.736 19.178 51.736H19.624C19.921 51.736 20.219 51.884 20.516 51.884C20.814 51.884 21.26 51.884 21.558 51.736C21.707 51.736 21.855 51.884 22.153 51.884C22.302 51.736 22.599 52.034 22.897 51.884L23.195 52.034H23.492C23.641 52.034 23.939 52.182 24.087 52.182C24.237 52.182 24.534 52.331 24.683 52.331H24.98C25.129 52.182 25.278 52.331 25.278 52.331C25.426 52.331 25.575 52.48 25.724 52.48H26.319C26.766 52.33 27.063 52.777 27.361 52.628C27.658 52.628 27.956 52.48 28.105 52.48V48.983H27.51C27.36 48.983 27.212 48.834 27.212 48.834C27.212 48.834 27.212 48.685 27.063 48.685L26.84 48.537H26.691C26.691 48.537 26.542 48.537 26.542 48.387H26.394C26.394 48.387 26.244 48.387 26.244 48.239C26.096 48.239 26.096 48.09 25.947 48.09H25.799V47.941H25.649C25.352 47.644 25.054 47.495 24.757 47.197C24.608 47.049 24.459 46.9 24.459 46.751C24.311 46.602 24.162 46.602 24.162 46.454C24.013 46.454 24.013 46.304 24.013 46.304H23.864C23.864 46.304 23.864 46.156 23.715 46.156L23.567 46.007C23.417 46.007 23.417 45.858 23.269 45.858H22.971C22.674 45.71 22.525 45.71 22.227 45.561C22.079 45.561 22.079 45.411 22.079 45.411L21.186 44.966C21.186 44.966 21.186 44.816 21.037 44.816C20.888 44.668 20.888 44.519 20.739 44.37V44.073L20.591 43.924L20.144 43.478L19.996 43.328H19.846L19.698 43.18H19.178C19.028 43.18 19.028 43.18 18.88 43.031H18.582C18.433 43.031 18.433 43.181 18.285 43.181H17.987C17.838 43.181 17.838 43.329 17.838 43.329L17.689 43.478C17.541 43.626 17.392 43.775 17.392 43.924C17.392 44.073 17.242 44.073 17.094 44.222V44.37C16.945 44.52 16.797 44.52 16.797 44.668C16.647 44.817 16.499 44.966 16.499 45.114C16.201 45.412 16.053 45.858 15.755 46.156L15.606 46.305C15.606 46.305 15.606 46.453 15.457 46.453C15.457 46.603 15.309 46.603 15.309 46.751C15.309 46.9 15.159 46.9 15.159 47.049C15.011 47.346 14.862 47.495 14.862 47.793C14.862 47.941 14.713 47.941 14.713 48.09C14.713 48.239 14.713 48.388 14.565 48.388C14.415 48.537 14.415 48.685 14.267 48.834C14.267 48.834 14.118 48.834 14.118 48.983C13.969 49.132 13.821 49.355 13.821 49.503V49.653L13.671 49.801V49.951C12.631 50.545 12.333 50.842 12.184 51.14ZM28.17 31.73V26H27.873C27.723 26 27.575 26 27.426 26.15H26.236C26.087 26.15 26.087 26.298 26.087 26.298C25.938 26.447 25.641 26.447 25.492 26.596C25.343 26.596 25.194 26.744 25.046 26.893C24.748 27.042 24.45 27.191 24.302 27.34C24.152 27.34 24.004 27.488 24.004 27.488C24.004 27.488 23.855 27.488 23.855 27.638L23.707 27.786C23.557 27.786 23.409 27.935 23.409 27.935C23.26 28.084 23.111 28.084 22.962 28.232C22.814 28.382 22.665 28.382 22.367 28.53C22.219 28.53 22.219 28.679 22.07 28.679C21.9928 28.6841 21.9201 28.717 21.8653 28.7716C21.8105 28.8262 21.7774 28.8988 21.772 28.976C21.623 29.2 21.475 29.348 21.326 29.497C21.177 29.497 21.177 29.646 21.028 29.646C21.028 29.646 20.879 29.646 20.879 29.795C20.805 29.943 20.805 29.943 20.656 29.943H20.507C20.359 29.943 20.359 29.943 20.21 30.093C20.061 30.241 19.912 30.241 19.763 30.241H19.466C19.317 30.241 19.317 30.241 19.168 30.39L19.02 30.539C18.87 30.539 18.722 30.687 18.722 30.687C18.424 30.687 18.127 30.837 17.978 30.837H17.532C17.382 30.837 17.382 30.985 17.234 30.985C17.085 30.985 16.788 31.283 16.639 31.283C16.49 31.431 16.341 31.431 16.192 31.431C16.044 31.431 15.746 31.581 15.746 31.581C15.597 31.581 15.597 31.729 15.449 31.729L15.299 31.878H15.151C15.151 31.878 15.002 31.878 15.002 32.027C14.853 32.175 14.853 32.027 14.853 32.175V32.325C15.003 32.473 15.003 32.622 15.151 32.622L15.3 32.77C15.449 32.77 15.449 32.92 15.597 32.92C15.597 32.92 15.747 32.92 15.747 33.068L15.895 33.217C16.044 33.217 16.044 33.217 16.192 33.366H16.49C16.49 33.514 16.639 33.514 16.639 33.514L16.788 33.664L16.936 33.812L17.234 34.11V34.258L17.383 34.408C17.383 34.556 17.532 34.556 17.383 34.705V34.854C17.532 35.002 17.383 35.002 17.383 35.151C17.532 35.3 17.383 35.449 17.383 35.449V35.746C17.234 35.746 17.383 35.896 17.234 35.896C17.234 36.044 16.936 36.044 17.085 36.193V36.49C17.234 36.49 17.085 36.64 17.234 36.64C17.383 36.64 17.829 36.937 17.978 36.937H18.127C18.127 37.086 18.275 36.937 18.275 36.937H19.019C19.169 36.937 19.317 36.787 19.317 36.787H19.466C19.615 36.787 19.615 36.639 19.763 36.639C19.763 36.639 19.913 36.49 20.061 36.49H20.21C20.507 36.342 20.656 36.044 21.103 36.044C21.4 35.895 21.698 35.895 21.847 35.746C21.995 35.746 22.144 35.598 22.293 35.598C22.591 35.448 22.739 35.3 23.037 35.151C23.186 35.151 23.186 35.002 23.334 35.002C23.484 34.854 23.781 34.854 23.93 34.854C24.078 34.704 24.376 34.704 24.525 34.407C24.674 34.407 24.674 34.259 24.822 34.259C24.972 34.109 25.12 34.109 25.269 33.961L25.418 33.812L25.566 33.663C25.716 33.663 25.716 33.515 25.864 33.366C26.013 33.366 26.013 33.216 26.161 33.216C26.161 33.216 26.311 33.216 26.311 33.068C26.311 32.919 26.459 33.068 26.459 32.919C26.608 32.919 26.608 32.771 26.757 32.771L27.054 32.621C27.204 32.473 27.501 32.473 27.649 32.324C27.873 32.027 28.021 31.879 28.17 31.73ZM62.65 45.891C62.203 45.891 61.608 46.338 61.161 47.231V46.041H60.12V51.322H61.012V48.57C61.012 47.677 61.608 46.933 62.352 46.933C62.5 46.933 62.947 47.082 63.244 47.379L63.84 46.487C63.393 46.04 62.947 45.891 62.65 45.891ZM40.215 48.082C40.215 50.016 39.025 51.355 36.644 51.355C35.007 51.355 33.371 50.463 33.371 48.231V43.321H34.485V48.156C34.485 49.049 34.635 49.496 34.932 49.793C35.164 50.031 35.4417 50.2196 35.7485 50.3474C36.0552 50.4753 36.3847 50.5398 36.717 50.537C37.61 50.537 38.205 50.24 38.652 49.942C39.098 49.495 39.098 48.9 39.098 48.156V43.47H40.288V48.083M42.419 46.635C42.865 46.189 43.461 45.891 44.056 45.891C45.097 45.891 45.841 46.635 45.841 47.974V51.248H44.8V47.974C44.8 47.23 44.353 46.635 43.758 46.635C43.312 46.635 43.014 46.785 42.419 47.379V51.173H41.378V45.89H42.419V46.635ZM47.601 44.941C47.303 44.941 47.006 44.644 47.006 44.346C47.006 44.049 47.303 43.751 47.601 43.751C47.898 43.751 48.196 44.048 48.196 44.346C48.345 44.644 48.047 44.941 47.601 44.941ZM48.196 51.265H47.155V45.983H48.197L48.196 51.265ZM48.95 46.041H49.917L51.405 49.165L52.744 46.041H53.934L51.554 51.249H51.256L48.95 46.041ZM58.614 49.76C58.018 50.206 57.498 50.355 56.902 50.355C55.861 50.355 55.266 49.76 55.117 48.718H58.837C58.837 46.784 57.944 45.891 56.605 45.891C55.117 45.891 54.225 46.933 54.225 48.57C54.225 50.057 55.117 51.397 56.754 51.397C57.646 51.397 58.242 51.247 58.837 50.801V49.76H58.614ZM55.117 48.123C55.266 47.23 55.712 46.784 56.457 46.784C57.2 46.784 57.647 47.23 57.647 48.124L55.117 48.123ZM67.218 47.344C66.623 46.898 66.028 46.749 65.73 46.749C65.284 46.749 64.986 46.898 64.986 47.196C64.986 47.493 65.284 47.642 66.326 48.237C67.218 48.832 67.516 49.13 67.516 49.725C67.516 50.618 66.772 51.213 65.73 51.213C65.135 51.287 64.54 51.138 63.945 50.841V49.651C64.689 50.097 65.284 50.395 65.73 50.395C66.177 50.395 66.474 50.245 66.474 49.799C66.474 49.055 64.094 48.758 64.094 47.269C64.094 46.377 64.838 45.782 65.879 45.782C66.326 45.782 66.921 45.931 67.367 46.228V47.418M69.109 44.941C68.812 44.941 68.514 44.644 68.514 44.346C68.514 44.049 68.812 43.751 69.109 43.751C69.407 43.751 69.705 44.048 69.705 44.346C69.705 44.644 69.407 44.941 69.109 44.941ZM69.556 51.265H68.515V45.983H69.557L69.556 51.265ZM72.37 46.015H74.006V46.908H72.37V49.587C72.37 50.182 72.816 50.331 73.113 50.331C73.56 50.331 73.857 50.181 74.303 49.884V50.926C73.932 51.149 73.411 51.298 73.113 51.298C71.923 51.298 71.477 50.554 71.477 49.661V46.76H70.585V46.61L72.519 44.676V46.016M75.899 54H74.708L76.493 50.057L74.41 46.04H75.6L77.089 48.867L78.353 46.04H79.545L75.899 54ZM85.319 45.89C83.683 45.89 82.493 47.08 82.493 48.569C82.493 50.205 83.683 51.396 85.32 51.396C86.957 51.396 88.147 50.206 88.147 48.569C88.147 46.932 86.956 45.89 85.319 45.89ZM85.319 46.783C86.361 46.783 87.105 47.527 87.105 48.569C87.105 49.759 86.361 50.354 85.32 50.354C84.278 50.354 83.683 49.61 83.683 48.569C83.683 47.527 84.277 46.783 85.319 46.783ZM91.939 44.222C91.79 44.222 91.641 44.072 91.492 44.072C90.6 44.072 90.451 44.519 90.451 45.412V45.858H91.344V46.751H90.451V51.141H89.409V46.751H88.666V45.858H89.409V45.412C89.409 44.37 89.707 43.924 90.005 43.478C90.451 43.031 91.046 42.882 91.939 43.031V44.222ZM99.283 44.966C98.613 44.37 98.018 44.073 97.423 44.073C96.679 44.073 96.233 44.519 96.233 44.966C96.233 46.453 99.655 46.453 99.655 49.057C99.655 50.247 98.762 51.289 97.423 51.289C96.6173 51.2938 95.8327 51.0322 95.191 50.545V49.057C95.786 49.801 96.53 50.247 97.274 50.247C98.167 50.247 98.613 49.653 98.613 49.132C98.613 47.495 95.191 47.346 95.191 45.04C95.191 43.7 96.084 42.957 97.571 42.957C98.167 42.957 98.761 43.106 99.357 43.552L99.283 44.966ZM101.843 46.014H103.479V46.907H101.843V49.586C101.843 50.181 102.289 50.33 102.586 50.33C103.033 50.33 103.33 50.18 103.777 49.883V50.925C103.405 51.148 102.884 51.297 102.586 51.297C101.396 51.297 100.95 50.553 100.95 49.66V46.759H100.057V46.609L101.991 44.675V46.015M105.817 50.659C105.817 51.106 105.519 51.403 105.073 51.403C104.626 51.403 104.329 51.106 104.329 50.659C104.329 50.213 104.626 49.915 105.073 49.915C105.519 49.915 105.817 50.213 105.817 50.659ZM114.195 50.694C113.154 51.14 112.261 51.289 111.219 51.289C108.839 51.289 107.128 49.653 107.128 47.197C107.128 44.742 108.913 43.031 111.368 43.031C112.261 43.031 113.005 43.181 114.195 43.775V44.965C113.302 44.519 112.261 44.222 111.368 44.222C109.583 44.222 108.244 45.561 108.244 47.197C108.244 48.983 109.583 50.173 111.517 50.173C112.112 50.173 112.707 50.025 113.302 49.876V48.239H111.815V47.197H114.493V50.62M119.674 50.245C119.376 50.394 119.227 50.542 119.079 50.542C118.93 50.542 118.93 50.542 118.93 50.245V47.492C118.93 46.302 118.037 45.707 116.996 45.707C116.252 45.707 115.656 46.004 115.21 46.45V47.64C115.656 47.046 116.252 46.748 116.847 46.748C117.442 46.748 117.739 47.046 117.739 47.641V47.938L116.847 48.236C115.954 48.534 115.061 48.831 115.061 49.947C115.061 50.691 115.508 51.287 116.4 51.287C116.847 51.287 117.293 51.137 117.739 50.691C117.888 51.138 118.037 51.286 118.483 51.286C118.781 51.286 119.079 51.138 119.525 50.84L119.674 50.245ZM117.888 50.245C117.591 50.542 117.293 50.691 116.996 50.691C116.549 50.691 116.252 50.394 116.252 49.947C116.252 49.352 116.996 49.054 117.888 48.757V50.245ZM121.581 43.171H120.539V51.131H121.581V43.171ZM123.933 43.171H122.891V51.131H123.933V43.171ZM129.499 49.759C128.903 50.205 128.308 50.354 127.787 50.354C126.746 50.354 126.151 49.759 126.002 48.717H129.722C129.722 46.783 128.829 45.89 127.49 45.89C126.002 45.89 125.109 46.932 125.109 48.569C125.109 50.056 126.002 51.396 127.639 51.396C128.531 51.396 129.127 51.246 129.722 50.8V49.76L129.499 49.759ZM126.002 48.122C126.151 47.229 126.597 46.783 127.341 46.783C128.085 46.783 128.531 47.229 128.531 48.123L126.002 48.122ZM131.748 46.634C132.194 46.188 132.789 45.89 133.384 45.89C134.426 45.89 135.17 46.634 135.17 47.973V51.247H134.128V47.973C134.128 47.229 133.682 46.634 133.087 46.634C132.64 46.634 132.343 46.784 131.748 47.378V51.172H130.706V45.89H131.748V46.634Z" fill="black"></path>
</svg>
