<?xml version="1.0" encoding="UTF-8"?>
<svg xmlns="http://www.w3.org/2000/svg" width="140" height="80" viewBox="0 0 140 80" fill="none">
  <path fill-rule="evenodd" clip-rule="evenodd" d="M91.4919 31.2351C90.8529 32.8041 89.0949 33.7451 87.4959 33.1171C85.8989 32.4901 84.9389 30.7641 85.5789 29.1951L91.1719 14.1351C91.8119 12.5651 93.5699 11.6251 95.1669 12.2521C96.7649 12.8791 97.7249 14.6051 97.0849 16.1741L91.4919 31.2341V31.2351Z" fill="black"></path>
  <path fill-rule="evenodd" clip-rule="evenodd" d="M48.6659 41.118C48.0259 42.687 46.2689 43.628 44.6709 43C43.0719 42.373 42.1139 40.647 42.7529 39.078L49.1449 21.821C49.7849 20.252 51.5419 19.311 53.1399 19.938C54.7379 20.566 55.6969 22.292 55.0569 23.86L48.6659 41.118Z" fill="black"></path>
  <path fill-rule="evenodd" clip-rule="evenodd" d="M58.3328 41.118C57.6928 42.687 55.9358 43.628 54.3378 43C52.7398 42.373 51.7808 40.647 52.4198 39.078L58.8118 21.821C59.4518 20.252 61.2098 19.311 62.8068 19.938C64.4048 20.566 65.3648 22.292 64.7248 23.86L58.3328 41.118Z" fill="black"></path>
  <path fill-rule="evenodd" clip-rule="evenodd" d="M68.242 41.118C67.602 42.687 65.845 43.628 64.247 43C62.649 42.373 61.69 40.647 62.329 39.078L68.721 21.821C69.361 20.252 71.119 19.311 72.716 19.938C74.314 20.566 75.274 22.292 74.634 23.86L68.242 41.118Z" fill="black"></path>
  <path fill-rule="evenodd" clip-rule="evenodd" d="M77.99 41.1182C77.352 42.6882 75.594 43.6282 73.995 43.0012C72.397 42.3742 71.438 40.6482 72.078 39.0792L81.267 14.2912C81.906 12.7222 83.664 11.7812 85.262 12.4082C86.86 13.0362 87.819 14.7622 87.179 16.3312L77.99 41.1182Z" fill="black"></path>
  <path fill-rule="evenodd" clip-rule="evenodd" d="M37 55.5513H38.758L41.954 63.7093L44.99 55.5513H46.908V65.2783H45.63V57.2773L42.435 65.2783H41.316L38.28 57.2773V65.2783H37V55.5513ZM53.06 61.6703C52.581 61.9833 51.782 61.9833 50.983 62.1403C50.183 62.2973 49.545 62.6113 49.545 63.3953C49.545 64.1803 50.184 64.4943 50.983 64.4943C52.581 64.4943 53.22 63.5523 53.22 62.9243V61.6703H53.06ZM54.978 65.2783C54.818 65.4353 54.499 65.4353 54.178 65.4353C53.54 65.4353 53.22 65.1213 53.22 64.3373C52.581 65.1213 51.623 65.4353 50.663 65.4353C49.385 65.4353 48.266 64.8083 48.266 63.3953C48.266 61.8273 49.545 61.5133 50.663 61.1993C51.942 60.8853 53.06 61.0423 53.06 60.1013C53.06 59.1603 52.262 59.0033 51.462 59.0033C50.504 59.0033 49.705 59.3163 49.705 60.2583H48.585C48.585 58.5323 50.023 57.9043 51.621 57.9043C52.9 57.9043 54.338 58.2183 54.338 59.7873V63.3953C54.338 63.8663 54.338 64.1803 54.658 64.1803H54.978V65.2783ZM55.936 58.2183H57.055V59.3163C57.534 58.3763 58.333 58.0613 59.452 58.0613C61.37 58.0613 61.849 59.1603 61.849 60.5713V65.1213H60.73V60.4153C60.73 59.6303 60.251 59.0033 59.292 59.0033C57.854 59.0033 57.215 59.9443 57.215 61.1993V65.1213H56.096V58.2183H55.936ZM66.803 59.1603C65.206 59.1603 64.566 60.4153 64.566 61.8273C64.566 63.2393 65.206 64.4943 66.803 64.4943C68.401 64.4943 68.881 63.0823 68.881 61.8273C68.881 60.4153 68.242 59.1603 66.803 59.1603ZM63.448 58.2183H64.566V59.1603C64.886 58.3753 65.845 58.0613 66.803 58.0613C69.041 58.0613 70.159 59.7873 70.159 61.8273C70.159 63.8673 69.041 65.4353 66.963 65.4353C66.164 65.4353 65.206 65.1213 64.726 64.3373V67.9453H63.606V58.2183H63.448ZM74.633 64.4943C75.911 64.4943 76.87 63.5523 76.87 61.8273C76.87 60.1013 75.911 59.1603 74.633 59.1603C73.354 59.1603 72.396 60.1003 72.396 61.8273C72.396 63.5523 73.354 64.4943 74.633 64.4943ZM74.633 58.0613C76.87 58.0613 78.149 59.6313 78.149 61.6703C78.149 63.7103 76.87 65.2783 74.633 65.2783C72.396 65.2783 71.117 63.7093 71.117 61.6703C71.117 59.7873 72.236 58.0613 74.633 58.0613ZM86.06 65.2803H84.782L83.343 59.7893L81.905 65.2793H80.627L78.469 58.2203H79.748L81.266 64.0253L82.704 58.2203H83.984L85.421 64.0253L87.178 58.2203H88.298L86.06 65.2803ZM94.05 61.0433C94.05 59.9453 93.092 59.0033 91.973 59.0033C90.695 59.0033 90.055 59.9453 89.896 61.0433H94.05ZM95.169 63.0833C94.849 64.6523 93.731 65.4363 92.133 65.4363C89.896 65.4363 88.778 63.8673 88.778 61.6713C88.778 59.6313 90.215 58.0623 92.133 58.0623C94.691 58.0623 95.489 60.4163 95.329 62.1423H90.055C90.055 63.3973 90.695 64.4953 92.292 64.4953C93.252 64.4953 93.892 64.0243 94.21 63.0833H95.169ZM96.447 58.2203H97.565V59.6323C98.205 58.5343 98.844 57.9063 100.123 58.0633V59.3183C98.205 59.3183 97.565 60.4173 97.565 62.1423V65.2803H96.447V58.2203ZM101.722 56.6503H101.881C102.041 56.6503 102.201 56.6503 102.201 56.4943C102.201 56.3373 102.041 56.3373 101.881 56.3373H101.561V56.6513L101.722 56.6503ZM101.402 56.0233H101.881C102.201 56.0233 102.361 56.1803 102.361 56.3373C102.361 56.4943 102.201 56.6513 102.041 56.6513L102.361 57.2783H102.201L101.881 56.8083H101.721V57.2783H101.561V56.0233H101.402ZM101.881 57.5923C102.361 57.5923 102.84 57.1223 102.84 56.6513C102.84 56.1803 102.521 55.7093 101.881 55.7093C101.402 55.7093 100.923 56.1793 100.923 56.6513C100.923 57.2783 101.4 57.5923 101.881 57.5923ZM101.881 55.5523C102.521 55.5523 103 56.0223 103 56.6513C103 57.2783 102.521 57.7493 101.881 57.7493C101.242 57.7493 100.763 57.2783 100.763 56.6513C100.763 56.0233 101.241 55.5523 101.881 55.5523Z" fill="black"></path>
</svg>
