<?xml version="1.0" encoding="UTF-8"?>
<svg xmlns="http://www.w3.org/2000/svg" width="140" height="80" viewBox="0 0 140 80" fill="none">
  <path fill-rule="evenodd" clip-rule="evenodd" d="M59.9152 42.85C59.9152 37.808 56.5542 33.793 51.9792 33.793C47.4042 33.793 43.5762 37.901 43.5762 42.85C43.5762 47.798 47.3102 51.907 51.8862 51.907C56.1802 51.907 58.5152 49.572 59.6362 46.117H55.9002C54.9672 47.892 53.4732 48.639 51.9792 48.639C49.9252 48.639 48.2442 46.865 47.6842 44.437H59.7282C59.7282 44.064 59.9152 43.503 59.9152 42.85ZM47.6842 41.17C48.2442 38.835 49.9242 37.248 51.8852 37.248C53.8462 37.248 55.4332 39.022 55.8072 41.076H47.6842V41.17ZM112.961 46.2C111.841 46.2 110.907 47.134 110.907 48.254C110.907 49.374 111.841 50.402 112.961 50.402C114.082 50.402 115.015 49.468 115.015 48.254C115.015 47.04 114.082 46.2 112.961 46.2ZM112.961 50.215C111.841 50.215 111.094 49.468 111.094 48.254C111.094 47.04 111.841 46.294 112.961 46.294C114.082 46.294 114.829 47.04 114.829 48.254C114.829 49.281 113.895 50.215 112.961 50.215ZM109.036 42.85C109.036 37.808 105.675 33.793 101.1 33.793C96.5242 33.793 92.7902 37.901 92.7902 42.85C92.7902 47.798 96.5242 51.907 101.1 51.907C105.395 51.907 107.915 49.946 108.849 46.117H105.114C104.181 47.892 102.687 48.639 101.193 48.639C99.1392 48.639 97.4582 46.865 96.8982 44.437H108.943C109.036 44.064 109.036 43.503 109.036 42.85ZM97.0852 41.17C97.5512 38.835 99.2322 37.248 101.286 37.248C103.34 37.248 104.834 39.022 105.208 41.076H97.0852V41.17Z" fill="black"></path>
  <path fill-rule="evenodd" clip-rule="evenodd" d="M74.886 28.3809H37.538V44.6279L28.295 28.3799H24V51.5359H28.295V36.3159L37.352 51.5359H41.74V31.6489H74.886V28.3809Z" fill="black"></path>
  <path fill-rule="evenodd" clip-rule="evenodd" d="M64.9029 38.8349C64.9029 38.0879 65.6499 36.6869 68.0779 36.6869C70.6919 36.6869 71.2519 38.6479 71.4379 39.2089H74.9869C74.6129 35.0069 70.8789 33.6059 67.7969 33.6059C62.8489 33.6059 61.3549 37.0609 61.3549 39.3959C61.3549 45.7439 71.7189 43.0359 71.7189 46.7709C71.7189 48.3589 70.7849 48.9189 68.1709 48.9189C65.3699 48.9189 64.6229 47.6119 64.6229 46.0239H60.9819C61.1679 50.5059 64.5299 51.9999 67.9829 51.9999C71.1579 51.9999 75.3589 51.0659 75.3589 46.0239C75.5459 39.5819 64.9029 42.1029 64.9029 38.8349ZM81.2819 28.3809H77.2669V34.7309H75.9599V37.8109H77.2669V45.1879C77.2669 47.3349 78.9469 51.3499 82.5889 51.3499H85.2029V48.2699H84.2699C82.7759 48.2699 81.2819 47.3359 81.2819 44.6289V37.9059H85.2029V34.8249H81.2819V28.3799V28.3809Z" fill="black"></path>
  <path d="M91.3512 28.3809H87.0562V51.5369H91.3512V28.3799V28.3809Z" fill="black"></path>
  <path fill-rule="evenodd" clip-rule="evenodd" d="M108.158 28.001L93.686 29.775V31.642H108.158V28.001ZM113.298 48.332C113.672 48.332 113.858 48.052 113.858 47.679C113.858 47.305 113.672 46.932 113.111 46.932H112.178V49.452H112.365V48.332H112.925L113.672 49.452H113.858L113.298 48.332ZM112.925 48.052H112.365V47.118H113.111C113.485 47.118 113.672 47.305 113.672 47.678C113.672 48.052 113.298 48.052 112.925 48.052Z" fill="black"></path>
</svg>
