<?xml version="1.0" encoding="UTF-8"?>
<svg xmlns="http://www.w3.org/2000/svg" width="140" height="80" viewBox="0 0 140 80" fill="none">
  <path d="M104.336 43.5166C104.336 44.5482 104.319 45.7371 103.881 46.6988C103.077 48.4647 101.276 49.2515 99.4229 49.2515C97.8493 49.2515 96.2058 48.657 95.2966 47.3107C94.5448 46.1917 94.5273 44.8279 94.5273 43.5166V33.3406H92.9537V44.0586C92.9537 48.2024 95.2791 50.5454 99.4579 50.5454C103.514 50.5454 105.945 48.08 105.945 44.0586V33.3406H104.354V43.5166H104.336Z" fill="black"></path>
  <path d="M114.355 40.9988L122.118 33.3406H120.072L112.536 41.1037L120.824 50.3006H122.922L114.355 40.9988Z" fill="black"></path>
  <path d="M112.431 33.3406H110.91V50.2831H112.431V33.3406Z" fill="black"></path>
  <path d="M80.5397 38.586C78.8262 38.7084 76.7456 39.2853 75.9762 41.0163C75.3293 42.4326 75.8364 43.9537 77.1827 45.6322C78.0394 46.6813 78.8262 47.6779 79.0535 47.9227C78.4415 48.0451 77.0952 48.0101 75.7489 47.7653H75.7315C75.4167 47.7129 75.1195 47.6429 74.8223 47.5555C74.0529 47.3107 73.8431 47.0135 73.8431 47.0135L73.7382 47.1009L73.8431 47.031C73.3361 47.1009 72.899 47.4681 72.6017 47.8527C72.3045 48.2549 71.9898 49.0067 72.252 49.3914C72.4793 49.7061 72.9339 49.881 73.7907 49.8984C75.6965 49.9859 79.2458 50.4929 79.9802 50.5803C80.9943 50.6852 81.6762 49.846 81.886 49.3739C82.1483 48.727 81.886 48.0101 81.5363 47.6255C79.8403 45.6672 77.4799 43.5341 78.3366 41.7507C78.7213 40.9289 80.6271 41.0862 81.2566 41.2786C82.6029 41.6807 83.2673 41.1912 83.5645 40.2994C83.7394 39.705 83.3897 38.3762 80.5397 38.586Z" fill="black"></path>
  <path d="M42.5459 30.6655C42.7207 30.1934 42.5634 29.6164 42.2661 29.3891C41.287 28.6548 40.3953 29.0569 39.7309 29.7913C38.9441 30.648 37.93 32.5014 37.5103 33.2007C33.5763 39.5651 30.569 46.3666 30.569 46.3666C30.569 46.3666 29.5199 43.2019 29.3801 40.6841C29.2402 38.3062 29.1353 36.0507 29.0304 34.9317C28.9954 34.4946 28.8031 33.7952 28.0337 33.5329C27.4393 33.3406 26.565 33.2532 25.9531 33.4805C25.9006 34.2498 25.8657 34.5995 25.5509 35.5087C25.2362 36.4004 23.208 40.3519 22.8583 40.9813C21.0924 44.1286 18.767 48.0451 18.6271 48.2899C18.155 49.1641 17.4906 50.3705 18.6271 50.7901C19.7636 51.2098 20.7427 50.9825 21.2323 50.2656C21.3197 50.1257 21.4596 49.8635 21.4596 49.8635C21.4596 49.8635 21.1274 49.6012 21.8442 47.9577C22.054 47.5205 22.2988 47.0135 22.5786 46.454C22.631 46.3491 22.6835 46.2442 22.7534 46.1393C22.8234 46.0169 22.8933 45.877 22.9458 45.7371C24.0997 43.4467 25.6559 40.4918 27.0371 37.9041C27.0371 39.4952 27.142 41.0688 27.3693 42.6424C27.6841 45.2825 28.331 46.4015 28.5758 48.5172C28.5233 49.9334 28.6632 50.1957 29.7123 50.4754C30.6739 50.7377 31.2509 50.4754 31.6181 49.5837C33.0168 46.0344 37.0557 37.9041 40.4827 33.498C40.7974 33.0259 42.1612 31.6971 42.5459 30.6655Z" fill="black"></path>
  <path d="M74.4376 45.3175C75.1195 44.9328 75.3818 44.1635 74.8397 43.5166C74.2977 42.8697 73.2312 42.9221 72.7591 43.2194C72.3569 43.4641 71.9023 43.7089 70.5211 43.7789C69.2272 43.8488 68.7027 43.2893 67.8984 43.2893C66.9892 43.2893 66.622 43.9362 65.4855 45.335C64.9085 46.0518 63.6147 47.8003 63.0202 47.8003C62.5132 47.8003 62.3208 46.384 62.3208 44.4957C62.3208 43.639 61.9362 42.9396 60.9745 43.0095C60.1703 43.062 60.0304 44.1111 59.6107 44.6181C58.3519 46.0868 57.3203 47.538 56.8132 47.538C56.1838 47.538 55.9215 46.1218 55.9215 45.0552C55.9215 45.0552 56.1138 43.3592 54.5752 43.062C53.9108 42.9396 53.2114 43.3068 53.2114 43.3068C53.2639 43.4292 53.2988 43.569 53.2814 43.7089C53.089 44.4258 51.7427 45.4399 51.7427 45.4399C50.309 46.489 47.459 48.4123 44.8713 48.5521C41.864 48.7095 41.3394 46.961 41.2345 46.2617C43.8222 45.3175 45.5532 44.216 46.6722 43.3592C47.8612 42.4326 48.648 41.4185 48.578 40.4218C48.4906 39.0755 47.2667 38.586 46.2876 38.586C44.1894 38.586 40.7275 39.4952 39.049 44.0761C38.6818 44.1985 37.8425 44.1985 37.388 44.0761C36.776 43.9187 36.7935 43.6565 36.7935 43.6565C36.234 43.7963 35.9892 44.0761 35.7794 44.5657C35.4647 45.3525 35.8843 46.0344 36.5312 46.3841C37.0033 46.6463 37.7376 46.8037 38.7867 46.6813C38.9266 48.08 39.8533 50.7901 44.7839 50.5803C48.7004 50.423 53.2814 47.1184 53.6835 46.8736C53.8583 47.6779 54.4004 50.5803 56.0789 50.5803C58.0721 50.5803 60.1353 47.4856 60.1353 47.4856C60.1353 47.4856 60.6598 50.5803 62.6705 50.5803C64.349 50.5803 66.4472 47.8877 66.9717 47.2583C67.4088 46.7337 68.2481 45.7546 68.7202 45.7546C69.1748 45.6672 70.0665 46.454 72.6367 45.9295C72.7066 45.8945 73.8781 45.6322 74.4376 45.3175ZM45.763 40.824C46.0078 41.0688 45.4833 41.6108 45.0462 41.8905C43.8048 42.6948 42.5634 43.1669 41.6717 43.4816C42.6333 41.5234 45.4308 40.3519 45.763 40.824Z" fill="black"></path>
</svg>
