<?xml version="1.0" encoding="UTF-8"?>
<svg xmlns="http://www.w3.org/2000/svg" width="140" height="80" viewBox="0 0 140 80" fill="none">
  <g clip-path="url(#clip0_2813_15229)">
    <mask id="mask0_2813_15229" style="mask-type:luminance" maskUnits="userSpaceOnUse" x="-12" y="2" width="163" height="72">
      <path d="M150.217 2.55493H-11.8369V73.8887H150.217V2.55493Z" fill="white"></path>
    </mask>
    <g mask="url(#mask0_2813_15229)">
      <mask id="mask1_2813_15229" style="mask-type:luminance" maskUnits="userSpaceOnUse" x="-12" y="2" width="163" height="72">
        <path d="M150.217 2.55493H-11.8369V73.8887H150.217V2.55493Z" fill="white"></path>
      </mask>
      <g mask="url(#mask1_2813_15229)">
        <path d="M11.527 47.9582C9.5129 47.9582 7.5769 47.2763 5.7876 46.421L7.55511 42.411C8.63926 43.1931 9.70109 43.9539 11.1097 43.9539C11.49 43.9539 12.2465 43.8749 12.2465 43.2839C12.2465 42.6787 11.6812 42.55 10.9352 42.3205C9.26518 41.8277 6.60508 41.3473 6.60508 37.8163C6.60508 34.2222 9.3631 32.8789 12.569 32.8789C14.1063 32.8789 16.1032 33.4232 17.3391 34.3414L15.7595 37.9533C15.7595 37.9533 14.488 36.8077 13.0849 36.8077C12.2832 36.8077 11.7927 37.038 11.7927 37.5346C11.7927 38.0436 12.59 38.2332 13.0667 38.3862C14.7343 38.8952 17.471 39.4552 17.471 42.9823C17.4709 46.5905 14.7937 47.9582 11.527 47.9582ZM27.1965 47.5405L26.7819 45.7347H22.9271L22.4107 47.5405H17.0503L22.0329 33.2734H27.8445L32.5904 47.5405H27.1965ZM24.8405 37.8939L23.6028 42.3614H26.075L24.8405 37.8939ZM42.2561 47.5405L37.969 40.5948V47.5405H33.0291V33.2734H37.969L42.2561 40.2702V33.2734H47.1611V47.5405H42.2561ZM54.3426 47.5012L52.7053 47.5405H48.7763V33.2734H52.5195L54.1495 33.296C58.7863 33.296 62.3384 34.9677 62.3384 40.4533C62.3384 45.6429 58.9956 47.5012 54.3426 47.5012ZM54.4938 37.5492H53.9038V43.2839H54.4938C56.2604 43.2839 57.1883 42.3943 57.1883 40.5143C57.1883 38.766 56.2971 37.5492 54.4938 37.5492ZM70.6208 47.9582C66.2321 47.9582 62.8946 44.9625 62.8946 40.421C62.8946 35.9749 66.1362 32.8564 70.5996 32.8564C75.0655 32.8564 78.5052 35.8958 78.5052 40.421C78.5052 44.9398 75.5975 47.9582 70.6208 47.9582ZM70.6768 37.6067C69.0636 37.6067 68.0752 38.766 68.0752 40.4024C68.0752 42.0917 69.0818 43.2162 70.6768 43.2162C72.2875 43.2162 73.3202 42.0917 73.3202 40.4024C73.3202 38.7253 72.2683 37.6067 70.6768 37.6067ZM86.2127 43.2706H91.5162V47.5405H77.8382L83.9581 37.5492H79.1474V33.2734H92.2172L86.2127 43.2706ZM99.0986 37.6885H96.7204L96.104 39.4503H95.2527L97.4593 33.4117H98.3845L100.608 39.4503H99.6995L99.0986 37.6885ZM96.9485 37.0396H98.8795L98.3034 35.3514C98.1006 34.7677 97.9384 34.0698 97.9384 34.0698H97.9139C97.9139 34.0698 97.7351 34.7917 97.541 35.3514L96.9485 37.0396ZM103.87 33.4117H104.737L107.213 37.1935C107.505 37.6403 107.887 38.3949 107.887 38.3949H107.911C107.911 38.3949 107.853 37.6076 107.853 37.1047V33.4117H108.633V39.4503H107.773L105.306 35.6684C105.014 35.2136 104.617 34.4752 104.617 34.4752H104.599C104.599 34.4752 104.649 35.2623 104.649 35.7487V39.4503H103.87V33.4117ZM109.704 37.2751C109.704 36.0089 110.523 34.9862 111.838 34.9862C113.153 34.9862 113.957 36.009 113.957 37.2751C113.957 38.5491 113.153 39.572 111.838 39.572C110.523 39.572 109.704 38.5491 109.704 37.2751ZM113.185 37.2751C113.185 36.3339 112.722 35.587 111.831 35.587C110.937 35.587 110.475 36.3339 110.475 37.2751C110.475 38.2168 110.937 38.9547 111.831 38.9547C112.722 38.9547 113.185 38.2168 113.185 37.2751ZM114.362 35.092H115.165L115.927 37.4451C116.115 38.0297 116.325 38.8334 116.325 38.8334H116.342C116.342 38.8334 116.528 38.0297 116.723 37.4451L117.502 35.092H118.281L116.715 39.4504H115.879L114.362 35.092ZM118.703 38.2976C118.703 37.2833 119.449 37.0638 120.578 36.9256C121.219 36.8531 121.632 36.7475 121.632 36.3012C121.632 35.8303 121.3 35.5386 120.699 35.5386C120.009 35.5386 119.677 35.863 119.652 36.3828H118.922C118.955 35.6443 119.514 34.9862 120.691 34.9862C121.105 34.9862 121.47 35.0596 121.746 35.2228C122.111 35.4412 122.331 35.8228 122.331 36.4064V38.443C122.331 38.7926 122.412 38.9792 122.793 38.8981H122.826V39.4257C122.72 39.4582 122.598 39.4906 122.42 39.4906C121.957 39.4906 121.73 39.2715 121.649 38.8088H121.641C121.365 39.19 120.918 39.5392 120.18 39.5392C119.352 39.5392 118.703 39.1339 118.703 38.2976ZM121.641 37.8425V37.1288C121.421 37.2671 121.04 37.3728 120.683 37.4375C119.968 37.5593 119.499 37.6886 119.499 38.2893C119.499 38.8496 119.928 38.9876 120.366 38.9876C121.234 38.9876 121.641 38.3465 121.641 37.8425ZM123.604 39.4503V35.092H124.35V35.8792H124.375C124.643 35.3762 125.089 35.035 125.666 35.035C125.787 35.035 125.86 35.0512 125.941 35.0843V35.798H125.917C125.811 35.7654 125.738 35.7573 125.608 35.7573C124.935 35.7573 124.358 36.2607 124.358 37.0802V39.4501L123.604 39.4503ZM128.246 39.4818C127.661 39.4744 127.256 39.2391 127.256 38.598V35.6763H126.574V35.092H127.256V33.7207H128.002V35.092H128.903V35.6763H128.002V38.4269C128.002 38.7433 128.172 38.8332 128.449 38.8332C128.578 38.8332 128.749 38.8002 128.83 38.7766H128.854V39.4093C128.652 39.4582 128.44 39.4818 128.246 39.4818ZM130.688 33.8672C130.688 34.1342 130.493 34.3294 130.226 34.3294C129.958 34.3294 129.763 34.1342 129.763 33.8672C129.763 33.599 129.958 33.4044 130.226 33.4044C130.493 33.4044 130.688 33.5988 130.688 33.8672ZM129.852 35.092H130.607V39.4504H129.852V35.092ZM131.532 38.1266H132.295C132.384 38.7605 132.871 38.9713 133.496 38.9713C134.186 38.9713 134.478 38.6709 134.478 38.281C134.478 37.8015 134.113 37.6811 133.341 37.5261C132.489 37.348 131.719 37.1694 131.719 36.2115C131.719 35.465 132.303 34.9946 133.317 34.9946C134.413 34.9946 134.957 35.5058 135.054 36.2607H134.3C134.235 35.8139 133.926 35.5625 133.301 35.5625C132.709 35.5625 132.458 35.8382 132.458 36.1714C132.458 36.6255 132.879 36.7149 133.618 36.8609C134.486 37.0315 135.233 37.2261 135.233 38.2407C135.233 39.125 134.502 39.5798 133.48 39.5798C132.278 39.58 131.597 39.0121 131.532 38.1266ZM95.7222 41.5268H97.9544C99.7558 41.5268 100.648 42.7609 100.648 44.5701C100.648 46.372 99.7066 47.5646 97.8975 47.5646H95.7223V41.5268H95.7222ZM97.865 46.842C99.2278 46.842 99.7877 45.9568 99.7877 44.5699C99.7877 43.1822 99.2852 42.2489 97.9137 42.2489H96.5578V46.842H97.865ZM102.555 41.9807C102.555 42.2489 102.36 42.4439 102.093 42.4439C101.824 42.4439 101.63 42.2489 101.63 41.9807C101.63 41.7139 101.824 41.5185 102.093 41.5185C102.36 41.5184 102.555 41.7139 102.555 41.9807ZM101.719 43.2063H102.474V47.5646H101.719V43.2063ZM103.196 43.2063H103.999L104.762 45.5594C104.949 46.1441 105.16 46.9477 105.16 46.9477H105.176C105.176 46.9477 105.362 46.1441 105.557 45.5594L106.337 43.2063H107.115L105.55 47.5646H104.713L103.196 43.2063ZM108.673 41.9807C108.673 42.2489 108.478 42.4439 108.211 42.4439C107.942 42.4439 107.748 42.2489 107.748 41.9807C107.748 41.7139 107.942 41.5185 108.211 41.5185C108.478 41.5184 108.673 41.7139 108.673 41.9807ZM107.838 43.2063H108.592V47.5646H107.838V43.2063ZM109.517 46.2416H110.28C110.369 46.8749 110.856 47.0857 111.481 47.0857C112.171 47.0857 112.463 46.7856 112.463 46.3959C112.463 45.9171 112.097 45.7952 111.327 45.6415C110.475 45.4626 109.703 45.2838 109.703 44.3264C109.703 43.5797 110.288 43.109 111.303 43.109C112.398 43.109 112.942 43.6204 113.039 44.376H112.284C112.219 43.9291 111.912 43.6775 111.286 43.6775C110.694 43.6775 110.442 43.9535 110.442 44.2855C110.442 44.7405 110.865 44.8298 111.603 44.9758C112.471 45.1458 113.218 45.3411 113.218 46.3556C113.218 47.2394 112.487 47.6942 111.465 47.6942C110.264 47.6942 109.582 47.1265 109.517 46.2416ZM115.026 41.9807C115.026 42.2489 114.832 42.4439 114.564 42.4439C114.296 42.4439 114.102 42.2489 114.102 41.9807C114.102 41.7139 114.296 41.5185 114.564 41.5185C114.832 41.5184 115.026 41.7139 115.026 41.9807ZM114.191 43.2063H114.946V47.5646H114.191V43.2063ZM115.911 45.3899C115.911 44.1234 116.731 43.1012 118.046 43.1012C119.36 43.1012 120.164 44.1235 120.164 45.3899C120.164 46.6636 119.36 47.6864 118.046 47.6864C116.731 47.6864 115.911 46.6636 115.911 45.3899ZM119.393 45.3899C119.393 44.4482 118.929 43.702 118.037 43.702C117.145 43.702 116.682 44.4482 116.682 45.3899C116.682 46.3316 117.145 47.0695 118.037 47.0695C118.929 47.0695 119.393 46.3316 119.393 45.3899ZM121.883 47.5645H121.129V43.2062H121.876V43.8233H121.9C122.216 43.385 122.647 43.1011 123.28 43.1011C124.189 43.1011 124.749 43.6125 124.749 44.5208V47.5645H124.002V44.6108C124.002 44.0508 123.637 43.7344 123.044 43.7344C122.371 43.7344 121.883 44.2133 121.883 44.9109V47.5645H121.883Z" fill="black"></path>
      </g>
    </g>
  </g>
  <defs>
    <clipPath id="clip0_2813_15229">
      <rect width="130.974" height="20" fill="white" transform="translate(5 30.1025)"></rect>
    </clipPath>
  </defs>
</svg>
