<?xml version="1.0" encoding="UTF-8"?>
<svg xmlns="http://www.w3.org/2000/svg" width="140" height="80" viewBox="0 0 140 80" fill="none">
  <path fill-rule="evenodd" clip-rule="evenodd" d="M101.23 37.4731C104.219 36.6271 106.693 38.7791 107.331 41.0511C108.187 44.0981 106.338 46.8641 104.14 47.5711C97.194 49.8081 95.316 39.1471 101.23 37.4731ZM43.326 49.3541C42.911 50.1641 42.732 50.8891 42.796 51.8921C45.014 51.8681 50.159 52.3511 51.906 51.7131L51.874 50.5421L43.326 49.3541ZM43.221 30.7781L51.825 29.6061L51.873 28.0151L42.768 28.0181L43.221 30.7781ZM40.857 48.5461C38.452 48.0161 36.093 46.9871 33.965 46.0341L28 42.8771L28.119 51.8861L40.129 51.8841L40.857 48.5461ZM28.005 37.2391C29.775 36.5391 31.874 35.0151 33.892 34.0961C35.719 33.2651 38.742 31.9761 40.837 31.5981L40.144 28.0311L28.099 28.0161L28.006 37.2391H28.005ZM28.491 40.1001C31.071 42.2741 37.259 45.4381 41.336 46.1801C41.635 41.8281 41.975 38.3471 41.292 33.9231C38.822 34.4271 30.096 38.1401 28.492 40.1001H28.491ZM89.903 27.9671C86.864 27.8771 87.369 28.2301 87.403 30.4571C87.501 36.8821 87.105 45.5581 87.457 51.3411C88.745 51.6671 90.474 51.6891 91.742 51.3231C92.119 48.9471 91.801 35.3251 91.857 30.7451C91.885 28.4161 92.037 28.0301 89.903 27.9671ZM51.941 32.1161C49.961 32.1861 48.041 32.4261 46.164 32.7321C41.728 33.4561 45.012 31.6721 43.627 46.8861C46.347 47.4471 49.004 47.9291 51.937 48.0151L51.941 32.1161ZM64.495 38.1131C65.315 37.3441 66.355 36.8461 66.751 35.7531C64.735 34.0211 62.211 32.2611 58.128 33.7501C55.358 34.7581 53.898 38.0361 55.556 41.0811C57.136 43.9841 62.116 44.0141 62.888 45.4121C63.968 47.3641 61.993 48.2451 60.235 48.1561C58.295 48.0601 57.467 46.8591 56.259 46.3461C55.579 47.0981 54.739 47.5921 54.241 48.5971C56.661 53.7831 67.986 53.0931 67.524 45.0051C66.904 41.4491 63.907 41.0851 60.671 39.9481C58.921 39.3331 58.56 37.4421 60.437 36.9061C62.367 36.3541 63.512 37.6211 64.495 38.1131ZM72.836 40.6371C74.174 35.6531 80.403 35.5791 81.776 40.6381L72.836 40.6371ZM85.408 43.4991C86.22 41.3791 85.193 38.6791 84.132 37.1361C80.2 31.4121 72.202 32.2621 69.401 38.5781C67.229 43.4711 69.574 48.0681 72.503 50.1421C76.79 53.1801 82.739 51.5051 84.04 48.8801C83.039 46.8821 82.546 46.2501 80.897 47.2151C77.837 49.0061 73.337 48.7201 72.797 43.7651C74.983 43.7861 84.017 44.0711 85.408 43.4991ZM107.808 36.1501C106.592 34.7461 106.493 34.2781 104.26 33.6061C102.472 33.0671 100.37 33.4311 98.844 34.0891C96.214 35.2251 93.8 38.2011 93.564 41.8241C93.025 50.0971 101.508 53.8401 105.669 50.8061C106.253 50.3801 106.741 49.7301 107.475 49.4261L108.286 51.5191L112 51.3641L111.859 33.6201L108.858 33.6041L107.808 36.1501Z" fill="black"></path>
</svg>
