<?xml version="1.0" encoding="UTF-8"?>
<svg xmlns="http://www.w3.org/2000/svg" width="140" height="80" viewBox="0 0 140 80" fill="none">
  <path d="M80.6514 33.8571C80.6514 33.4698 80.841 33.2758 81.2343 33.2758H85.2018C85.7425 33.2709 86.2762 33.363 86.7748 33.5478C87.2383 33.7186 87.6596 33.9857 88.0107 34.3322C88.3618 34.685 88.6356 35.1046 88.8182 35.5657C89.0148 36.0766 89.1131 36.6206 89.1061 37.1688C89.1131 37.7206 89.0148 38.2674 88.8182 38.7819C88.6356 39.2486 88.3618 39.6738 88.0107 40.0329C87.6596 40.385 87.2383 40.6584 86.7748 40.8349C86.2762 41.026 85.7425 41.1216 85.2018 41.1167H82.3789V45.1341C82.3789 45.5221 82.1892 45.7161 81.796 45.7161H81.2343C80.841 45.7161 80.6514 45.5221 80.6514 45.1341V33.8571ZM84.9209 39.6021C85.6723 39.6021 86.2691 39.3849 86.6975 38.9498C87.1258 38.5148 87.3435 37.9216 87.3435 37.1703C87.3435 36.4189 87.1258 35.8342 86.6975 35.4167C86.2691 34.9999 85.6792 34.7911 84.9419 34.7911H82.3789V39.6021H84.9209Z" fill="black"></path>
  <path d="M89.2603 41.2588C89.2603 40.5538 89.3796 39.9135 89.6043 39.3379C89.822 38.7904 90.1381 38.29 90.5454 37.8661C90.9456 37.4571 91.4231 37.1359 91.9568 36.9236C92.5186 36.6973 93.1224 36.5834 93.7264 36.5891C94.3443 36.5891 94.8851 36.6945 95.3696 36.9061C95.8331 37.105 96.2474 37.4058 96.5774 37.7867C96.9145 38.1803 97.1672 38.6351 97.3217 39.1264C97.4973 39.6788 97.5816 40.2558 97.5746 40.8357C97.5746 40.9137 97.5605 40.991 97.5324 41.0641C97.5043 41.1364 97.4622 41.2025 97.406 41.2588C97.3498 41.3164 97.2867 41.3628 97.2094 41.393C97.1392 41.4232 97.0549 41.4373 96.9776 41.4345H91.0088C91.0228 41.8787 91.1282 42.3158 91.3108 42.7214C91.4723 43.0805 91.711 43.4038 91.9989 43.6723C92.2798 43.9281 92.6028 44.1263 92.961 44.2536C93.3261 44.3843 93.7123 44.4497 94.0986 44.4475C94.5971 44.4475 95.0255 44.3681 95.3906 44.21C95.7558 44.0511 96.0367 43.8958 96.2333 43.7426C96.5915 43.5549 96.8513 43.6196 97.0339 43.9366L97.1883 44.2008C97.2866 44.3541 97.3147 44.4981 97.2867 44.6331C97.2586 44.768 97.1673 44.8826 97.0128 44.9761C96.6546 45.2326 96.2544 45.44 95.84 45.5932C95.5662 45.6937 95.2783 45.7731 94.9904 45.8307C94.6674 45.8975 94.3303 45.9298 93.9932 45.9277C93.291 45.9277 92.6449 45.8068 92.0691 45.5658C91.5144 45.3373 91.0088 45.0021 90.5804 44.579C90.1591 44.1566 89.829 43.6526 89.6043 43.0988C89.3726 42.5133 89.2603 41.8885 89.2603 41.2588ZM95.8682 40.3071C95.8401 39.5199 95.6224 38.9268 95.2011 38.5275C95.0045 38.3321 94.7657 38.1789 94.5059 38.0763C94.2531 37.9737 93.9722 37.9231 93.6913 37.928C93.0382 37.928 92.4694 38.1368 91.9919 38.5535C91.5144 38.9703 91.2124 39.5551 91.086 40.3071H95.8682Z" fill="black"></path>
  <path d="M98.5996 37.3812C98.5996 36.9939 98.7962 36.8 99.1824 36.8H99.6811C100.067 36.8 100.264 36.9939 100.264 37.3812V38.1747C100.264 38.2928 100.25 38.4108 100.229 38.5268C100.215 38.5788 100.208 38.6322 100.208 38.6857H100.243C100.348 38.4544 100.482 38.2359 100.643 38.0334C100.84 37.772 101.071 37.54 101.338 37.346C101.64 37.1232 101.977 36.9426 102.328 36.8091C102.701 36.6622 103.136 36.5884 103.635 36.5884C104.695 36.5884 105.467 36.8737 105.952 37.443C106.443 38.0123 106.689 38.867 106.689 40.007V45.1349C106.689 45.5229 106.493 45.7168 106.106 45.7168H105.559C105.165 45.7168 104.976 45.5229 104.976 45.1349V40.395C104.976 40.0998 104.955 39.8053 104.913 39.5136C104.877 39.2655 104.8 39.0265 104.674 38.8086C104.554 38.6055 104.372 38.4404 104.161 38.3336C103.937 38.2162 103.649 38.1571 103.297 38.1571C102.883 38.1522 102.476 38.2394 102.097 38.4123C101.739 38.5781 101.416 38.815 101.156 39.1081C100.882 39.4145 100.671 39.7709 100.538 40.1567C100.383 40.5721 100.313 41.0106 100.313 41.452V45.1349C100.313 45.5229 100.116 45.7168 99.7302 45.7168H99.1824C98.7962 45.7168 98.5996 45.5229 98.5996 45.1349V37.3812Z" fill="black"></path>
  <path d="M107.834 44.9591C107.68 44.8649 107.602 44.7475 107.588 44.6069C107.581 44.4502 107.623 44.2956 107.708 44.1662L107.89 43.9196C108.003 43.7664 108.129 43.6848 108.248 43.6729C108.375 43.6616 108.522 43.7024 108.698 43.7959C108.972 43.9652 109.259 44.1184 109.547 44.2541C109.913 44.4305 110.362 44.5184 110.889 44.5184C111.338 44.5184 111.703 44.4158 111.984 44.2105C112.265 44.0046 112.405 43.7136 112.405 43.3376C112.413 43.2013 112.384 43.0656 112.321 42.9433C112.265 42.8203 112.174 42.7142 112.061 42.6326C111.802 42.4372 111.514 42.2742 111.205 42.1484C110.868 42.0022 110.495 41.8609 110.102 41.7253C109.716 41.5939 109.344 41.416 109 41.1968C108.67 40.9866 108.375 40.7146 108.143 40.3948C107.918 40.0778 107.799 39.6667 107.799 39.1613C107.799 38.7389 107.883 38.3657 108.059 38.0424C108.22 37.7247 108.459 37.4499 108.754 37.2405C109.07 37.0205 109.414 36.856 109.786 36.7562C110.193 36.6431 110.608 36.5868 111.029 36.5889C111.654 36.5889 112.167 36.6712 112.574 36.8356C112.897 36.9586 113.206 37.1062 113.501 37.2763C113.662 37.3586 113.761 37.4675 113.789 37.6017C113.824 37.7367 113.789 37.8864 113.698 38.0516L113.536 38.3158C113.375 38.6096 113.115 38.6736 112.757 38.5098C112.525 38.3819 112.279 38.2694 112.026 38.1746C111.724 38.0579 111.366 37.9988 110.938 37.9988C110.516 37.9981 110.165 38.0923 109.877 38.2807C109.59 38.4683 109.442 38.7502 109.442 39.1262C109.442 39.264 109.47 39.4003 109.526 39.524C109.59 39.6484 109.674 39.7566 109.786 39.8403C110.046 40.0406 110.334 40.2036 110.643 40.3245C110.987 40.4658 111.352 40.6071 111.745 40.7477C112.132 40.8833 112.497 41.0576 112.848 41.267C113.185 41.4694 113.48 41.7394 113.705 42.0599C113.936 42.3832 114.049 42.7978 114.049 43.3024C114.056 43.6623 113.978 44.0186 113.824 44.3455C113.669 44.6716 113.445 44.9597 113.164 45.1875C112.869 45.4328 112.525 45.6183 112.153 45.7343C111.724 45.8678 111.282 45.9332 110.833 45.9283C110.488 45.9311 110.144 45.898 109.8 45.8313C109.519 45.7736 109.238 45.6914 108.965 45.5846C108.74 45.4939 108.515 45.3878 108.304 45.2669C108.136 45.1762 107.981 45.0729 107.834 44.9591Z" fill="black"></path>
  <path d="M115.657 35.0208C115.27 35.0208 115.074 34.8268 115.074 34.4389V33.8569C115.074 33.4696 115.27 33.2757 115.657 33.2764H116.253C116.647 33.2764 116.836 33.4696 116.836 33.8569V34.4389C116.836 34.8268 116.647 35.0208 116.253 35.0208H115.657ZM115.088 37.3817C115.088 36.9937 115.284 36.8004 115.671 36.8004H116.218C116.612 36.8004 116.801 36.9944 116.801 37.3817V45.1354C116.801 45.5226 116.612 45.7166 116.218 45.7166H115.671C115.284 45.7166 115.088 45.5226 115.088 45.1354V37.3817Z" fill="black"></path>
  <path d="M117.848 41.2403C117.841 40.6014 117.967 39.9688 118.227 39.3834C118.466 38.8288 118.817 38.3263 119.252 37.9032C119.687 37.4822 120.2 37.1526 120.769 36.934C121.977 36.4764 123.318 36.4764 124.526 36.934C125.095 37.1526 125.614 37.4815 126.05 37.9025C126.492 38.3228 126.843 38.826 127.089 39.3834C127.335 39.9745 127.468 40.6091 127.468 41.2515C127.468 41.8932 127.335 42.5279 127.089 43.119C126.843 43.6756 126.492 44.1781 126.057 44.5998C125.614 45.0208 125.095 45.3526 124.526 45.5775C123.318 46.0477 121.977 46.0477 120.769 45.5775C120.2 45.3547 119.687 45.023 119.252 44.6013C118.817 44.1796 118.466 43.6756 118.227 43.119C117.967 42.5265 117.834 41.8862 117.848 41.2403ZM119.575 41.2403C119.568 41.6845 119.652 42.1251 119.821 42.5356C119.975 42.9123 120.2 43.2567 120.481 43.5491C120.916 43.9799 121.464 44.273 122.061 44.3904C122.658 44.5085 123.276 44.4459 123.838 44.2112C124.203 44.0559 124.54 43.8316 124.821 43.5505C125.109 43.2609 125.333 42.9151 125.481 42.5349C125.642 42.123 125.727 41.6831 125.719 41.2403C125.719 40.8059 125.642 40.3751 125.481 39.9717C125.326 39.5964 125.102 39.2548 124.821 38.9673C124.54 38.6869 124.203 38.462 123.838 38.3066C123.276 38.0684 122.658 38.003 122.061 38.1211C121.464 38.2392 120.909 38.5336 120.481 38.9673C119.891 39.5767 119.568 40.3934 119.575 41.2403Z" fill="black"></path>
  <path d="M128.507 37.3812C128.507 36.9939 128.704 36.8 129.09 36.8H129.582C129.975 36.8 130.165 36.9939 130.165 37.3812V38.1747C130.165 38.2928 130.158 38.4108 130.129 38.5268C130.122 38.5788 130.115 38.6322 130.115 38.6857H130.15C130.256 38.4544 130.389 38.2359 130.544 38.0334C130.747 37.772 130.979 37.54 131.246 37.346C131.548 37.1232 131.878 36.9426 132.236 36.8091C132.608 36.6622 133.044 36.5884 133.542 36.5884C134.596 36.5884 135.368 36.8737 135.86 37.443C136.351 38.0123 136.597 38.867 136.59 40.007V45.1349C136.59 45.5229 136.4 45.7168 136.007 45.7168H135.466C135.073 45.7168 134.884 45.5229 134.884 45.1349V40.395C134.884 40.0998 134.862 39.8053 134.82 39.5136C134.785 39.2655 134.701 39.0265 134.582 38.8086C134.455 38.6048 134.28 38.4397 134.069 38.3336C133.844 38.2162 133.556 38.1571 133.205 38.1571C132.791 38.1522 132.377 38.2394 132.004 38.4123C131.646 38.5781 131.323 38.815 131.056 39.1081C130.79 39.4145 130.579 39.7709 130.438 40.1567C130.291 40.5728 130.214 41.0106 130.221 41.452V45.1349C130.221 45.5229 130.024 45.7168 129.638 45.7168H129.09C128.704 45.7168 128.507 45.5229 128.507 45.1349V37.3812Z" fill="black"></path>
  <path d="M14.6182 27.9033C8.20203 27.9033 3 33.0959 3 39.5002C3 45.9045 8.20203 51.097 14.6182 51.097C21.0344 51.097 26.2357 45.9052 26.2357 39.5002C26.2357 33.0952 21.0344 27.9033 14.6182 27.9033ZM18.2136 40.9375C16.6244 44.1755 13.2798 46.4829 9.40492 47.1316C9.15563 47.1731 9.06366 46.8168 9.30171 46.731C10.7806 46.1976 13.6428 44.7377 15.102 42.4345C16.2769 40.7168 17.0037 37.3158 9.78625 38.0762C9.551 38.1008 9.44918 37.7304 9.66547 37.6391C11.9737 36.6621 13.7327 36.4653 15.4988 36.4442C17.5998 36.4653 19.981 37.4732 18.2136 40.9375ZM18.3849 35.6015C17.458 35.6015 16.7059 34.7736 16.7059 33.7524C16.7059 32.7304 17.4566 31.9018 18.3849 31.9018C19.3125 31.9018 20.0639 32.7297 20.0639 33.7524C20.0639 34.7743 19.309 35.6015 18.3849 35.6015Z" fill="black"></path>
  <path d="M32.2897 44.6419C32.1844 44.5506 32.1071 44.4276 32.072 44.2891C32.0369 44.1598 32.086 44.0073 32.2194 43.8316L32.5214 43.4084C32.7321 43.1385 32.9989 43.1027 33.3149 43.3023C33.4202 43.3845 33.5607 43.4815 33.7363 43.5933C33.9329 43.7156 34.1365 43.8238 34.3472 43.9194C34.5929 44.0312 34.8527 44.1225 35.1126 44.1907C35.4145 44.2694 35.7235 44.3081 36.0325 44.3053C36.7066 44.3053 37.2333 44.1443 37.6335 43.821C38.0268 43.4977 38.2234 43.0662 38.2234 42.5257C38.2234 42.0674 38.0759 41.6914 37.781 41.3976C37.451 41.0807 37.0788 40.8164 36.6645 40.614C36.2221 40.3849 35.7376 40.162 35.2249 39.9455C34.7193 39.7354 34.2348 39.4824 33.7714 39.1879C33.336 38.9096 32.9568 38.5469 32.6618 38.1217C32.3669 37.6986 32.2194 37.1644 32.2194 36.5178C32.2124 36.0385 32.3108 35.5634 32.5144 35.1276C32.711 34.6925 33.013 34.3095 33.3851 34.0073C33.7714 33.698 34.2067 33.4618 34.6772 33.3107C35.1898 33.1435 35.7235 33.0606 36.2642 33.0641C36.6153 33.0627 36.9664 33.095 37.3035 33.1611C37.6124 33.2194 37.9144 33.2988 38.2093 33.3993C38.4481 33.4816 38.6869 33.5848 38.9116 33.7078C39.0801 33.7978 39.2416 33.9005 39.3891 34.0157C39.6699 34.216 39.7331 34.4803 39.5646 34.8092L39.3188 35.2492C39.2135 35.4376 39.0941 35.5339 38.9537 35.5402C38.7992 35.5409 38.6518 35.4945 38.5254 35.408C38.2234 35.2344 37.9144 35.0784 37.5984 34.9413C37.2122 34.7705 36.7558 34.6855 36.2291 34.6855C35.5831 34.6855 35.0494 34.8416 34.621 35.1522C34.1997 35.4636 33.989 35.8895 33.989 36.43C33.989 36.8763 34.1365 37.2403 34.4314 37.5222C34.7545 37.8286 35.1337 38.0809 35.5409 38.2714C35.9904 38.4893 36.4679 38.7009 36.9875 38.9061C37.4931 39.1057 37.9776 39.3566 38.4341 39.6546C38.8765 39.9399 39.2486 40.3082 39.5506 40.7384C39.8385 41.1678 39.9859 41.7174 39.9859 42.3865C39.9929 42.8602 39.9017 43.3304 39.7261 43.769C39.5506 44.1956 39.2837 44.578 38.9467 44.8907C38.5815 45.2211 38.1602 45.4783 37.7037 45.6484C37.2122 45.8361 36.6574 45.9302 36.0325 45.9302C35.6111 45.9323 35.1828 45.8874 34.7685 45.7967C34.4033 45.718 34.0452 45.6055 33.7011 45.4621C33.4132 45.3412 33.1324 45.2 32.8655 45.0383C32.6619 44.9203 32.4723 44.7874 32.2897 44.6419Z" fill="black"></path>
  <path d="M40.9897 37.3812C40.9897 36.9939 41.1864 36.8 41.5726 36.8H42.0712C42.4574 36.8 42.654 36.9939 42.654 37.3812V38.1747C42.654 38.2928 42.64 38.4109 42.6189 38.5268C42.6049 38.5788 42.5979 38.6323 42.5979 38.6857H42.633C42.7523 38.4088 42.9068 38.1501 43.1034 37.9189C43.3141 37.6631 43.5599 37.4381 43.8267 37.2498C44.1076 37.0544 44.4096 36.8941 44.7256 36.7733C45.0556 36.6503 45.3997 36.5877 45.7438 36.5884C47.2184 36.5884 48.1103 37.2638 48.4263 38.6147H48.4614C48.5878 38.3406 48.7563 38.0855 48.96 37.8578C49.1706 37.6104 49.4094 37.391 49.6832 37.2055C49.9571 37.0143 50.2591 36.8632 50.5821 36.7557C50.9191 36.6432 51.2702 36.587 51.6214 36.5884C52.6466 36.5884 53.391 36.8738 53.8685 37.4431C54.3389 38.0124 54.5707 38.8677 54.5707 40.007V45.135C54.5707 45.5229 54.374 45.7169 53.9878 45.7169H53.4401C53.0539 45.7169 52.8573 45.5229 52.8573 45.135V40.3788C52.8573 40.0836 52.8362 39.7891 52.794 39.4974C52.766 39.2508 52.6887 39.0118 52.5694 38.7925C52.457 38.5929 52.2884 38.4284 52.0918 38.3167C51.8812 38.2 51.6143 38.141 51.2843 38.141C50.8981 38.1353 50.5118 38.2359 50.1748 38.4319C49.8447 38.6273 49.5568 38.8909 49.3321 39.2051C49.1004 39.5404 48.9248 39.9129 48.8125 40.3071C48.7001 40.7141 48.6369 41.1351 48.6369 41.5582V45.1371C48.6369 45.5243 48.4473 45.7183 48.0752 45.7183H47.5064C47.1272 45.7183 46.9446 45.5243 46.9446 45.1371V40.3802C46.9446 40.0977 46.9235 39.8152 46.8884 39.5347C46.8603 39.2866 46.7901 39.0448 46.6777 38.8213C46.5724 38.614 46.4109 38.4404 46.2073 38.3223C46.0036 38.2014 45.7297 38.141 45.3856 38.141C44.9854 38.1353 44.5992 38.238 44.2551 38.439C43.918 38.6379 43.6301 38.905 43.4054 39.2226C43.1666 39.5579 42.9911 39.9304 42.8787 40.3247C42.7664 40.7253 42.7032 41.1407 42.7032 41.5582V45.1371C42.7032 45.5243 42.5136 45.7183 42.1204 45.7183H41.5726C41.1864 45.7183 40.9897 45.5243 40.9897 45.1371V37.3812Z" fill="black"></path>
  <path d="M55.2939 43.2849C55.2939 42.8267 55.3782 42.4303 55.5608 42.0957C55.7293 41.7675 55.9681 41.4821 56.263 41.2586C56.572 41.0295 56.9021 40.8454 57.2602 40.7118C57.6394 40.5698 58.0256 40.4637 58.4188 40.3948C58.8051 40.326 59.1983 40.2789 59.5916 40.2543C59.9778 40.2304 60.3219 40.2184 60.6238 40.2184H61.0873V39.9893C61.0873 39.6273 61.0311 39.3188 60.9328 39.0644C60.8485 38.831 60.7081 38.623 60.5185 38.4564C60.3429 38.3025 60.1323 38.1914 59.9006 38.1303C59.6548 38.0642 59.402 38.0319 59.1421 38.034C58.7349 38.027 58.3346 38.0923 57.9484 38.2273C57.6675 38.3278 57.3936 38.4515 57.1268 38.5977C56.7897 38.7621 56.5229 38.6918 56.3333 38.3861L56.1928 38.1415C56.0032 37.7887 56.0735 37.5244 56.3895 37.348C56.6563 37.1969 57.0355 37.0325 57.527 36.8546C58.0116 36.6768 58.6014 36.5889 59.2826 36.5903C60.3991 36.5903 61.2628 36.8869 61.8808 37.4801C62.4917 38.0733 62.7937 38.94 62.7937 40.08V45.1355C62.7937 45.5228 62.6041 45.7167 62.2109 45.7167H61.7684C61.3822 45.7167 61.1856 45.5228 61.1856 45.1355V44.3772C61.1856 44.3181 61.1926 44.2591 61.2067 44.2014C61.2207 44.1565 61.2277 44.1072 61.2418 44.0601H61.2067C61.0381 44.4059 60.8064 44.7215 60.5325 44.9942C60.2657 45.2515 59.9638 45.4686 59.6337 45.6373C59.2686 45.8313 58.8261 45.9283 58.2924 45.9283C57.9132 45.929 57.527 45.8693 57.1619 45.7519C56.8108 45.6416 56.4877 45.4652 56.1998 45.2318C55.926 45.0041 55.7013 44.7222 55.5397 44.4038C55.3782 44.0812 55.2939 43.708 55.2939 43.2849ZM57.0214 43.1444C57.0214 43.4965 57.1619 43.8226 57.4358 44.122C57.7166 44.4221 58.1309 44.5718 58.6857 44.5711C59.0368 44.5768 59.3879 44.4889 59.6969 44.316C59.9918 44.148 60.2517 43.9196 60.4553 43.6462C60.6589 43.3679 60.8204 43.0586 60.9328 42.7297C61.0381 42.4085 61.1013 42.0725 61.1013 41.7331V41.3451H60.6379C60.3219 41.3451 59.9567 41.3605 59.5494 41.3908C59.1422 41.4182 58.7489 41.492 58.3627 41.6107C58.0116 41.7155 57.6815 41.8996 57.4076 42.1484C57.1548 42.3895 57.0214 42.7212 57.0214 43.1444Z" fill="black"></path>
  <path d="M64.2969 37.3809C64.2969 36.9936 64.4935 36.7996 64.8797 36.8003H65.3712C65.7644 36.8003 65.9541 36.9936 65.9541 37.3809V38.4028C65.9541 38.4977 65.9541 38.5855 65.9471 38.6678C65.94 38.7388 65.933 38.8091 65.919 38.8793C65.9119 38.9433 65.9049 39.008 65.9049 39.0733H65.94C66.0384 38.7711 66.1717 38.4808 66.3332 38.2095C66.5018 37.9326 66.7055 37.681 66.9443 37.4617C67.176 37.2459 67.4428 37.0674 67.7307 36.9325C68.0257 36.7961 68.3487 36.7273 68.6717 36.7301C69.0509 36.7301 69.2404 36.924 69.2404 37.312V37.8054C69.2404 38.1927 69.0298 38.3867 68.6015 38.3867C68.1661 38.3867 67.7869 38.4956 67.4639 38.7128C67.1409 38.9321 66.86 39.2174 66.6563 39.5498C66.4246 39.9111 66.263 40.3075 66.1647 40.7229C66.0594 41.153 66.0102 41.5937 66.0102 42.0365V45.1381C66.0102 45.5261 65.8137 45.7194 65.4274 45.7194H64.8797C64.4935 45.7194 64.2969 45.5261 64.2969 45.1381V37.3809Z" fill="black"></path>
  <path d="M71.2837 38.2799H70.6728C70.2936 38.2799 70.104 38.086 70.104 37.6987V37.4717C70.104 37.0844 70.3006 36.8904 70.6868 36.8904H71.3188V34.9316C71.3188 34.5443 71.5154 34.3503 71.9017 34.3503H72.4143C72.8075 34.3503 72.9972 34.5443 72.9972 34.9316V36.8883H74.5561C74.9423 36.8883 75.1319 37.0816 75.1319 37.4696V37.6959C75.1319 38.0838 74.9494 38.2778 74.5702 38.2778H72.9972V42.2454C72.9972 42.6678 73.0604 43.0086 73.1727 43.2673C73.271 43.4971 73.4185 43.7016 73.6081 43.8661C73.7696 44.001 73.9521 44.1008 74.1558 44.1571C74.3313 44.207 74.5139 44.2393 74.6965 44.2541C74.9282 44.2773 75.0898 44.33 75.1811 44.4122C75.2654 44.4945 75.3145 44.6357 75.3145 44.8353V45.2078C75.3145 45.5958 75.0757 45.7891 74.6052 45.7891C74.1769 45.7912 73.7485 45.7265 73.3342 45.5958C72.948 45.4728 72.5899 45.2683 72.2879 44.9963C71.9719 44.7109 71.7261 44.3623 71.5576 43.9744C71.375 43.5632 71.2837 43.0754 71.2837 42.5117V38.2799Z" fill="black"></path>
</svg>
