<?xml version="1.0" encoding="UTF-8"?>
<svg xmlns="http://www.w3.org/2000/svg" width="140" height="80" viewBox="0 0 140 80" fill="none">
  <g clip-path="url(#clip0_2813_15211)">
    <path d="M113.214 33.188C113.516 33.0203 113.862 33.0762 114.186 33.065H124.077C124.48 33.065 124.905 33.0203 125.262 33.2215C125.586 33.3668 125.821 33.7244 125.81 34.0821C125.821 34.5962 125.463 35.0097 125.173 35.3897C122.435 39.0221 119.685 42.6433 116.958 46.2757C116.768 46.5439 116.5 46.7674 116.165 46.8345C115.427 46.9798 114.645 46.3427 114.667 45.5939C114.667 45.2586 114.846 44.9568 115.058 44.711L121.999 35.5239C119.238 35.5127 116.477 35.535 113.728 35.5127C113.18 35.5127 112.689 35.088 112.599 34.5515C112.487 34.0374 112.722 33.4227 113.214 33.188Z" fill="black"></path>
    <path d="M59.2535 39.2792C59.2424 38.5527 59.0412 37.7592 58.4376 37.3009C57.7 36.7309 56.75 36.608 55.8559 36.5186C55.1741 36.4739 54.4923 36.4403 53.7994 36.4515H47.0488V33.8809C47.0488 33.5456 46.8252 33.1991 46.4788 33.1544C46.1211 33.1209 45.7635 33.1321 45.417 33.1433C45.0594 33.1433 44.7576 33.4562 44.7576 33.8027C44.7241 34.5627 44.7352 35.3227 44.7352 36.0827V43.5486C44.7241 44.3645 45.1152 45.158 45.7523 45.6721C46.5905 46.3763 47.7082 46.6333 48.7811 46.7004C49.597 46.7339 50.4129 46.7674 51.2288 46.7563C52.7264 46.7451 54.2241 46.801 55.7106 46.6668C56.7388 46.5439 57.8788 46.3315 58.6165 45.5268C59.1418 44.9568 59.2982 44.1521 59.2759 43.3921C59.2535 42.0174 59.2647 40.6427 59.2535 39.2792ZM56.9623 43.3921C56.9735 43.7945 56.7947 44.2192 56.4482 44.4427C55.9453 44.8004 55.297 44.778 54.7047 44.7892H49.4517C48.9935 44.7892 48.5353 44.7333 48.0882 44.6327C47.7641 44.5545 47.4288 44.4204 47.2388 44.141C47.06 43.9062 47.0488 43.5933 47.0488 43.3027V38.3627H53.7994C54.5594 38.3739 55.3306 38.3292 56.0794 38.4856C56.3476 38.5527 56.6382 38.6756 56.7947 38.9215C56.9735 39.2121 56.9623 39.5586 56.9735 39.8827C56.9623 41.0562 56.9735 42.2186 56.9623 43.3921ZM26.1822 41.2351C25.3663 40.6986 24.3716 40.5645 23.4216 40.5198C21.5104 40.5086 19.6104 40.5198 17.6992 40.5198C17.3081 40.5198 16.861 40.5533 16.5592 40.2739C16.3245 40.0168 16.358 39.6592 16.3469 39.3574C16.358 39.1003 16.3022 38.7986 16.5033 38.6086C16.7604 38.3627 17.1404 38.3403 17.4757 38.3292H25.7799C26.0704 38.3403 26.3946 38.2062 26.4952 37.9156C26.6181 37.5692 26.6069 37.1668 26.4728 36.8203C26.3722 36.5409 26.0704 36.3844 25.7799 36.3956C22.9187 36.3956 20.0575 36.3844 17.1851 36.3956C16.0004 36.4403 14.7486 37.0439 14.2457 38.1615C13.9998 38.6533 14.0669 39.2009 14.0557 39.7262C14.0557 40.2962 14.1563 40.8774 14.4804 41.3468C14.771 41.7715 15.2404 42.0174 15.7098 42.1627C16.6486 42.4533 17.6433 42.4309 18.6157 42.4868C20.2698 42.5092 21.9128 42.4645 23.5669 42.5092C24.0251 42.5427 24.6734 42.6209 24.8075 43.1574C24.8298 43.5486 24.9081 43.9957 24.6622 44.3421C24.4163 44.6327 24.014 44.7221 23.6451 44.778C23.1087 44.8339 22.5722 44.8562 22.0357 44.8451H14.8716C14.6033 44.8339 14.2904 44.9457 14.1898 45.2139C14.0445 45.5827 14.0333 46.0298 14.2122 46.3874C14.3686 46.678 14.7039 46.801 15.0169 46.7786H22.561C23.6116 46.7674 24.6957 46.7004 25.6681 46.2421C26.2604 45.9739 26.7746 45.4933 27.0093 44.8786C27.244 44.3086 27.1769 43.6827 27.1769 43.0792C27.1769 42.3527 26.7857 41.6374 26.1822 41.2351ZM42.5335 36.418C42.1535 36.3956 41.7623 36.3956 41.3823 36.418C40.9911 36.4515 40.7676 36.865 40.7899 37.2227V42.6321C40.7899 42.9562 40.8123 43.2915 40.6782 43.6045C40.5217 43.9845 40.164 44.2527 39.7952 44.4204C38.9346 44.8004 37.9734 44.8227 37.0458 44.8562H34.5311C33.6034 44.8115 32.6311 44.8115 31.7705 44.4092C31.2787 44.1857 30.8987 43.6827 30.9099 43.1239C30.8987 41.1345 30.9099 39.145 30.9099 37.1556C30.9211 36.798 30.6528 36.418 30.2728 36.418C29.8705 36.418 29.4681 36.3844 29.0769 36.4403C28.7081 36.5297 28.574 36.9433 28.5852 37.2897C28.5963 38.6086 28.574 39.9274 28.5852 41.2462C28.641 42.1292 28.4957 43.0233 28.6522 43.9062C28.8981 44.901 29.714 45.6386 30.6193 46.0745C32.0275 46.7451 33.6258 46.8121 35.1458 46.7674C36.107 46.7786 37.0681 46.7898 38.0181 46.7563C39.3593 46.678 40.7564 46.4098 41.8629 45.5939C42.5558 45.0798 43.1258 44.2751 43.1035 43.3809V37.2115C43.1146 36.865 42.9135 36.4627 42.5335 36.418ZM72.9224 41.3804C72.1065 40.7209 71.0112 40.5756 69.9942 40.5198C67.9489 40.5086 65.8924 40.5198 63.8471 40.5086C63.5677 40.4974 63.2547 40.4415 63.0647 40.2068C62.8859 39.9609 62.8971 39.6368 62.8971 39.335C62.8971 39.0892 62.8747 38.7986 63.0535 38.6086C63.2994 38.3515 63.6794 38.3403 64.0147 38.318H72.3859C72.7101 38.3403 73.0342 38.1056 73.0901 37.7703C73.1459 37.3903 73.1683 36.9656 72.9336 36.6415C72.7659 36.418 72.4865 36.3733 72.2295 36.3844C69.3906 36.3956 66.5518 36.3733 63.7241 36.3956C62.573 36.4403 61.3659 37.0103 60.8406 38.0721C60.5277 38.6533 60.5947 39.3239 60.6171 39.9609C60.6506 40.4751 60.7624 41.0003 61.0865 41.4251C61.3882 41.8162 61.8465 42.0509 62.3159 42.1851C63.2547 42.4645 64.2494 42.4421 65.2218 42.4868C66.82 42.498 68.4295 42.4756 70.0277 42.498C70.4971 42.5315 71.123 42.5762 71.3354 43.0792C71.3912 43.4033 71.3801 43.7498 71.3465 44.0851C71.2124 44.5433 70.6983 44.6998 70.2736 44.778C69.5024 44.8786 68.7312 44.8451 67.96 44.8562H61.4106C61.1424 44.8339 60.8518 44.9792 60.7512 45.2363C60.6059 45.6163 60.5947 46.0745 60.8071 46.4433C60.9635 46.7004 61.2765 46.801 61.5671 46.801H67.893C68.91 46.801 69.9271 46.8345 70.933 46.6668C71.7936 46.5215 72.6877 46.1974 73.2465 45.4933C73.7048 44.9345 73.8054 44.1745 73.7718 43.4704C73.8054 42.688 73.5483 41.8721 72.9224 41.3804ZM89.4637 39.1227C89.4637 38.698 89.3743 38.2621 89.1507 37.9045C88.8154 37.3456 88.2231 37.0215 87.6195 36.8092C86.7031 36.5074 85.7419 36.4068 84.7919 36.3956H80.6789C79.5501 36.4068 78.4101 36.5074 77.326 36.8427C76.5548 37.0886 75.7948 37.5245 75.4036 38.2621C75.1018 38.8321 75.0795 39.4915 75.0907 40.1174C75.0907 41.3133 75.0795 42.5092 75.1018 43.6939C75.1689 44.7668 75.9624 45.6274 76.8566 46.1304C77.8736 46.7004 79.0695 46.8233 80.2207 46.801C82.523 46.801 84.8254 46.7898 87.1278 46.7786C87.4519 46.7898 87.8207 46.611 87.899 46.2645C87.9884 45.9292 87.966 45.538 87.8095 45.2251C87.7501 45.1032 87.6555 45.0018 87.538 44.9341C87.4205 44.8664 87.2854 44.8354 87.1501 44.8451C85.0713 44.8339 82.9813 44.8451 80.9025 44.8451C80.0642 44.8227 79.2036 44.8674 78.3989 44.6104C77.963 44.4874 77.583 44.141 77.4824 43.6939C77.4266 43.3698 77.3371 43.0121 77.4377 42.688C81.1819 42.7104 84.926 42.688 88.6701 42.6992C88.8601 42.6992 89.0725 42.7215 89.2178 42.5651C89.4301 42.3639 89.4525 42.0621 89.4525 41.7939C89.4525 40.8998 89.4525 40.0056 89.4637 39.1227ZM87.2172 40.7098C83.9425 40.7098 80.6677 40.7209 77.393 40.7098C77.4154 40.2068 77.3371 39.7039 77.4489 39.2121C77.6054 38.7762 78.0971 38.5974 78.5107 38.4968C79.6507 38.2621 80.8242 38.318 81.9866 38.3068C83.1042 38.318 84.2219 38.2733 85.3395 38.3403C85.8201 38.385 86.3007 38.4409 86.7366 38.6421C86.9825 38.765 87.1948 38.9886 87.2172 39.268C87.2284 39.7486 87.2172 40.2292 87.2172 40.7098ZM106.094 42.3304C106.083 41.3133 106.106 40.2962 106.083 39.2792C106.038 38.4633 105.804 37.5803 105.178 37.0103C104.72 36.5856 104.083 36.3956 103.457 36.3956H93.7778C93.4537 36.3844 93.1184 36.5856 93.0402 36.9097C92.9731 37.2339 92.9619 37.5803 93.0625 37.8933C93.1519 38.1727 93.4313 38.3403 93.7107 38.3403C95.8455 38.3515 97.9802 38.3403 100.104 38.3515C100.864 38.3515 101.624 38.3292 102.384 38.3739C102.764 38.385 103.166 38.4186 103.49 38.6309C103.77 38.8433 103.725 39.2233 103.792 39.525H95.8455C95.1078 39.5362 94.359 39.525 93.6325 39.6703C92.9507 39.7933 92.3025 40.0951 91.7772 40.5309C91.2631 40.9668 90.9502 41.6262 90.939 42.308V43.6827C90.9278 44.3421 91.1737 44.9904 91.6207 45.471C92.1907 46.0968 92.9955 46.4657 93.8113 46.6333C94.6384 46.7898 95.4766 46.7786 96.3037 46.7786H100.718C101.568 46.7786 102.417 46.7786 103.255 46.6668C103.971 46.5663 104.708 46.3763 105.278 45.8845C105.759 45.471 105.994 44.8451 106.061 44.2304C106.117 43.6045 106.072 42.9562 106.094 42.3304ZM103.792 43.3921C103.77 43.7721 103.691 44.1968 103.401 44.4651C103.077 44.778 102.596 44.8227 102.16 44.8451H95.4543C94.7837 44.8115 94.0237 44.7668 93.5096 44.2639C93.1743 43.9286 93.219 43.4368 93.2302 43.0009C93.2413 42.6321 93.1519 42.1851 93.4537 41.9056C93.8896 41.5145 94.5155 41.4698 95.0743 41.4362H103.792V43.3921Z" fill="black"></path>
  </g>
  <defs>
    <clipPath id="clip0_2813_15211">
      <rect width="111.821" height="14" fill="white" transform="translate(14 33)"></rect>
    </clipPath>
  </defs>
</svg>
