<?xml version="1.0" encoding="UTF-8"?>
<svg xmlns="http://www.w3.org/2000/svg" width="140" height="80" viewBox="0 0 140 80" fill="none">
  <path d="M35.424 60.725H29.925V60.313C31.094 60.175 31.369 60.175 31.369 58.8V50.552C30.269 50.689 28.688 50.689 28.413 53.164H28L28.138 50.002H37.348V53.164H36.936C36.661 50.689 35.012 50.552 33.981 50.552V58.8C33.981 60.175 34.393 60.175 35.493 60.313L35.424 60.725ZM49.516 60.725H44.223V60.313C45.048 60.175 45.597 60.175 45.597 59.213V55.638H41.817V59.213C41.817 60.175 42.504 60.175 43.329 60.313V60.725H38.174V60.313C38.999 60.175 39.548 60.175 39.548 59.213V51.514C39.548 50.552 38.861 50.414 38.174 50.277V49.864H43.467V50.277C42.779 50.414 41.954 50.414 41.954 51.514V54.676H45.735V51.514C45.735 50.414 45.048 50.414 44.36 50.277V49.864H49.653V50.277C48.966 50.414 48.278 50.414 48.278 51.514V59.213C48.278 60.175 48.828 60.175 49.653 60.313V60.725H49.516ZM50.066 50.002H59.002V53.164H58.589C58.177 50.827 57.077 50.552 55.084 50.552C54.259 50.552 53.846 50.689 53.846 51.377V54.951C55.358 54.951 56.115 54.539 56.39 52.614H56.802V57.976H56.39C56.115 56.051 55.427 55.501 53.846 55.501V59.351C53.846 60.038 54.121 60.175 55.221 60.175C56.733 60.175 58.314 59.763 59.277 57.288H59.62L58.933 60.588H49.997V60.175C50.822 60.038 51.372 60.038 51.372 59.075V51.377C51.372 50.277 50.684 50.277 50.066 50.002ZM71.787 60.725H66.219V60.313C67.457 60.175 67.732 60.175 67.732 58.8V50.552C66.632 50.689 65.051 50.689 64.776 53.164H64.363L64.501 50.002H73.711L73.849 53.164H73.437C73.162 50.689 71.512 50.552 70.481 50.552V58.8C70.481 60.175 70.894 60.175 71.993 60.313L71.787 60.725ZM79.898 60.725H74.468V60.313C75.293 60.175 75.843 60.175 75.843 59.213V51.514C75.843 50.414 75.155 50.414 74.468 50.277V49.864H79.898V50.277C79.211 50.414 78.386 50.414 78.386 51.514V59.213C78.386 60.175 79.074 60.175 79.898 60.313V60.725ZM94.402 60.725H89.248V60.313C90.21 60.175 90.623 60.175 90.623 59.075V51.102H90.485L86.705 60.588H86.292L82.512 51.239H82.374V58.526C82.374 59.626 82.649 60.038 84.024 60.038V60.45H80.378V60.038C81.616 59.9 81.753 59.763 81.753 58.8V51.377C81.753 50.552 81.478 50.277 80.378 50.139V49.727H84.297L87.39 57.151L90.483 49.727H94.401V50.139C93.439 50.277 93.027 50.277 93.027 51.652V58.525C93.027 59.9 93.301 59.9 94.401 60.038L94.402 60.725ZM94.952 50.002H103.888V53.164H103.475C103.2 50.827 101.963 50.552 99.97 50.552C99.145 50.552 98.87 50.689 98.87 51.377V54.951C100.382 54.951 101.001 54.539 101.276 52.614H101.688V57.976H101.276C101.138 56.051 100.313 55.501 98.87 55.501V59.351C98.87 60.038 99.145 60.175 100.107 60.175C101.619 60.175 103.2 59.763 104.163 57.288H104.575L103.888 60.588H94.814V60.175C95.776 60.038 96.189 60.038 96.189 59.075V51.377C96.12 50.277 95.433 50.277 94.952 50.002ZM112.068 53.302C111.793 52.202 110.831 50.277 108.975 50.277C108.15 50.277 107.325 50.827 107.325 51.789C107.325 52.614 107.6 53.026 108.838 53.576L111.106 54.814C111.656 55.089 112.756 56.051 112.756 57.701C112.756 59.075 111.793 61.001 108.975 61.001C107.463 61.001 106.844 60.451 106.432 60.451C106.157 60.451 106.019 60.725 106.019 61.001H105.607V57.013H106.019C106.294 58.526 107.257 60.45 109.112 60.45C110.968 60.45 111.037 58.938 111.037 58.663C111.037 57.563 110.35 57.151 109.387 56.738L108.288 56.326C105.744 54.951 105.744 53.714 105.744 52.889C105.744 51.926 106.157 49.727 109.112 49.727C110.35 49.727 111.175 50.277 111.518 50.277C111.793 50.277 111.931 50.002 111.931 49.727H112.343V53.164H112.068V53.302ZM106.568 38.866C106.156 39.004 106.156 38.316 105.744 38.454C105.606 38.179 105.469 37.766 105.056 37.629L104.919 37.766C104.781 37.491 104.644 37.079 104.369 36.941V35.017C105.331 36.117 105.744 37.629 106.912 38.591C106.362 37.354 105.95 36.254 104.987 35.017C104.575 34.604 104.163 34.192 103.613 33.917C104.438 33.504 104.987 34.329 105.744 34.467L106.019 34.879C106.431 35.154 106.156 35.704 106.568 35.979C106.156 36.392 107.393 36.804 106.981 37.079C107.393 37.629 106.981 37.904 107.668 38.454C107.393 38.591 107.668 39.141 107.806 39.279C107.393 39.141 106.981 39.416 106.568 38.866ZM101.001 39.828L100.588 39.966C100.863 38.454 101.825 37.354 101.825 35.842C102.65 35.292 102.1 34.467 101.963 33.642L101.688 32.817L101.963 32.68C103.406 34.88 101.551 37.629 101.001 39.828ZM101.551 39.691L101.688 39.141L101.825 39.279C101.825 38.866 102.238 39.004 102.513 38.866C102.238 39.141 101.963 39.416 101.551 39.691ZM102.65 38.179C103.063 38.041 103.338 38.316 103.475 38.591C103.2 39.553 102.925 40.241 103.2 41.066C99.695 42.853 95.639 43.953 91.583 43.266C86.153 42.303 80.723 39.416 75.43 42.441L75.292 41.066L76.804 39.691C83.816 37.491 90.208 42.715 97.082 41.478C99.213 41.203 101.001 40.653 102.925 39.004C103.2 38.866 103.2 38.316 102.65 38.179C102.513 38.316 102.1 38.454 101.963 38.591C101.963 38.316 102.375 38.316 102.65 38.179ZM92.34 43.953C87.184 43.403 81.822 40.241 76.53 42.303C75.98 42.578 75.567 42.853 75.155 43.265C76.117 41.478 78.385 41.478 80.31 41.341C83.678 41.478 87.184 42.715 90.346 43.541C90.484 43.265 90.758 43.541 90.896 43.678C94.951 44.365 99.695 43.54 103.063 41.616C100.313 43.678 95.846 44.228 92.34 43.953ZM102.1 44.09C101.963 44.09 101.963 44.09 102.1 44.09L101.413 43.265C101.688 43.265 102.238 43.678 102.1 44.09ZM79.485 42.44L80.86 42.303L79.623 42.853L79.485 42.44ZM75.705 43.815C76.392 42.853 77.629 42.578 78.66 42.578C78.523 43.128 77.973 43.678 77.286 43.815C76.942 43.953 76.254 43.953 75.705 43.815ZM83.403 44.09C83.266 44.228 82.853 44.503 82.578 44.228L82.441 44.09C82.716 44.09 83.128 43.953 83.128 43.678C83.128 43.265 82.716 42.99 82.303 42.99C81.341 42.99 80.241 43.265 79.348 43.815C79.76 44.09 80.31 44.09 80.585 44.365C79.073 43.953 77.629 44.778 76.117 44.778C75.842 44.778 75.705 44.503 75.567 44.365C76.392 44.64 77.629 44.503 78.247 43.953C78.523 43.678 78.935 43.403 79.073 42.99C79.21 43.128 79.21 43.403 79.21 43.678C80.448 43.403 81.341 42.441 82.716 42.853L83.266 43.128C83.403 43.265 83.541 43.678 83.403 44.09ZM73.573 41.616L71.168 40.928L71.03 39.554C72.955 39.278 74.948 37.216 75.498 35.154C75.911 33.367 75.636 31.58 74.398 30.067C73.024 28.28 71.03 27.455 68.831 27.867C66.906 28.143 65.6 29.243 64.775 30.892C63.813 32.542 63.95 34.467 64.638 36.117L64.5 36.392L62.37 37.629C60.857 34.879 61.132 31.579 62.782 28.968C63.469 28.005 64.156 27.18 65.325 26.356L65.463 26.493C67.731 24.981 71.787 24.981 74.123 26.493L74.398 26.218C77.492 28.28 78.729 31.718 78.179 35.292C77.492 38.179 76.116 40.378 73.573 41.616ZM73.023 43.54C72.749 43.54 72.749 43.403 72.749 43.128V42.99C72.886 43.128 73.024 43.403 73.161 43.128C73.299 42.853 73.161 42.44 72.749 42.303C71.787 42.303 71.512 43.678 70.687 43.815C70.549 43.953 70.549 44.09 70.687 44.228C71.374 44.503 71.649 43.403 72.199 43.128C72.061 43.54 71.787 43.953 71.374 44.365C71.099 44.503 70.962 44.503 70.549 44.365C70.274 44.09 70.274 43.403 69.724 43.403C69.244 43.54 69.381 44.64 68.556 44.365C68.006 43.953 67.868 43.54 67.456 42.99C68.143 43.265 68.281 44.365 68.968 43.953C69.106 43.54 68.693 43.678 68.418 43.403C68.006 42.99 67.731 42.028 66.906 42.166C66.631 42.166 66.356 42.441 66.356 42.716C66.356 42.853 66.494 43.128 66.631 42.99C66.769 42.99 66.906 42.99 66.906 42.853V42.715C66.906 42.853 67.043 43.128 66.768 43.128C66.356 43.403 66.081 42.853 66.081 42.578C66.081 42.303 66.493 42.028 66.769 41.891C68.281 41.341 68.419 44.503 69.312 42.716C69.449 42.44 69.862 42.303 69.999 42.578C70.274 42.99 70.549 43.54 71.099 43.265C71.374 42.715 71.787 42.028 72.336 42.028C72.749 41.891 73.161 41.891 73.436 42.303C73.436 43.128 73.436 43.54 73.024 43.54H73.023ZM69.793 44.64C69.655 44.503 69.655 44.365 69.793 44.228C69.93 44.228 70.068 44.228 70.205 44.503C70.068 44.64 69.93 44.778 69.793 44.64ZM68.831 43.403L68.556 42.99H68.968C69.106 43.128 68.968 43.265 68.831 43.403ZM71.099 42.99L70.824 43.265L70.618 42.99C70.755 43.128 70.962 42.99 71.099 42.99ZM65.05 40.928L66.562 39.141C68.212 40.516 70.342 41.341 72.268 41.891C71.03 42.853 68.899 42.716 67.525 41.891C66.562 42.028 65.875 41.341 65.05 40.928ZM64.912 40.103L63.812 39.966C63.675 39.691 63.675 39.553 63.95 39.278C63.813 39.416 64.088 39.966 64.363 39.966C65.05 39.828 65.6 39.278 65.737 38.729C65.875 38.454 65.6 38.316 65.463 38.316L65.188 38.454C65.463 37.904 66.15 38.316 66.012 38.729C66.15 39.416 65.325 39.829 64.912 40.103ZM63.95 38.041C63.813 37.904 63.675 37.766 63.675 37.491C63.813 37.491 64.088 37.766 63.95 38.041ZM64.638 38.179C64.5 38.454 64.225 38.866 63.95 38.591L64.638 38.179ZM65.325 37.629L65.187 37.766V37.904H65.05C65.188 37.491 64.775 37.354 64.363 37.216C64.225 37.354 64.225 37.354 64.088 37.354C64.363 37.079 65.05 37.079 65.325 37.629ZM65.05 31.717L65.188 31.305L65.463 31.58L65.05 31.717ZM65.463 32.817C65.325 32.817 65.188 32.542 65.325 32.405C65.6 32.405 65.463 32.68 65.463 32.817ZM66.013 33.367C65.875 33.642 65.737 33.642 65.325 33.642C65.463 33.229 65.876 33.367 66.013 33.367ZM65.875 31.305C65.737 31.305 65.6 31.03 65.737 31.03C66.012 31.167 66.012 31.305 65.875 31.305ZM66.287 31.855C66.15 31.992 66.012 32.13 65.875 32.13C65.875 31.855 66.15 31.717 66.287 31.855ZM66.012 30.342C65.875 30.48 66.15 29.93 66.287 30.205L66.012 30.342ZM66.425 31.167C66.425 31.305 66.287 31.167 66.15 31.03L66.425 30.892V31.167ZM66.769 29.517C66.631 29.38 66.906 29.243 67.043 29.38C67.043 29.518 66.768 29.38 66.768 29.518L66.769 29.517ZM66.769 30.067C66.906 30.067 67.043 30.205 67.043 30.342L66.768 30.068L66.769 30.067ZM66.699 32.405C66.699 32.13 66.975 32.267 67.112 32.267L67.25 33.092C66.7 33.23 67.042 32.68 66.699 32.405ZM68.969 34.055C68.281 35.017 66.906 33.367 66.562 34.742L66.287 33.917L68.968 34.054L68.969 34.055ZM67.593 31.442C68.006 31.305 68.006 31.717 68.143 31.717C67.868 31.855 67.731 31.992 67.731 32.405H67.593C67.456 31.992 67.456 31.717 67.593 31.442ZM67.868 33.23H67.593C67.593 33.092 67.731 33.092 67.731 33.23H67.868ZM68.418 33.092L68.143 33.23H68.006L68.418 33.092ZM68.281 30.068C68.418 29.93 68.693 29.93 68.831 29.655C68.693 29.518 68.418 29.38 68.556 29.105C68.831 28.83 69.243 29.243 69.381 29.518C69.106 30.068 68.418 30.342 68.693 31.03C68.831 31.305 68.968 31.717 69.381 31.717C68.831 31.855 68.968 32.13 69.243 32.542V32.68C69.381 33.092 69.518 33.367 68.831 33.367C68.968 33.092 69.243 33.092 69.243 32.68V32.542C68.831 32.542 68.556 31.992 68.418 32.68C68.556 33.092 68.143 32.817 67.731 32.955L67.593 32.817C68.418 33.23 67.593 31.855 68.418 32.13C68.831 31.717 68.143 31.442 68.006 31.167L67.456 31.305C67.593 30.617 68.418 30.755 68.281 30.067V30.068ZM67.593 30.48C67.318 30.617 67.456 30.205 67.456 30.205C67.593 30.205 67.731 30.342 67.593 30.48ZM67.868 29.93C67.731 29.93 67.456 29.655 67.593 29.38L67.868 29.93ZM68.281 28.693L68.006 29.105L68.281 29.518C67.868 29.93 68.006 28.83 67.456 29.105C67.731 28.693 68.281 28.693 68.693 28.555L69.243 28.418C69.243 28.555 69.243 28.693 69.381 28.83C69.243 28.418 68.693 28.693 68.281 28.693ZM69.381 37.216L69.243 37.354V36.117L69.381 37.216ZM69.243 36.117V35.842H69.381L69.243 36.117ZM69.106 31.305C68.831 31.03 68.693 30.617 68.968 30.342L69.381 29.93C69.518 30.205 69.106 30.205 68.968 30.617L69.106 31.305ZM69.243 37.491L69.381 38.866C69.243 38.454 69.243 37.904 69.243 37.491ZM68.831 36.117C68.831 37.079 69.106 38.179 68.693 39.004C68.693 38.179 68.693 36.941 68.831 36.117ZM66.7 33.23C66.425 33.504 66.287 33.092 66.012 32.817C66.287 32.817 66.562 32.955 66.7 33.23ZM66.15 32.68C66.012 32.68 65.737 32.542 65.875 32.405H66.15C66.012 32.405 66.15 32.542 66.15 32.68ZM66.15 35.567C66.287 35.842 66.425 36.254 66.7 36.529C66.425 36.666 65.875 36.391 65.737 36.254C65.875 35.842 66.15 35.017 65.463 35.017C65.463 34.879 65.325 34.604 65.6 34.604V34.467C66.15 34.192 65.875 35.704 66.562 35.292C66.837 34.879 66.975 34.054 67.525 34.467C68.075 34.604 68.35 34.742 68.899 34.467C68.143 35.017 67.044 35.429 66.15 35.567ZM68.28 35.842L68.556 36.254H68.418L68.28 35.842ZM68.006 36.666L67.043 35.704L67.181 35.567L68.006 36.666ZM68.143 36.392L68.281 36.666L67.318 35.566L68.143 36.392ZM68.28 35.842L68.143 35.704V35.567L68.28 35.842ZM67.181 36.529C67.043 36.529 67.043 36.391 66.906 36.391C67.043 36.391 67.043 36.391 67.181 36.529C67.731 37.216 68.143 37.354 68.418 38.179C67.868 37.904 67.593 37.079 67.181 36.529ZM68.418 39.691L68.006 39.416C68.143 39.554 68.418 39.554 68.418 39.691ZM67.181 37.354L66.906 37.629C67.318 38.041 67.731 38.316 67.868 38.454C67.318 38.041 66.494 37.766 66.218 37.079C66.7 36.941 67.043 36.941 67.181 37.354ZM70.481 37.079C70.755 36.941 70.755 36.529 71.168 36.666L70.962 36.804L71.099 36.941L69.999 37.216C69.93 36.941 70.481 37.216 70.481 37.079ZM72.611 30.479C71.924 30.617 72.199 29.38 71.374 29.793C71.374 29.38 71.237 29.105 71.099 28.968C70.687 29.105 70.687 29.518 70.549 29.793C70.137 29.793 69.862 29.655 69.999 29.38L70.137 28.418C71.374 28.418 72.061 28.83 72.817 29.38C72.749 29.655 72.749 30.067 72.611 30.479ZM72.886 32.817C72.749 32.68 72.611 32.68 72.474 32.68L72.749 32.405C72.886 32.405 73.024 32.68 72.886 32.817ZM74.811 34.054H75.086V34.329L74.811 34.054ZM75.017 34.604L74.88 35.154C74.399 35.017 75.017 35.017 75.017 34.604ZM73.711 36.804C73.849 36.941 74.261 36.529 74.399 36.666C74.261 36.804 74.261 37.079 73.986 36.941L73.711 36.804ZM71.511 38.454C71.237 38.179 71.924 37.629 71.374 37.354C71.924 36.941 71.787 37.766 71.787 38.041C72.061 38.179 72.611 37.629 72.749 38.179C72.474 38.179 72.061 38.591 71.787 38.316L71.511 38.454ZM71.237 38.866H71.512L70.824 39.141L71.237 38.866ZM70.617 38.591H70.893L70.48 38.866L70.617 38.591ZM71.649 36.117L71.511 36.392C71.374 36.392 71.237 36.116 71.099 36.254C71.099 35.979 71.511 36.392 71.649 36.117ZM70.962 34.329L70.687 34.467L70.617 34.192C70.824 34.054 70.824 34.192 70.962 34.329ZM71.649 32.679L71.237 32.817L71.374 32.405C71.374 32.405 71.649 32.541 71.649 32.679ZM71.924 30.342H71.511C71.511 30.068 72.061 30.068 71.924 30.342ZM71.099 34.054L71.511 34.192C71.511 34.467 71.099 34.329 71.099 34.054ZM71.787 35.429L71.511 35.567C71.511 35.567 71.374 35.704 71.374 35.567H71.511C71.648 35.429 71.649 35.292 71.787 35.429ZM71.237 34.604C71.512 34.329 71.649 34.604 71.924 34.879C71.649 34.879 71.512 35.017 71.237 34.604ZM71.924 36.392C71.924 36.254 71.649 35.567 72.199 35.704C72.199 35.567 72.336 35.567 72.474 35.567C72.199 35.842 71.924 36.117 71.924 36.392ZM72.749 36.942C72.611 37.079 72.474 37.216 72.336 37.079C72.336 36.804 72.611 36.942 72.749 36.942ZM73.024 35.704L72.886 36.529V36.116H72.611C72.749 36.116 72.749 35.979 72.749 35.979L72.336 35.704H73.024ZM73.299 34.054H73.986V34.329C73.711 34.604 73.436 34.192 73.299 34.054ZM72.611 34.604V34.192C72.749 34.467 73.161 34.192 73.299 34.604H72.611ZM72.749 35.017C73.299 35.154 73.711 35.704 74.124 35.979C74.261 36.392 73.711 36.392 73.436 36.529H73.299C73.161 36.254 73.711 35.292 72.886 35.429H72.611L72.749 35.017ZM72.199 30.755C72.336 30.48 72.749 30.617 72.749 31.03C72.611 30.755 72.061 31.305 72.199 30.755ZM72.749 32.13L72.474 31.305C72.886 31.167 72.611 31.992 72.749 32.13ZM72.199 34.054C72.336 34.329 72.336 34.467 72.336 34.879C71.924 34.742 72.061 34.467 71.786 34.054H72.199ZM72.061 31.58C72.199 31.992 72.061 32.267 72.061 32.542C71.924 32.267 71.924 32.13 72.061 31.58ZM71.099 29.38V30.205C71.0312 30.0781 70.9958 29.9364 70.9958 29.7925C70.9958 29.6486 71.0312 29.5069 71.099 29.38ZM71.099 30.755C71.237 30.892 71.099 31.03 71.099 31.167C70.962 31.03 70.962 30.755 71.099 30.755ZM70.343 30.067C70.48 30.205 70.618 30.205 70.755 30.342L70.343 30.48C70.068 30.342 70.205 30.067 70.343 30.067ZM70.068 33.504V30.892C70.206 30.755 70.48 30.617 70.618 30.755C70.48 31.03 70.755 31.305 71.03 31.442C71.305 31.305 71.58 31.03 71.58 30.617C71.855 30.617 71.993 30.755 71.993 31.03C71.855 31.305 71.718 31.717 71.718 31.992C71.443 31.855 70.893 32.13 70.893 32.405C71.03 32.68 71.03 33.092 71.168 33.23C71.305 33.092 71.443 32.955 71.58 33.092L71.718 33.367C71.099 33.504 70.48 33.779 70.068 33.504ZM70.343 36.529L70.205 36.666V36.254L70.343 36.529ZM70.205 35.567L70.48 35.429L70.343 35.704C70.343 35.704 70.343 35.567 70.205 35.567ZM70.068 34.329L70.343 34.467H70.205L70.068 34.329ZM70.343 34.879L70.205 35.017V34.604L70.343 34.879ZM70.824 36.117C70.412 36.117 70.549 35.704 70.549 35.704C70.824 35.567 70.962 35.842 70.824 36.117ZM70.48 35.429C70.618 35.292 70.893 35.017 71.305 35.017C71.168 35.154 70.893 35.292 71.168 35.567C71.099 35.429 70.618 35.292 70.48 35.429ZM70.205 39.279L70.068 38.591C70.48 38.866 70.205 39.004 70.205 39.279ZM70.068 38.591V37.629C70.755 37.491 71.443 36.529 71.855 36.804C71.993 36.804 71.993 36.941 71.993 36.941L71.787 36.804C71.511 36.666 71.099 37.079 70.962 37.079C70.618 37.491 71.374 37.491 71.099 37.904C70.618 38.041 70.205 38.179 70.068 38.591ZM73.161 38.041L73.024 37.766H73.299C73.436 37.904 73.161 38.041 73.161 38.041ZM72.611 37.629L72.199 37.766L72.061 37.216C72.336 37.491 72.886 37.216 73.024 36.941C73.299 37.079 73.711 37.216 73.849 37.491C73.436 37.629 72.749 36.804 72.611 37.629ZM74.536 35.704C74.261 35.429 74.261 35.842 74.124 35.429C74.124 35.292 73.986 35.017 73.711 35.017C73.299 34.329 74.536 34.742 74.536 34.192C74.674 34.192 74.811 34.329 74.811 34.467L74.261 35.154C74.399 35.429 75.086 35.429 74.674 35.842C74.536 35.979 74.811 35.842 74.536 35.704ZM73.574 30.48V30.205C73.711 30.205 73.711 30.342 73.986 30.48H73.574ZM74.124 31.03H73.436C73.574 30.755 74.261 30.617 74.124 31.03ZM73.024 33.367C73.436 32.68 72.886 32.13 73.436 31.717L73.574 31.442L74.261 31.58L74.399 31.03C74.811 31.855 75.223 32.68 75.223 33.642H72.543C72.68 33.504 72.405 33.092 72.817 33.229C72.749 33.229 72.749 33.367 73.024 33.367ZM73.161 31.717C73.024 31.717 73.161 31.442 73.161 31.305C73.299 31.442 73.161 31.717 73.161 31.717ZM73.161 30.892C72.886 30.617 73.161 30.342 73.161 29.93C73.299 30.205 73.161 30.617 73.161 30.892ZM70.481 39.828L70.618 40.791L68.968 40.103L69.106 39.691L70.481 39.828ZM67.181 31.58C66.769 31.442 67.181 31.167 66.906 30.892C67.456 30.617 67.043 31.305 67.181 31.58ZM66.769 31.717C66.631 31.58 66.631 31.717 66.493 31.855C66.631 31.855 66.493 31.992 66.493 31.992V31.855C66.493 31.58 66.219 31.58 66.219 31.442C66.562 31.58 66.699 31.58 66.769 31.717ZM66.699 30.48C66.837 30.48 66.562 30.755 66.425 30.755C66.425 30.48 66.561 30.48 66.699 30.48ZM64.638 33.092C64.912 33.092 64.912 33.092 64.912 33.23L64.775 33.367L64.638 33.092ZM65.05 34.054C65.05 34.604 65.05 35.154 65.463 35.429C64.775 36.391 66.013 36.666 66.287 37.491C66.562 38.041 67.112 38.179 67.525 38.591C65.875 37.904 64.844 36.117 64.569 34.054H65.05ZM63.125 38.591L63.538 38.866L63.4 39.004C62.988 39.141 62.85 38.729 62.85 38.591C62.85 38.316 63.125 38.179 63.263 37.904C63.538 38.179 62.988 38.316 63.125 38.591ZM61.819 38.866L62.232 38.454V38.866H61.819ZM38.517 39.691L37.279 39.004C37.761 39.141 38.379 39.141 38.517 39.691ZM64.225 42.303C57.214 38.591 50.684 44.228 43.672 43.265C41.129 42.99 38.654 42.303 36.248 41.065C37.073 40.103 35.423 38.866 36.523 38.179C37.211 38.316 38.035 38.454 38.448 38.866C38.035 38.591 37.211 38.454 36.661 38.454C36.248 39.279 37.211 39.554 37.623 39.828C41.953 41.891 46.972 42.028 51.715 40.516C55.358 39.554 59.413 38.454 63.057 39.691L64.431 41.066L64.225 42.303ZM52.883 42.716C47.59 44.64 40.991 44.64 36.386 41.616C37.073 41.616 38.036 42.441 38.792 42.716C44.222 45.053 50.409 43.403 55.702 41.753C58.657 41.341 61.407 40.928 64.088 42.853L64.225 43.128C61.545 40.791 56.526 41.754 52.883 42.716ZM60.857 42.578C62.094 42.715 63.125 42.853 63.813 43.815C62.988 44.09 62.025 43.953 61.407 43.403C61.269 43.128 60.857 42.715 60.857 42.578ZM59.07 42.44C59.482 42.578 59.895 42.578 60.17 42.578V42.99C59.757 42.715 59.207 42.578 59.07 42.44ZM63.263 44.778C61.751 44.64 60.582 44.09 59.345 44.365C59.482 44.09 60.032 44.228 60.307 43.953C59.345 43.265 57.764 42.715 56.801 43.403C56.664 43.678 56.526 43.815 56.664 44.09C56.801 44.228 56.939 44.228 57.076 44.09C57.214 44.365 56.801 44.365 56.664 44.365C56.526 44.228 56.251 44.09 56.251 43.953C56.251 43.54 56.526 43.128 56.939 42.99C58.039 42.715 59.345 43.265 60.169 43.815C60.445 43.678 60.307 43.403 60.307 43.128C60.994 44.09 62.369 44.64 63.4 44.503L63.95 44.365C64.088 44.64 63.538 44.778 63.263 44.778ZM37.898 44.09C37.211 43.815 38.035 43.54 38.035 43.265C38.173 43.403 38.311 43.128 38.311 43.265L37.898 44.09ZM37.898 34.467C38.31 34.604 38.035 35.154 38.173 35.429L39.273 37.216L39.548 40.103L39.135 39.966L38.998 37.354C38.517 36.392 37.761 35.429 37.898 34.467ZM37.486 33.504C37.486 32.954 36.798 32.404 37.211 31.992C37.623 31.442 38.448 31.717 38.586 31.992C38.31 32.542 38.723 33.092 38.31 33.504C38.035 33.779 37.76 33.642 37.486 33.504ZM37.623 30.48C38.036 30.617 38.448 30.617 38.586 31.03C38.723 31.305 38.31 31.58 38.036 31.442C37.761 31.305 37.486 31.167 37.211 31.305C37.073 31.03 37.348 30.617 37.623 30.48ZM38.242 29.518C38.654 29.105 39.479 29.243 39.617 29.792C39.479 30.205 39.204 30.342 38.792 30.48C38.654 30.205 38.035 30.067 38.242 29.518ZM38.378 28.28C38.241 28.555 37.966 28.28 37.691 28.143C37.278 27.73 37.416 27.318 36.866 26.905C36.866 26.493 36.591 26.218 36.591 25.805C37.004 26.218 37.828 26.218 38.103 26.631C38.378 26.356 38.378 27.043 38.653 26.905C38.791 27.043 38.791 27.455 39.066 27.318L39.203 28.28C38.791 27.868 37.966 26.768 37.141 26.218L36.935 26.493L38.378 28.28ZM39.753 31.03C39.341 31.305 38.791 31.305 38.791 31.717C38.791 31.442 39.066 30.755 39.616 30.48C39.891 30.617 39.753 30.755 39.753 31.03ZM40.44 32.405C40.44 32.542 40.028 32.955 39.753 32.955C40.028 32.817 40.166 32.405 40.44 32.405ZM40.028 31.167L40.44 31.305C40.303 31.442 40.028 31.442 39.89 31.58L40.028 31.167ZM40.44 30.617C40.303 30.617 40.028 30.755 40.165 30.48L40.44 30.617ZM40.303 29.655C40.715 29.655 40.99 29.792 41.128 30.205L40.99 30.48C40.715 30.205 40.578 30.067 40.028 30.067C39.89 30.067 40.165 29.655 40.303 29.655ZM41.403 27.73C41.815 27.868 41.815 27.318 42.365 27.593C42.778 27.18 43.327 27.455 43.74 26.768C43.74 27.18 43.877 27.593 43.602 27.73C43.877 28.005 42.915 28.005 43.327 28.28C42.64 28.418 42.777 28.968 42.09 28.968C41.815 29.38 41.403 28.968 41.128 29.105C41.403 28.693 42.09 28.418 42.503 28.143C42.778 27.868 43.19 27.868 43.328 27.455C42.365 27.593 41.196 28.143 40.372 28.83C40.166 28.143 41.128 28.005 41.402 27.73H41.403ZM41.128 31.442L40.99 31.58C40.99 31.167 40.99 31.305 40.715 31.03V30.892C40.99 31.167 41.265 31.167 41.128 31.442ZM41.265 31.855C41.403 31.992 41.403 32.267 40.99 32.267H40.853C40.853 31.855 41.128 32.13 41.265 31.855ZM40.028 32.13L39.89 31.992C40.028 31.717 40.166 31.855 40.578 31.855C40.578 32.267 40.165 31.992 40.028 32.13ZM40.165 33.917C39.478 33.367 40.853 33.229 40.99 32.68C40.99 33.23 40.578 33.78 40.165 33.917ZM39.615 32.405C39.341 32.405 39.203 32.542 38.928 32.68C38.653 32.267 39.341 32.13 39.341 31.58C39.478 31.855 39.89 32.13 39.615 32.405ZM39.615 34.192C39.203 34.742 38.791 34.054 38.378 34.054C38.516 33.779 38.653 33.642 38.791 33.229C39.341 33.504 39.89 33.367 39.615 34.192ZM39.891 39.966C40.165 40.103 40.578 40.241 40.853 40.378C40.578 40.516 40.028 40.103 39.891 39.966ZM42.296 39.416L42.571 39.279C42.296 39.553 41.884 39.966 42.021 40.379C41.815 40.103 42.091 39.554 42.296 39.416ZM44.221 40.516C44.358 40.241 44.634 39.966 44.358 39.828C43.671 39.553 43.946 40.516 43.396 40.791C43.396 40.378 43.671 39.691 44.221 39.554C44.496 39.691 44.771 39.691 44.909 39.966L44.221 40.516ZM44.634 40.928L44.496 41.066V40.791C44.771 40.791 44.634 41.066 44.634 40.928ZM43.671 39.004C44.359 39.141 45.046 38.316 45.458 39.416L45.321 39.554C44.908 39.416 44.496 38.866 43.946 39.278C43.121 39.416 43.121 40.103 42.984 40.791C42.846 40.928 42.434 40.928 42.434 40.516C42.228 39.828 43.121 39.279 43.671 39.004ZM45.871 38.866C45.871 39.004 45.733 39.004 45.733 39.004C45.6617 38.9991 45.5945 38.9685 45.544 38.918C45.4935 38.8675 45.4629 38.8003 45.458 38.729C45.596 38.591 45.733 38.591 45.871 38.866ZM46.283 38.454L46.971 38.866L46.146 38.591L46.283 38.454ZM47.589 38.591L46.902 38.316C47.177 38.179 47.314 38.454 47.589 38.591ZM47.864 38.041C48.139 38.041 48.277 38.179 48.552 38.454L47.864 38.041ZM49.101 38.041C48.827 38.179 48.689 37.766 48.414 37.766C48.552 37.491 48.826 38.041 49.101 38.041ZM50.82 27.731C50.958 27.868 51.095 28.005 51.37 28.005C51.37 28.143 50.682 28.143 50.682 27.73C50.682 27.455 50.82 27.18 51.095 27.043C51.232 27.455 50.682 27.318 50.82 27.73V27.731ZM48.14 32.68C47.727 32.13 48.552 31.58 48.552 30.892C48.002 30.755 47.727 31.305 47.452 31.717C47.452 31.305 47.864 30.892 48.277 30.755C48.139 30.617 47.864 30.48 47.589 30.617C47.177 30.755 46.902 31.305 46.902 31.717C46.627 31.305 47.177 30.755 47.452 30.48L47.177 30.205C47.452 30.342 47.452 29.93 47.589 29.793C47.452 29.38 47.177 29.93 46.902 29.518C46.627 29.38 46.214 29.38 46.214 29.105C46.902 29.105 47.314 28.693 47.452 28.143C47.727 27.318 47.314 26.081 48.277 25.531C48.964 25.118 49.789 24.981 50.683 24.843L49.995 24.431C50.408 24.293 50.957 24.843 51.37 25.118C51.507 24.431 50.957 24.293 50.545 24.018C49.17 23.331 48.895 25.393 47.727 25.393V24.843C48.552 25.118 49.101 24.431 49.789 23.881C50.614 23.881 51.164 23.744 51.714 24.431C51.989 24.706 51.989 25.256 52.538 25.118C52.263 24.431 52.126 23.881 51.301 23.468L50.614 23.331C50.683 22.987 51.37 23.125 51.507 23.125C52.195 23.537 52.332 24.362 52.47 25.049H52.882C52.745 24.293 52.745 23.606 52.057 22.849C52.607 22.987 52.882 23.537 53.02 23.812C53.432 23.537 53.845 22.987 54.394 23.262C53.9814 23.4081 53.606 23.643 53.294 23.95C53.157 24.362 52.882 24.912 53.157 25.325C53.57 24.637 53.707 23.95 54.532 23.95C54.944 23.812 55.494 24.225 56.044 24.362C55.357 24.362 54.669 23.95 54.119 24.362C53.845 24.637 53.432 25.05 53.707 25.599C53.982 25.874 53.982 25.462 54.257 25.462C55.082 25.187 55.632 26.012 56.182 26.287C56.319 25.874 55.769 25.462 55.357 25.187C55.013 24.981 54.463 24.981 54.12 25.118C54.532 24.431 55.082 24.706 55.907 24.706L56.869 24.981C56.732 25.668 55.907 24.843 55.357 24.843C55.357 25.256 56.044 25.393 56.319 25.668C56.457 25.668 56.594 25.806 56.732 25.531V25.393L57.144 25.668L56.8 25.806L57.213 26.493C56.938 26.356 56.8 26.356 56.525 26.493L57.075 27.318C56.938 27.18 56.938 27.18 56.8 27.18C56.938 27.868 57.625 28.005 57.763 28.693C57.488 28.693 57.213 28.143 56.938 28.418C57.075 28.83 57.213 29.105 57.075 29.655C56.663 28.693 56.25 27.593 55.288 27.043C55.288 27.455 55.563 27.73 55.701 27.868C55.425 27.73 55.013 27.18 55.013 26.768L54.876 27.593C54.876 27.318 54.601 27.73 54.463 27.455C54.463 27.318 54.738 27.18 54.463 27.043C54.326 26.906 54.326 27.18 54.188 27.18L53.776 26.768C53.501 27.043 53.501 27.18 53.088 27.18C52.951 27.18 52.951 26.906 52.814 26.768L52.538 27.043C52.263 26.906 52.538 26.631 52.263 26.631L51.851 27.043C51.439 26.493 50.614 26.631 50.064 26.218C49.926 26.081 49.926 26.356 49.789 26.356C50.339 27.043 49.652 28.418 51.026 28.418C51.851 28.555 51.439 27.18 52.401 27.455V28.968C51.989 28.83 51.164 28.555 51.026 29.243L51.714 29.93C51.576 30.205 51.301 30.205 51.026 30.067C50.82 29.93 50.683 29.517 50.82 29.243C49.583 28.83 50.683 30.343 50.133 30.617C49.995 31.305 49.858 32.13 49.17 32.405C48.895 32.405 48.62 32.542 48.483 32.68C48.62 32.267 49.033 31.855 49.17 31.305C48.552 31.03 48.414 32.267 48.14 32.68ZM47.864 35.842C47.589 35.154 48.277 34.879 48.277 34.329C48.414 34.742 48.002 35.292 47.864 35.842ZM47.177 34.742C46.902 34.742 46.352 34.604 46.215 34.879C46.627 34.329 47.315 34.329 47.452 33.642C47.452 33.092 47.452 32.817 47.314 32.405C47.452 33.23 48.277 34.329 47.177 34.742ZM50.339 22.162H50.614C50.751 22.162 50.751 22.437 50.476 22.437C50.339 22.437 50.339 22.299 50.339 22.162ZM50.408 21.475H50.683V21.75H50.408V21.475ZM51.508 21.887C51.37 21.75 50.958 22.163 50.958 22.3C50.682 22.025 51.095 21.475 51.508 21.887ZM51.232 21.2C51.507 21.2 51.507 21.475 51.37 21.475H51.095C51.095 21.338 51.095 21.2 51.232 21.2ZM51.645 22.437C51.6401 22.5083 51.6095 22.5755 51.559 22.626C51.5085 22.6765 51.4413 22.7071 51.37 22.712V22.437C51.507 22.3 51.645 22.3 51.645 22.437ZM51.92 21.337C52.195 21.475 51.92 21.613 51.782 21.75L51.645 21.613C51.645 21.475 51.782 21.337 51.92 21.337ZM52.332 21.887L52.607 22.025V22.3H52.332V21.887ZM53.982 22.437C53.845 22.712 53.57 22.85 53.295 22.712C53.02 22.575 53.157 22.3 53.02 22.025C53.432 21.888 53.982 22.025 53.982 22.437ZM54.601 22.3C54.601 22.437 54.326 22.575 54.326 22.437C54.257 22.3 54.601 22.025 54.601 22.3ZM54.876 22.987C55.013 22.987 55.151 23.125 55.151 23.262C55.151 23.4 55.013 23.4 54.876 23.4V22.987ZM55.151 22.025C55.288 22.163 55.425 22.163 55.288 22.3C55.151 22.3 55.013 22.437 55.013 22.3C54.876 22.3 55.013 22.163 55.151 22.025ZM55.563 23.469C55.425 23.469 55.425 23.606 55.425 23.606C55.563 23.606 55.563 23.469 55.563 23.469C55.563 23.195 55.288 22.781 55.013 22.781L55.701 22.919C55.838 22.987 55.701 23.125 55.563 23.469ZM56.113 22.437C56.113 22.575 55.838 22.712 55.838 22.575C55.701 22.163 56.113 22.163 56.113 22.437ZM56.113 23.881L55.838 23.744C55.838 23.124 56.525 23.606 56.113 23.881ZM56.25 22.712C56.388 22.85 56.525 22.85 56.525 22.987C56.388 23.125 56.25 23.125 56.25 23.125C56.113 22.987 56.25 22.85 56.25 22.712ZM57.763 30.617L57.625 29.243C57.9 29.38 58.038 29.93 58.038 30.068L57.763 30.617ZM59.343 32.68C58.931 31.992 57.213 32.13 57.831 31.03C58.175 31.855 59.48 31.717 59.343 32.68ZM58.793 33.367C58.519 33.779 58.519 34.329 58.381 34.604C58.519 34.192 58.519 33.642 58.381 33.092C59.206 32.542 59.206 33.642 59.619 34.054C59.069 33.917 59.068 33.642 58.793 33.367ZM59.206 34.467L59.344 34.604C59.069 35.979 59.206 37.491 58.381 38.729C58.931 37.216 59.069 35.842 59.206 34.467ZM58.794 34.879C58.794 36.117 58.381 37.491 57.969 38.591C58.45 37.354 58.519 36.117 58.794 34.879ZM58.038 35.292C58.313 36.254 58.175 37.354 57.763 38.179C58.038 37.216 58.175 36.116 58.038 35.292ZM57.488 33.504C57.35 33.917 57.488 34.192 57.213 34.467C57.075 34.192 57.35 33.504 56.938 33.092C57.213 33.23 57.9 33.23 58.038 33.504C58.175 33.779 58.038 33.917 57.9 34.329C57.9 34.192 57.9 33.504 57.488 33.504ZM51.92 30.754L51.507 31.03C51.645 31.167 52.195 31.305 52.332 31.167C52.47 30.892 52.745 31.03 53.02 31.03C53.432 31.442 52.745 31.717 52.607 31.992C51.92 32.267 51.37 31.717 50.957 31.717C50.82 31.305 50.683 31.03 50.82 30.617C51.233 30.617 51.507 30.616 51.92 30.754ZM51.782 29.38C52.057 29.243 52.195 29.243 52.47 29.38C52.47 29.518 52.057 29.518 51.782 29.38ZM55.976 30.617C55.838 30.205 55.151 29.792 54.738 29.38L54.876 29.105C55.151 29.655 56.113 29.93 55.976 30.617ZM55.976 28.83C56.388 28.968 56.663 29.518 56.663 30.068L55.976 28.83ZM55.976 32.267C55.701 31.58 56.388 31.03 56.526 30.48C56.526 31.167 55.838 31.717 55.976 32.267ZM55.563 31.305L55.425 32.13C55.151 31.855 55.288 31.58 55.563 31.305ZM53.433 34.192L53.295 34.329L53.157 34.192H53.433ZM55.151 34.467C55.288 34.054 55.288 33.504 54.738 33.23H54.601C54.601 33.642 54.738 34.192 54.463 34.604C54.463 34.192 54.601 33.504 54.051 33.23C53.913 33.504 54.188 34.054 53.913 34.33L53.363 35.017C53.638 34.742 54.051 34.054 53.776 33.504C53.707 33.367 53.432 33.367 53.295 33.642C53.02 33.504 53.157 32.954 53.02 32.817C53.157 32.955 53.157 32.955 53.295 33.23C53.57 33.23 53.432 32.817 53.432 32.542C53.707 32.68 53.57 32.955 53.845 32.817L53.707 31.855C53.845 32.13 53.982 32.405 54.257 32.68C54.394 32.405 53.982 31.992 54.119 31.717C54.257 31.992 54.395 32.405 54.669 32.542L54.807 32.267C54.944 33.367 56.319 33.092 56.044 34.054C55.907 33.917 56.044 33.367 55.494 33.367H55.357C55.288 33.779 55.563 34.054 55.151 34.467ZM56.251 34.329L56.388 33.367C56.525 33.779 56.663 34.192 56.663 34.604C56.663 34.467 56.389 34.329 56.251 34.329ZM56.938 35.017L57.488 35.292L57.075 35.429L57.213 35.292L56.938 35.017ZM57.213 32.405L57.35 31.992L58.175 32.68C57.763 32.817 56.938 32.68 56.663 32.405C56.388 31.855 57.075 31.442 57.075 30.892C57.625 31.305 56.113 32.13 57.213 32.405ZM53.295 29.105C53.432 28.968 53.295 28.83 53.157 28.83C54.257 29.243 54.119 28.005 55.082 27.73C55.219 28.28 55.357 28.555 55.769 29.105C55.219 29.105 55.357 27.73 54.669 28.28C54.394 28.143 54.394 28.555 54.257 28.693V28.968C54.257 28.83 53.982 28.83 53.982 28.83C53.707 29.243 53.982 29.518 54.257 29.655C54.394 29.655 54.532 29.792 54.532 29.792C54.807 29.93 55.219 29.93 55.219 30.067C55.082 30.067 54.807 29.792 54.532 29.792C54.394 29.654 54.394 29.655 54.257 29.655C54.257 29.518 54.257 29.518 54.119 29.518C53.982 29.518 53.845 29.518 53.707 29.792C54.12 30.205 54.669 30.205 55.082 30.48C54.669 30.755 53.57 29.655 53.57 30.342L54.67 30.892L54.532 31.03L53.295 30.342C53.432 30.068 53.982 29.655 53.57 29.38C53.02 29.243 52.745 30.617 52.057 29.793C52.745 30.067 53.432 29.655 53.295 29.105ZM53.157 28.28C53.432 28.418 53.57 28.555 53.707 28.418C53.57 28.693 53.295 28.555 53.02 28.418C52.745 28.005 53.157 27.593 53.432 27.593C53.432 27.73 53.02 27.868 53.157 28.28ZM49.789 37.766C49.376 37.904 48.964 37.491 48.964 37.216L49.789 37.766ZM57.075 36.116C57.213 37.079 56.8 37.904 56.663 38.729C56.8 38.454 56.8 37.766 56.525 37.354L55.975 38.729C55.838 38.454 56.25 37.904 55.838 37.491L55.288 38.729C55.151 38.454 55.563 38.041 55.288 37.766C54.876 37.904 54.876 38.591 54.601 39.004C54.463 38.729 54.876 38.179 54.601 38.041C54.326 38.316 54.188 38.866 53.913 39.416C53.913 39.004 54.188 38.591 54.051 38.179L53.226 39.553C53.226 39.279 53.501 38.591 53.363 38.316C53.088 38.866 52.951 39.553 52.401 39.828L52.676 38.591C52.126 38.866 51.989 39.691 51.439 40.103C51.439 39.691 51.851 39.141 51.714 38.729C51.301 39.141 51.026 40.103 50.339 40.379C50.476 40.103 50.614 39.554 50.751 39.141C50.201 39.416 49.514 40.378 48.827 40.653C48.964 40.241 49.652 39.828 49.514 39.416C48.964 39.828 48.414 40.241 47.864 40.378C47.864 40.516 48.002 40.516 48.002 40.653C48.002 40.791 47.589 40.516 47.589 40.241C47.589 39.966 47.864 39.966 47.727 39.691C47.039 39.553 47.177 40.516 46.627 40.516L46.352 41.066C45.939 40.653 46.489 40.241 46.489 39.828C45.802 39.691 45.665 40.378 45.527 40.791V41.203C45.252 41.341 44.84 40.928 44.702 40.653C44.84 39.966 45.527 39.416 46.077 39.279C47.452 39.966 48.483 38.591 49.583 38.179C50.27 37.491 51.233 37.904 51.851 37.079C52.126 37.079 52.401 37.079 52.539 36.804C51.851 36.391 51.714 35.567 51.301 35.154C50.889 35.429 51.301 36.116 51.301 36.529C51.2297 36.5339 51.1625 36.5644 51.112 36.615C51.0615 36.6655 51.0309 36.7327 51.026 36.804L50.889 36.529L50.614 36.666C50.751 36.392 50.751 35.979 50.614 35.842L50.339 36.529C50.201 36.116 50.201 35.842 50.064 35.704C49.789 35.842 49.926 36.392 49.926 36.392C49.789 36.254 49.789 35.979 49.652 35.979C49.376 36.254 49.652 36.666 49.789 36.941C49.514 36.804 49.514 36.529 49.376 36.391L48.826 35.567C48.552 35.842 48.826 36.529 48.964 36.804C48.689 36.666 48.552 35.842 48.552 35.429C48.827 35.154 48.827 34.879 48.689 34.604L49.102 35.292C49.652 34.467 48.277 33.917 48.827 33.229C48.689 33.642 48.964 34.192 49.101 34.467C49.239 34.467 49.239 34.467 49.377 34.604C49.239 34.192 49.101 33.504 49.514 33.092L50.201 32.405C50.339 33.092 48.689 33.779 49.789 34.467C50.064 34.329 49.926 33.917 50.064 33.779L50.476 33.092C50.751 33.367 50.476 33.779 50.889 33.642C51.026 33.504 50.889 33.504 50.889 33.367L51.026 33.642C51.164 32.954 51.439 33.917 51.576 33.504L51.714 33.642L51.989 33.367V33.23C52.126 33.367 52.126 33.367 51.989 33.367C52.0673 33.4384 52.1161 33.5365 52.126 33.642L52.401 33.367C52.538 33.779 51.851 34.467 52.263 35.017C52.538 34.879 52.538 34.604 52.676 34.329C52.538 34.467 52.814 34.467 52.814 34.604C52.538 34.879 52.538 35.429 52.814 35.979L53.226 36.392C53.501 36.392 53.363 36.116 53.363 35.979C53.638 35.979 53.638 36.804 54.051 36.666L54.188 35.842C54.326 35.979 54.463 36.254 54.463 36.392L54.738 35.842C55.013 36.254 55.151 36.529 55.701 36.666C55.838 36.254 55.425 35.979 55.563 35.842C55.701 36.254 56.25 36.529 56.525 36.254C56.938 35.979 57.488 35.979 57.488 36.666C57.763 37.354 57.075 38.041 57.213 39.004H57.075C57.075 37.904 58.175 36.528 57.075 36.116ZM59.894 34.329C60.031 34.192 60.031 33.917 60.031 33.642C59.894 33.367 59.894 32.954 59.894 32.68C60.306 32.68 60.168 33.23 60.168 33.642C60.031 35.292 59.894 36.942 59.206 38.454C59.481 37.216 59.894 35.704 59.894 34.329ZM60.168 37.216L59.481 38.591C60.169 36.941 60.719 35.017 60.443 32.955C60.993 34.467 60.719 35.705 60.168 37.216ZM60.168 38.729C60.031 38.866 60.031 38.591 60.031 38.591C60.306 37.766 60.993 36.666 60.993 35.567C61.406 36.667 60.581 37.629 60.168 38.729ZM60.718 30.067C60.993 30.342 61.681 30.342 61.406 30.892L61.268 31.305L60.718 30.067ZM61.818 37.767C62.093 38.041 61.543 38.454 61.543 38.729L61.268 38.591L61.818 37.767ZM60.856 38.729H60.719L61.543 36.941C61.543 37.491 61.131 38.179 60.856 38.729ZM60.443 27.593C61.131 28.005 61.956 28.418 62.231 29.105C62.093 29.243 62.093 29.655 61.818 29.655C61.818 28.83 60.993 28.143 60.443 27.593ZM60.856 26.356C61.543 26.906 62.231 27.593 62.643 28.418L62.368 28.83C61.818 28.143 61.818 27.18 60.856 26.356ZM60.443 24.843C61.268 24.843 61.818 25.943 62.506 26.218C62.093 25.393 61.406 24.293 60.719 23.606C61.956 24.431 62.987 25.806 63.399 27.318C63.262 27.593 62.987 27.73 62.987 28.005C62.231 26.905 61.406 25.668 60.443 24.843ZM64.087 26.631L63.812 27.043C63.124 25.531 62.024 24.156 61.131 22.919C62.506 23.744 63.261 25.256 64.087 26.631ZM66.011 25.531C66.0061 25.6023 65.9755 25.6695 65.925 25.72C65.8744 25.7705 65.8073 25.8011 65.736 25.806L65.599 25.531C65.462 25.531 65.874 25.668 66.011 25.531ZM65.324 24.981V23.606L66.011 24.431C65.874 24.843 65.599 24.843 65.324 24.981ZM65.049 22.712L64.911 22.987C64.637 22.85 64.499 22.437 64.361 22.163C65.186 21.887 65.874 22.3 66.492 22.437C66.63 23.125 65.668 22.712 65.53 23.262C65.599 23.262 65.324 22.85 65.049 22.712ZM64.911 24.981C64.774 25.118 64.499 25.118 64.499 24.843C64.362 24.706 64.637 24.568 64.637 24.568C64.911 24.706 64.911 24.843 64.911 24.981ZM64.361 24.293H63.949C63.812 24.156 63.812 24.018 64.087 23.881C64.362 23.744 64.636 24.156 64.361 24.293ZM66.905 22.85C67.18 23.125 67.18 23.743 67.18 24.156C66.905 23.881 66.699 23.125 66.905 22.85ZM66.767 24.293C66.492 24.293 66.63 24.156 66.63 24.018L66.767 24.293ZM66.149 23.881C66.011 23.881 66.149 23.468 66.286 23.468C66.561 23.468 66.561 23.881 66.699 24.018C66.561 24.018 66.424 23.262 66.149 23.881ZM66.149 25.118L66.836 24.843L67.111 25.256L66.424 25.531L66.699 25.118H66.149ZM63.812 21.75C65.049 21.2 66.63 22.025 67.867 22.437C66.767 22.025 65.462 21.475 64.224 21.75C63.949 22.437 64.499 23.125 64.911 23.812C64.224 23.468 63.812 22.437 63.812 21.75ZM63.262 23.468C63.124 23.194 62.987 22.918 63.399 22.781C63.674 22.919 63.812 22.919 63.812 23.194C63.674 23.468 63.537 23.744 63.262 23.468ZM62.849 21.888C62.987 21.75 63.537 21.75 63.399 22.162C63.262 22.437 63.124 22.437 62.987 22.437C62.712 22.437 62.712 22.025 62.849 21.887V21.888ZM63.124 20.925C63.399 20.513 63.949 20.925 63.812 21.2C63.812 21.338 63.537 21.613 63.399 21.475C63.124 21.475 63.124 21.2 63.124 20.925ZM64.499 20.65C64.774 20.65 64.911 20.788 64.911 20.925C65.049 21.2 64.499 21.338 64.361 21.2C64.087 20.925 64.224 20.788 64.499 20.65ZM65.462 20.788C65.736 20.788 65.874 21.063 65.736 21.2C65.599 21.338 65.462 21.338 65.324 21.338C65.186 21.063 65.324 20.788 65.462 20.788ZM66.286 21.063C66.561 21.2 66.699 21.2 66.561 21.338C66.424 21.475 66.286 21.475 66.149 21.338L66.286 21.063ZM67.042 21.338C67.18 21.2 67.317 21.613 67.18 21.75H66.905C66.905 21.613 66.905 21.475 67.042 21.338ZM67.73 21.75C67.867 21.75 67.867 21.887 68.005 21.887C68.005 22.025 67.867 22.025 67.592 22.025L67.73 21.75ZM67.73 22.987C67.867 23.125 68.005 23.125 68.005 23.262C67.73 23.125 67.455 23.125 67.455 23.4V23.812C67.455 23.743 67.455 23.125 67.73 22.987ZM68.142 24.843C67.867 24.843 67.455 25.256 67.18 24.981C67.455 24.706 68.005 24.568 68.142 24.843ZM68.555 22.163C68.417 22.3 68.28 22.3 68.28 22.163C68.28 21.887 68.555 21.887 68.555 22.163ZM68.83 24.018L68.142 24.156C68.28 24.018 68.28 23.468 68.555 23.468L68.83 24.018ZM69.242 20.788L68.83 21.2C68.692 20.925 68.692 20.238 68.692 19.963C68.83 20.238 69.517 20.1 69.242 20.788ZM70.479 19.275C70.342 20.1 69.517 20.1 69.242 19.275H70.479ZM70.961 20.1C71.098 20.513 71.098 20.925 70.961 21.338C70.548 21.2 70.273 20.925 70.273 20.65L70.961 20.1ZM70.961 24.706C70.8384 24.6247 70.7233 24.5327 70.617 24.431L71.442 24.568L71.236 25.118C70.961 25.118 70.686 25.118 70.411 24.981C70.479 24.706 70.961 24.843 70.961 24.706ZM70.479 23.468L70.617 23.881L70.342 23.744L70.479 23.468ZM69.517 20.65C69.517 20.238 69.792 20.375 69.792 20.375C69.929 20.513 70.204 20.788 69.929 21.063C69.792 20.925 69.517 20.925 69.517 20.65ZM69.242 23.744C69.105 23.744 68.967 23.468 69.105 23.331L69.517 23.606L69.242 23.744ZM69.38 24.981L68.555 25.118C68.692 24.706 68.555 24.431 69.242 24.431C69.38 24.431 68.967 24.431 68.967 24.706C68.83 24.843 69.242 24.981 69.38 24.981ZM70.067 24.706C69.929 24.843 69.792 24.843 69.792 24.843H69.654C69.654 24.568 69.929 24.431 70.067 24.706ZM69.38 22.85C68.967 22.575 69.105 22.162 69.105 21.887C69.517 21.75 69.792 20.65 70.067 21.475C70.479 21.75 70.617 22.3 70.479 22.712C70.204 22.987 69.793 23.125 69.38 22.85ZM71.648 24.018H70.961L71.098 23.331C71.373 23.125 71.236 23.881 71.648 24.018ZM71.51 22.025C71.51 22.163 71.51 22.3 71.373 22.3L71.236 22.025H71.51ZM72.335 24.843C71.923 24.981 71.648 24.843 71.373 24.706C71.648 24.568 72.198 24.706 72.335 24.843ZM71.648 23.263C72.198 22.437 72.198 23.813 72.06 24.087C71.923 23.95 72.06 23.675 72.06 23.4L71.648 23.262V23.263ZM75.566 21.613C75.841 22.575 75.291 23.263 74.741 23.813C74.604 23.675 75.016 23.263 75.154 23.125C75.291 22.712 75.704 22.3 75.429 21.887C74.879 21.475 74.054 21.75 73.366 21.887L71.304 22.575C72.748 22.025 74.26 21.338 75.566 21.613ZM71.786 21.75C71.923 21.613 72.06 21.887 71.923 22.025C71.785 22.025 71.649 21.888 71.786 21.75ZM72.336 21.475C72.61 21.475 72.61 21.475 72.61 21.75V21.887C72.473 21.75 72.199 21.613 72.336 21.475ZM73.298 21.063C73.573 21.063 73.435 21.338 73.573 21.338C73.435 21.475 73.298 21.613 73.298 21.475C73.16 21.338 73.023 21.063 73.298 21.063ZM74.123 20.788C74.26 20.925 74.398 20.925 74.535 21.063C74.397 21.2 74.397 21.475 74.123 21.338C73.985 21.063 73.985 20.925 74.123 20.788ZM74.879 20.788C75.016 20.513 75.566 20.65 75.566 20.925C75.566 21.063 75.429 21.338 75.291 21.338C75.016 21.2 74.81 20.925 74.879 20.788ZM75.704 21.063C75.841 20.788 76.391 20.65 76.529 21.063C76.529 21.338 76.391 21.475 76.116 21.475C75.841 21.475 75.704 21.338 75.704 21.063ZM76.941 22.163C76.941 22.3 76.666 22.575 76.391 22.437C76.116 22.163 76.253 21.887 76.529 21.75C76.803 21.887 76.666 22.025 76.941 22.163ZM76.116 23.468C75.978 23.331 75.841 23.331 75.841 23.194C75.704 22.781 76.529 22.919 76.529 23.194C76.529 23.262 76.253 23.606 76.116 23.468ZM75.429 24.293C75.154 24.156 75.154 24.018 75.291 23.881C75.566 23.744 75.566 24.018 75.566 24.156L75.429 24.293ZM74.879 25.118C74.741 24.981 74.741 24.843 74.879 24.706C75.016 24.843 75.154 24.843 75.154 24.981C75.154 25.118 75.016 25.118 74.879 25.118ZM73.023 24.018C73.023 24.156 72.885 24.156 73.023 24.018V24.431C73.023 24.293 72.885 24.293 73.023 24.018C73.023 23.744 73.16 23.606 73.298 23.331C73.435 23.468 73.71 23.606 73.573 23.744C73.298 23.468 73.16 23.744 73.023 24.018ZM72.885 22.712C73.023 22.987 72.748 23.675 72.61 24.087C72.473 23.744 72.61 23.125 72.885 22.712ZM73.298 25.668C73.16 25.531 72.335 25.531 72.61 24.981C72.748 24.568 73.16 25.118 73.435 25.118C73.298 25.118 73.16 25.118 73.023 25.256C72.885 25.393 73.16 25.531 73.298 25.668ZM74.123 25.668L73.985 25.806L73.71 25.531L74.123 25.668ZM73.71 24.706C73.71 24.431 74.123 24.018 74.398 23.744V24.981L73.71 24.706ZM74.673 22.712C74.397 22.575 73.985 23.95 73.71 22.85C73.435 22.712 73.023 22.987 73.16 22.575C73.71 22.163 74.673 22.025 75.222 22.163C75.11 22.4939 74.9722 22.8156 74.81 23.125L74.673 22.712ZM78.866 22.437C77.491 23.95 76.803 25.462 76.185 27.249L75.978 27.18C76.391 25.53 77.353 23.468 78.866 22.437ZM76.666 27.867L76.391 27.73C76.666 26.356 77.491 25.393 78.178 24.43C77.766 25.393 77.216 26.629 76.666 27.867ZM79.484 24.843C78.247 25.531 77.56 27.18 77.216 28.555C76.666 28.005 77.491 27.318 77.628 26.631C78.041 25.806 78.453 25.118 79.484 24.843ZM79.209 27.043C78.384 27.73 77.972 28.555 77.697 29.518C76.872 28.83 77.972 28.143 78.11 27.455C78.59 27.318 78.865 27.18 79.209 27.043ZM78.316 29.93L79.141 29.243C79.141 29.655 78.453 30.343 78.316 31.03C78.316 30.617 77.903 30.205 78.316 29.93ZM78.591 37.216L78.041 37.491L78.453 37.216H78.591ZM79.484 36.116C79.072 36.254 78.797 36.529 78.797 36.804C78.866 36.529 79.072 36.116 79.484 36.116ZM79.072 32.68C79.072 33.642 78.934 34.742 79.072 35.567L78.934 35.704C78.934 34.604 78.934 33.779 79.072 32.68ZM79.759 32.542L79.622 34.742C79.484 34.742 79.484 34.742 79.484 34.879C79.484 34.329 79.484 33.092 79.759 32.542ZM80.309 34.879C80.034 34.879 79.622 35.017 79.622 35.429H79.759V35.704H79.622C79.484 35.292 80.034 34.604 80.309 34.879ZM80.309 32.405L80.172 33.779L80.034 33.917L80.309 32.405ZM80.997 34.467C81.271 34.604 80.859 34.879 80.859 35.154L80.447 35.292C80.859 35.017 80.997 34.879 80.997 34.467ZM81.134 33.504C80.721 33.504 80.584 33.917 80.584 34.329C80.584 33.917 80.722 33.367 81.134 33.504ZM80.859 32.267C80.997 32.405 80.859 32.817 80.859 33.092C80.721 32.955 80.721 32.405 80.859 32.267ZM81.684 32.817C81.959 33.092 81.821 33.504 81.546 33.642C81.409 33.642 81.271 33.917 81.134 33.779C81.409 33.779 81.959 33.367 81.684 32.817ZM81.821 31.992C81.6947 32.0565 81.5891 32.1552 81.5163 32.2769C81.4434 32.3985 81.4062 32.5382 81.409 32.68V32.817C81.271 32.542 81.409 31.992 81.821 31.992ZM82.371 31.58C82.646 31.717 82.509 32.267 82.234 32.405L81.959 32.542C82.371 32.267 82.509 31.855 82.371 31.58ZM82.509 31.03L82.096 31.167L82.234 31.03H82.509ZM84.089 29.655C84.227 29.518 84.639 29.655 84.639 30.067C84.227 30.48 83.402 30.892 83.402 31.717C83.402 32.405 84.09 33.092 84.777 33.23C84.502 32.68 83.54 31.717 84.09 31.03L84.777 30.617C84.502 31.167 83.815 31.717 84.365 32.405C84.777 32.817 85.602 33.505 85.19 34.192L85.052 34.467C84.915 32.955 82.646 33.092 83.265 31.305C83.54 30.892 83.677 30.617 83.952 30.342C83.54 30.205 83.127 31.03 82.44 30.755L81.89 30.205C82.509 30.068 83.539 30.068 84.089 29.655ZM86.014 33.092L84.64 32.13V31.58C84.915 32.405 86.014 32.13 86.014 33.092ZM85.327 30.755C87.389 31.58 88.833 32.405 90.483 33.779L90.208 34.329C88.695 33.367 87.114 32.267 85.465 31.579L85.327 30.755ZM84.227 25.805C84.64 25.943 85.19 26.081 85.465 26.218C85.19 26.081 84.502 26.355 84.227 25.805ZM87.733 30.892C87.87 30.617 87.321 30.48 87.596 30.067L87.458 29.793C87.733 29.655 87.87 30.205 88.145 30.205C88.42 30.205 89.108 30.48 89.245 29.93C89.245 29.655 88.97 29.518 88.558 29.518C89.383 29.518 90.07 29.105 90.208 28.28C90.208 27.868 90.345 27.318 90.07 26.905C89.658 27.318 89.795 28.28 89.383 28.693C89.383 28.418 89.658 28.28 89.52 27.73C89.108 28.143 88.558 28.968 87.87 28.83C88.145 28.555 88.833 28.418 89.108 27.868C88.558 28.005 88.145 28.28 87.458 28.28C87.733 28.143 88.283 27.868 88.283 27.593C88.008 27.455 87.595 28.005 87.045 27.868C87.183 27.593 87.595 27.593 87.595 27.18L86.633 27.455L87.045 26.905C86.771 26.768 86.358 27.043 86.221 27.043C86.358 26.906 86.496 26.768 86.496 26.493C85.808 26.906 84.571 26.768 83.815 26.356C83.677 26.218 83.677 25.806 83.677 25.668C83.815 25.943 84.09 26.356 84.502 26.356C84.915 26.218 85.739 27.043 85.877 26.081C85.602 25.393 84.777 25.393 84.365 25.256C83.815 24.843 83.127 24.431 83.127 23.744C83.815 24.018 84.365 23.331 85.052 23.606L86.015 24.018C86.565 24.018 87.252 23.744 87.389 24.156C87.664 24.843 88.077 25.531 88.626 25.943C88.902 25.806 89.039 25.531 88.902 25.256C89.039 25.806 89.039 26.493 88.489 26.768C88.489 26.905 88.352 26.905 88.489 27.043C89.726 27.043 89.314 25.668 89.864 24.981L90.001 24.568C90.414 25.256 90.276 26.081 90.414 27.18C90.826 26.906 90.826 26.218 90.826 25.668C90.964 26.356 90.826 27.18 90.964 27.73C91.239 27.593 91.239 27.043 91.376 26.768C91.514 27.18 91.101 27.73 91.239 28.28C91.514 28.005 91.651 27.593 91.789 27.318C91.789 28.005 91.514 28.143 91.514 28.83C91.926 28.968 92.201 28.28 92.339 28.005C92.339 28.693 91.651 28.968 91.514 29.518C92.064 29.655 92.339 29.105 92.476 28.83C92.338 29.518 91.651 29.93 91.376 30.342C91.789 30.48 92.201 30.068 92.476 29.792C92.201 30.342 91.651 30.617 91.239 31.03C91.514 31.305 92.064 30.755 92.201 30.755L90.964 31.58C91.239 31.855 91.514 31.717 91.926 31.58C91.651 31.717 91.101 31.992 91.514 32.267C91.376 32.542 90.689 32.267 90.689 32.68C90.826 32.817 90.826 32.817 90.826 32.955C90.826 32.817 90.689 32.68 90.689 32.68C90.414 32.267 89.726 32.542 89.589 31.992C89.726 32.13 90.001 32.267 90.001 32.13C90.276 31.992 90.139 31.717 90.001 31.58C89.864 31.442 90.276 31.167 90.001 30.892C89.589 30.48 89.314 31.305 89.039 31.03C88.901 31.167 88.489 31.442 88.764 31.442C88.352 31.305 88.077 31.167 88.077 30.755C87.527 30.892 87.252 30.48 86.839 30.342C87.183 31.03 87.596 31.167 87.733 30.892ZM84.503 28.005C84.4386 28.1315 84.34 28.2373 84.2183 28.3103C84.0966 28.3834 83.9569 28.4207 83.815 28.418C83.127 28.28 83.127 27.455 82.44 27.043C82.852 27.318 83.265 27.73 83.677 27.73C83.815 27.455 83.677 26.905 83.54 26.63C83.677 27.043 83.815 27.318 83.815 27.73C83.677 28.005 83.54 27.868 83.402 27.868V28.005C83.54 28.28 83.952 28.418 84.227 28.143C84.64 27.868 84.365 27.318 84.365 27.043C84.64 27.18 84.641 27.73 84.503 28.005ZM84.09 20.65C85.19 21.338 86.496 22.3 87.596 23.125C87.458 23.262 87.321 23.675 87.183 23.262L84.09 20.65ZM88.558 22.987C88.283 23.675 88.145 24.087 88.283 24.775C88.008 24.775 88.008 24.362 87.87 23.95C87.733 23.468 88.145 23.125 88.558 22.987ZM88.283 21.887L88.558 22.575H88.283V21.887ZM89.383 22.437V23.4L89.245 23.125C88.97 23.262 88.695 23.95 88.695 24.362C88.695 23.881 89.108 22.85 89.383 22.437ZM89.658 24.706L89.52 25.393C89.383 25.256 89.658 24.843 89.658 24.706ZM89.658 24.293C89.52 24.018 89.383 23.881 89.383 23.606L89.658 24.293ZM90.208 23.743C90.345 24.018 90.345 24.293 90.62 24.431C90.758 24.293 90.895 24.018 91.032 23.743C91.307 23.469 91.445 23.469 91.857 23.469C91.445 23.743 90.895 23.881 90.757 24.293C90.62 24.568 90.757 24.706 91.032 24.843C91.239 24.431 91.376 24.018 92.063 23.881C92.476 23.744 92.751 24.293 93.026 24.431L93.301 24.156L93.576 24.706C92.888 25.118 92.339 23.331 91.514 24.431C91.376 24.706 91.101 24.843 91.376 25.256L91.514 25.393C91.651 25.118 91.789 24.706 92.201 24.706C92.613 24.843 93.438 25.531 93.851 24.981L94.126 24.706C93.988 24.981 93.988 25.393 93.576 25.393C92.888 25.393 92.063 24.293 91.514 25.256C91.651 25.531 91.651 25.531 91.789 25.668C92.476 24.981 93.301 26.218 94.057 25.806L94.469 25.668C94.194 25.806 94.194 26.356 93.782 26.218C93.644 26.493 94.194 26.906 94.469 26.906C93.644 26.906 92.957 26.081 92.339 25.943C92.063 25.943 91.926 26.218 92.201 26.356C92.339 26.768 92.613 26.356 92.751 26.63C93.713 27.868 95.294 27.318 95.294 29.105C94.744 28.418 93.92 28.28 93.164 27.868L93.851 28.005C93.713 27.593 93.163 27.18 92.751 27.043C92.613 27.318 92.888 27.593 93.026 27.73L92.888 27.868V28.143C93.026 28.28 93.026 28.28 93.026 28.418C93.851 28.968 95.088 29.38 95.156 30.342C94.056 29.93 93.507 29.242 93.026 28.418L92.888 28.005L92.751 27.868C92.4003 27.336 92.0792 26.7852 91.789 26.218L90.139 24.156V23.744L90.208 23.743ZM91.032 22.575C91.307 22.575 91.72 22.712 91.857 22.987C91.445 22.85 91.032 23.125 90.757 23.262C90.62 22.987 90.757 22.712 91.032 22.575ZM94.95 31.58C94.676 30.755 93.576 30.068 93.163 29.105C93.713 29.793 94.126 30.342 94.95 30.617C94.95 30.892 95.088 31.305 94.95 31.58ZM93.3 30.205L94.263 31.305C93.851 31.167 93.3 30.617 93.3 30.205ZM92.201 34.879C92.063 34.742 91.514 34.329 91.239 34.467C91.376 34.192 92.064 34.329 92.201 34.879ZM92.613 35.704L92.338 35.842C92.201 35.842 92.063 35.704 91.926 35.567C91.788 35.429 91.514 35.292 91.651 35.017C91.514 35.429 92.062 35.567 92.338 35.842C92.475 35.842 92.613 35.842 92.613 35.704ZM93.576 33.23H93.851C94.676 34.604 96.257 35.292 97.081 36.666C97.356 37.216 96.531 37.079 96.531 37.491C96.119 37.079 96.119 36.391 95.707 35.841C95.157 34.879 93.438 35.017 93.782 33.641C93.095 33.367 93.507 34.329 93.37 34.467C93.095 34.604 92.545 34.879 92.545 34.467C92.751 33.917 93.302 33.779 93.576 33.23ZM98.319 38.591C97.356 39.416 97.356 38.316 96.944 37.766L97.219 37.354L98.319 38.591ZM94.401 40.378C94.951 39.966 94.263 39.004 95.088 38.728C95.363 37.904 94.676 37.354 94.813 36.529C94.676 35.704 93.713 35.842 93.851 35.154L93.576 34.879C94.263 35.017 95.088 35.429 95.638 36.117C95.913 36.941 96.325 37.767 97.013 38.179C97.013 38.866 97.15 40.103 97.838 40.516C96.875 40.791 95.432 40.791 94.194 40.791C93.851 40.516 94.401 40.653 94.401 40.378ZM94.126 39.416C94.263 39.416 94.263 39.691 94.263 39.828C94.126 39.966 94.126 40.241 93.851 40.241C94.126 40.103 94.263 39.691 94.126 39.416ZM93.851 36.941C93.713 37.216 93.713 37.766 93.988 38.041C93.713 37.904 93.576 37.629 93.713 37.354L93.851 36.941ZM93.713 36.116C93.988 35.979 94.263 36.392 94.401 36.529C94.263 36.529 93.851 36.116 93.713 36.116ZM94.401 37.766C94.538 37.766 94.538 38.041 94.538 38.454L94.401 38.591C94.401 38.729 94.263 38.729 94.263 38.729L94.401 38.591C94.4688 38.4641 94.5042 38.3224 94.5042 38.1785C94.5042 38.0346 94.4688 37.8929 94.401 37.766ZM93.713 38.729C93.851 38.591 93.713 38.591 93.851 38.454C93.713 38.729 93.576 39.141 93.713 39.554C93.438 39.416 93.576 38.866 93.713 38.729ZM92.888 36.117L93.026 35.842C92.888 36.254 93.438 36.529 93.713 36.666C93.301 36.804 93.026 36.393 92.888 36.117ZM92.613 35.292C93.026 35.292 93.301 35.429 93.438 35.704V35.842C93.301 35.704 93.163 35.017 92.613 35.292ZM90.62 35.292C91.445 35.429 90.758 36.392 90.758 36.666C90.483 37.079 90.345 37.629 89.795 38.041C90.07 37.354 90.757 36.392 90.62 35.292ZM91.514 35.704C92.339 35.979 91.514 36.666 91.376 36.941L90.964 37.354C91.239 36.941 91.376 36.392 91.514 35.704ZM90.757 34.742L90.62 34.467C90.483 34.467 90.483 34.467 90.483 34.329L90.62 34.467C90.758 34.742 91.445 34.879 91.445 34.879C91.239 35.154 90.895 34.879 90.757 34.742ZM84.365 34.054C84.777 34.467 84.227 35.017 84.365 35.704C83.952 35.292 84.502 34.604 84.365 34.054ZM82.784 32.13C82.784 32.542 83.471 33.23 83.746 33.504C83.471 33.504 83.196 33.367 82.784 33.23V32.13ZM79.622 36.529C80.034 36.391 80.309 35.842 80.309 35.567C80.584 35.842 80.172 36.254 80.034 36.392L79.622 36.529ZM78.728 37.629C79.14 37.491 79.416 37.354 79.416 36.941C79.691 37.079 79.278 37.354 79.278 37.629C78.934 37.629 78.866 37.766 78.728 37.629ZM78.453 38.179C78.316 38.454 78.178 38.591 78.041 38.729H77.628C77.766 38.729 78.316 38.591 78.453 38.179ZM90.758 39.416C88.214 40.241 86.289 39.828 83.884 38.729C83.884 37.629 83.059 36.666 82.784 35.567C82.371 35.842 82.646 36.392 82.646 36.804C82.784 37.491 83.334 38.179 83.196 38.729C81.684 38.729 79.966 38.591 78.316 38.866C78.453 38.591 78.591 38.866 78.866 38.729L78.728 38.179C79.003 38.316 79.003 39.004 79.416 38.591C79.553 38.316 79.14 38.179 79.278 37.904C79.553 38.179 79.416 38.866 80.103 38.591C79.965 38.179 79.553 37.629 79.691 37.216C79.965 37.491 79.965 38.729 80.653 38.454L79.965 36.941L80.103 36.804C80.378 37.354 80.378 38.316 81.065 38.591C81.203 38.729 81.203 38.591 81.34 38.454C80.928 37.629 80.653 37.079 80.515 35.979C80.79 36.804 81.065 38.041 81.753 38.591C82.165 38.454 81.753 38.179 81.753 38.041C81.478 37.216 80.79 36.254 81.065 35.154C81.478 36.254 81.478 37.629 82.44 38.591H82.578C82.165 37.216 81.615 35.704 81.615 34.054C81.753 34.054 81.753 33.917 81.89 33.917C82.028 35.429 82.165 37.217 82.99 38.591C83.54 37.904 82.578 37.216 82.578 36.391C82.44 35.291 82.165 34.329 82.715 33.367C82.99 33.779 83.677 33.779 84.227 34.054C84.09 34.467 83.815 35.429 84.365 35.842L85.052 36.666C85.327 36.392 85.19 35.842 85.19 35.429L85.327 35.567C85.465 35.017 86.015 34.329 86.152 34.054C86.152 34.329 86.152 34.467 86.427 34.742L86.564 34.604L87.114 32.68C88.489 33.504 89.245 34.054 90.483 35.017C90.758 35.842 90.345 37.079 89.658 37.767C89.658 37.354 90.07 36.941 90.07 36.391C90.208 36.117 90.208 35.567 90.07 35.291C89.245 35.154 89.795 36.391 89.52 36.666C89.245 36.804 89.383 37.354 88.97 37.491C88.833 37.079 89.52 36.666 89.383 35.841C89.108 35.704 88.695 35.841 88.695 36.117C88.833 36.529 88.42 36.941 88.42 37.217C88.145 37.079 88.97 35.292 88.008 36.392C88.008 36.666 87.87 36.942 87.733 37.216C87.321 36.941 88.008 36.391 87.458 35.979C87.045 36.254 87.32 37.079 86.771 37.079C86.908 36.666 87.045 36.117 86.771 35.842C86.289 35.704 86.289 36.117 86.427 36.117L85.739 35.429C85.327 36.117 86.289 36.666 86.152 37.216C86.564 37.629 87.114 37.216 87.664 37.491C88.901 37.766 89.726 38.866 91.032 38.866C91.307 39.279 91.445 39.554 91.307 40.103C91.17 40.791 90.345 40.516 89.933 40.378C90.208 40.103 90.895 40.378 91.17 39.691L90.758 39.416ZM92.476 40.791C92.201 40.928 91.651 40.791 91.514 40.653C92.201 40.241 91.789 39.553 91.789 38.866C91.514 38.454 90.964 38.041 90.551 38.179C91.376 37.766 92.063 36.941 92.476 36.254C92.751 36.529 93.026 36.941 93.438 37.079C93.163 37.766 93.851 38.179 93.163 38.729C93.576 39.691 92.338 39.829 92.476 40.791ZM93.026 40.791C92.751 40.653 93.026 40.103 93.163 39.966L93.301 39.828C93.301 39.966 92.888 40.378 93.026 40.791ZM98.456 39.004C98.456 39.416 99.144 39.966 98.594 40.241C98.181 40.378 97.769 40.103 97.631 39.966C96.806 39.004 98.181 39.691 98.456 39.004ZM100.312 39.828C100.45 40.378 99.625 40.378 99.35 40.516C99.35 39.966 99.9 39.966 100.312 39.828ZM101.412 32.405C100.862 32.542 100.175 32.542 100.037 31.992C99.625 31.305 101.137 30.755 99.9 30.067L99.212 29.243L99.35 29.105C99.625 29.38 99.9 29.793 100.175 30.067C100.312 29.655 99.9 29.243 99.762 28.83C100.037 28.693 100.175 29.518 100.45 29.793L100.587 29.655C100.45 28.968 100.312 28.418 100.45 28.005L100.725 30.068C101.412 30.068 102.099 30.48 102.099 31.03C102.099 31.855 101.824 32.267 101.412 32.405ZM99.9 30.892L98.525 29.93C99.281 29.655 99.487 30.48 99.9 30.892ZM100.312 27.73C99.762 28.418 98.937 28.968 98.387 29.243C98.869 28.693 99.625 28.005 100.312 27.73ZM97.769 27.18C97.219 27.043 97.081 26.356 96.532 26.218V25.806C96.807 25.943 97.219 26.081 97.356 25.806C97.631 26.081 98.181 26.081 98.456 25.943L99.144 27.73C98.869 27.593 98.181 27.73 97.769 27.18ZM101.687 27.318C102.237 27.18 102.237 26.493 102.649 26.356C102.649 25.668 103.474 25.668 103.474 25.118C103.749 25.393 103.199 25.806 103.612 26.081C102.787 26.768 102.924 27.593 102.237 28.143C102.237 28.693 101.549 28.83 101.275 29.38C101.275 28.555 101.55 28.005 101.687 27.318ZM35.285 36.666C34.735 36.666 34.872 37.216 34.323 37.354C34.185 37.904 33.498 37.766 33.36 38.316C33.223 38.179 33.223 37.629 32.948 37.629C33.085 36.941 32.673 36.529 33.085 35.842C33.635 35.292 34.46 34.604 35.354 35.017C34.529 35.429 33.291 36.529 33.429 37.629C33.979 36.804 34.804 36.117 35.697 35.567C35.697 36.117 35.285 35.978 35.285 36.666ZM35.56 33.23C34.735 32.267 33.91 30.892 33.429 29.655C33.291 31.03 34.116 31.992 34.804 33.092C33.842 33.23 34.116 32.13 33.429 31.855C33.567 31.58 33.154 31.305 33.017 31.03C32.742 30.205 32.879 29.518 33.154 28.693C33.429 29.243 34.116 29.518 34.391 30.067C34.941 29.93 34.666 30.755 35.079 30.755C35.354 30.892 35.216 31.442 35.491 31.442C35.422 32.13 35.835 32.68 35.56 33.23ZM43.121 32.817C43.259 32.267 43.946 32.542 44.221 32.405C44.358 33.092 43.946 33.367 43.396 33.779C43.259 34.329 42.571 34.329 42.159 34.742C42.571 34.192 43.396 33.642 43.671 32.817C42.846 33.092 42.434 33.779 41.884 34.329C42.09 33.642 42.571 33.092 43.121 32.817ZM42.571 35.567C43.259 35.292 43.809 35.842 44.496 35.704C44.634 36.117 45.046 36.117 45.183 36.117L45.458 36.529C44.496 36.941 43.534 37.216 42.64 36.391C42.365 36.529 42.365 36.254 42.228 36.117C43.053 36.392 44.152 36.667 44.771 36.529C44.496 35.842 43.259 35.842 42.571 35.567ZM97.081 32.68C97.219 33.917 98.456 34.054 99.35 34.742L100.037 35.017C99.625 35.154 99.075 35.429 98.663 34.879C97.838 35.292 97.7 34.467 96.875 34.467C96.738 34.054 96.05 33.779 96.188 33.23C96.1215 33.1538 96.0848 33.0561 96.0848 32.955C96.0848 32.8539 96.1215 32.7562 96.188 32.68C95.913 31.992 96.463 31.855 96.325 31.167L96.738 31.442V31.305C96.875 31.855 97.425 31.855 97.7 32.405C97.838 32.542 98.113 32.68 98.25 32.542C98.387 32.817 98.662 33.23 99.075 33.23C99.212 33.917 100.175 33.917 100.312 34.742C99.35 34.192 97.905 33.779 97.081 32.68ZM103.818 31.717C104.368 31.855 104.643 31.305 104.918 30.892C105.605 30.892 105.743 30.067 106.155 29.518C106.567 29.38 106.98 29.105 107.117 28.555C107.53 29.518 106.98 30.205 106.705 31.03C106.705 31.58 105.88 31.855 105.743 32.405L103.955 32.817C104.918 32.13 106.018 31.442 106.636 30.342C106.499 30.205 106.774 30.068 106.499 30.068C105.674 31.03 104.574 31.992 103.543 32.542C103.405 32.267 103.68 31.992 103.818 31.717ZM108.148 39.004L108.423 38.866L108.011 38.179L108.148 38.041L107.461 37.354L107.736 37.216C107.599 36.941 107.324 36.804 107.324 36.529C107.736 36.116 106.636 35.979 106.774 35.567L107.186 35.429L106.499 35.017C106.361 34.879 106.224 34.742 106.499 34.604C106.224 34.192 105.399 34.329 105.261 33.779C104.437 33.642 103.337 33.642 102.581 33.779C102.581 33.642 102.443 33.504 102.581 33.504C103.818 33.092 105.124 33.367 106.086 32.542C105.811 31.992 106.774 31.58 107.049 31.03C106.636 30.48 107.461 30.067 107.461 29.243C107.186 28.83 107.186 28.28 107.324 27.73L107.186 27.593C106.774 28.005 106.361 28.968 105.674 28.83C105.399 29.38 105.261 29.93 104.849 30.205L104.712 29.93C104.437 30.342 104.299 30.755 104.024 31.03C103.887 31.167 103.749 31.167 103.749 31.03C103.749 31.03 103.612 30.755 103.612 30.892L102.374 32.955C101.687 32.267 102.512 31.717 102.374 31.03C102.512 30.342 101.687 30.205 101.275 29.792L102.924 28.005L102.649 27.73L103.474 26.768L103.337 26.631C103.474 26.218 104.024 25.943 104.162 25.393C103.749 24.981 104.299 24.156 103.887 23.468C103.337 23.606 103.474 24.431 102.924 24.843C102.787 25.668 102.099 25.531 101.962 26.356C101.412 26.356 101.275 27.18 101.137 27.456L100.862 26.493L99.625 27.455C99.212 26.768 99.212 25.943 98.387 25.393C98.112 25.943 97.425 25.393 97.15 25.393C96.738 25.668 96.188 25.256 95.638 25.118L96.05 25.943C95.363 26.768 96.738 26.356 96.6 27.043C96.875 27.18 97.288 27.18 97.425 27.455C97.563 27.868 98.25 27.73 98.8 27.868C98.387 28.555 97.288 28.83 97.288 29.793C98.076 30.0534 98.8013 30.4747 99.418 31.03C99.418 31.442 99.418 31.992 99.556 32.405C99.968 32.68 100.381 33.092 101.068 32.955C101.343 33.642 101.756 34.467 101.481 35.292C100.931 34.879 100.381 34.054 99.968 33.367L99.694 33.504C99.281 33.23 99.144 32.68 98.869 32.404C98.456 32.817 98.181 31.58 97.631 32.13C97.494 31.167 96.806 31.717 96.669 30.755C96.257 30.892 95.982 30.342 95.707 30.067C95.569 30.48 95.844 30.892 95.707 31.305L95.432 31.442C95.569 31.855 95.707 32.267 95.294 32.542C95.432 32.955 95.844 33.504 95.432 33.504C95.569 33.917 96.532 33.917 96.119 34.467C96.531 34.604 97.081 34.742 97.219 35.154L98.044 35.292C98.319 35.292 98.869 35.567 98.456 35.979L98.869 35.842C99.419 35.567 100.381 35.292 100.931 35.979C101.343 36.941 100.518 37.766 100.381 38.729L98.869 39.829C98.594 38.729 98.456 38.041 97.494 37.354C97.081 35.292 94.814 34.879 93.988 33.23C92.613 31.855 92.613 34.742 91.308 33.917L91.72 33.367C91.857 33.504 92.132 33.779 92.27 33.642C92.132 33.367 91.995 32.817 92.132 32.68L92.545 32.955C92.957 32.542 92.27 32.405 92.407 31.855C92.682 32.267 93.095 32.68 93.644 32.68C93.507 32.267 92.682 31.717 92.82 31.167C93.232 31.855 94.332 31.992 94.057 32.955C94.332 33.23 94.332 32.955 94.744 33.092L95.019 31.167H95.569C95.294 30.205 96.119 28.28 94.744 27.73L95.294 26.905L94.469 26.768C94.882 26.218 95.432 25.531 95.157 24.981C94.744 25.118 94.744 25.806 94.194 25.668C94.469 24.981 94.057 24.156 93.507 23.606C93.301 23.468 93.301 22.987 93.026 22.987C92.888 23.262 93.301 23.4 93.163 23.812L92.613 22.987L92.476 23.675C92.063 23.4 91.926 22.85 91.376 22.712C90.689 22.437 90.276 22.987 89.864 23.262C89.726 22.712 89.726 22.162 89.314 21.75C89.039 22.163 89.039 22.437 88.764 22.575C88.626 22.437 88.352 22.163 88.489 21.887C88.352 22.025 88.214 21.475 87.802 21.475C87.527 21.887 87.527 22.437 87.527 22.85C85.877 21.887 84.021 20.513 82.371 19.413H81.959L81.821 19.688L86.564 23.95C85.739 24.637 85.052 23.125 84.158 23.537C83.746 23.95 83.196 23.4 82.784 23.95C82.096 24.775 83.334 25.187 83.471 25.737L83.334 26.012C83.471 26.424 82.784 26.837 82.921 27.249C82.234 27.112 81.684 27.387 81.271 27.662L81.409 27.799C81.546 27.662 81.684 27.937 81.684 27.799C82.921 27.524 82.646 29.724 84.09 29.174C84.777 28.899 85.052 28.212 84.915 27.387C85.327 27.524 85.877 27.662 86.289 28.074C87.252 28.211 87.114 29.174 87.389 29.861C87.252 30.136 86.839 30.136 86.977 30.274L86.702 30.136C86.427 30.274 86.427 30.549 86.564 30.824H86.427C86.289 30.617 85.739 30.617 85.739 30.205C85.602 30.342 85.465 30.48 85.327 30.342C85.739 30.342 85.602 29.93 85.602 29.518C85.327 30.205 84.777 29.105 84.227 29.38C83.402 30.068 82.577 29.518 81.684 30.205C81.409 30.617 81.271 30.892 81.271 31.167C81.546 31.03 81.684 30.617 81.959 30.892L81.546 31.717C80.584 32.13 79.622 32.542 78.866 32.542C78.728 31.167 79.416 30.067 80.378 28.968C79.69 28.83 79.003 29.243 78.453 29.655C78.728 28.555 79.691 27.455 80.584 26.905C79.897 26.631 79.072 27.043 78.522 27.18C78.797 25.943 79.897 25.393 81.065 25.256C80.378 24.568 79.415 24.981 78.797 24.981L79.484 24.156L78.659 24.293L79.072 23.468C79.347 22.918 80.309 22.644 80.447 22.094C77.903 22.506 76.666 25.118 75.979 27.455L74.741 26.355C74.879 26.218 75.016 25.943 75.291 25.943C75.704 25.943 75.841 25.393 75.841 25.256C76.116 25.118 76.529 24.843 76.391 24.431C77.353 24.706 76.941 23.331 77.628 23.056C78.041 22.369 76.941 22.231 77.353 21.681C77.216 21.269 77.078 20.994 76.666 20.856C76.253 20.994 76.116 20.719 75.704 20.719C75.291 20.856 75.016 20.856 74.329 20.856C74.054 21.681 73.367 20.719 73.092 21.544C72.404 21.406 72.267 21.956 71.717 21.819V19.825L71.167 20.1L71.442 19.55L68.555 19C68.555 19.275 68.83 19.275 68.83 19.55L68.417 19.413L68.28 21.475C68.142 21.338 68.005 21.2 67.592 21.338C67.455 20.788 66.767 21.338 66.63 20.65C66.08 20.925 65.943 20.1 65.393 20.238C64.98 20.925 64.843 19.963 64.293 20.1C63.881 20.925 63.056 19.825 62.781 20.788C63.056 21.475 62.093 21.613 62.368 22.3C62.643 22.575 62.781 22.85 62.643 23.262C62.781 23.675 63.056 23.95 63.468 23.812V24.087C63.605 24.362 63.743 24.5 64.155 24.5C63.881 25.462 65.255 24.912 65.255 25.737L64.293 26.424C63.468 24.362 61.75 22.3 59.687 22.025L60.65 22.85L60.787 22.987V23.125L60.65 22.85L60.375 23.125C59.962 22.85 59.412 22.575 59 22.575C59.206 23.125 60.306 23.606 60.581 24.431C60.031 24.293 59.206 24.018 58.656 24.293C59.344 24.843 60.168 25.256 60.719 25.943L59.619 25.668C60.031 26.356 60.993 27.043 61.131 27.73C60.443 27.455 59.756 27.043 59.069 27.18C60.031 27.868 61.199 28.83 61.131 30.205C60.443 29.655 59.756 29.105 59.069 29.243C60.306 30.068 60.993 31.167 60.993 32.68C59.756 33.092 59.619 31.58 58.588 31.442C58.313 31.03 58.313 30.48 58.45 29.93C58.313 29.243 58.175 28.143 57.763 27.593L58.038 27.455C57.763 27.043 57.763 26.081 57.213 25.668C57.35 25.531 57.488 25.256 57.35 25.118C57.075 25.256 56.8 24.843 56.663 24.706C56.113 24.568 56.525 24.018 56.525 23.881C56.663 23.468 56.938 22.644 56.388 22.369C55.838 21.956 55.013 21.956 54.326 21.956C54.188 21.681 54.463 21.131 54.326 20.856C53.913 21.131 53.913 21.131 53.501 21.544C53.638 21.819 53.913 21.956 53.776 22.231L53.226 21.681L52.745 22.025L52.607 21.888L53.157 21.338L52.607 20.513L52.332 21.613C51.645 21.2 50.82 20.788 50.064 21.2C49.376 21.75 50.064 22.712 49.376 23.262C48.689 23.262 48.552 24.087 48.139 24.5C47.727 24.912 47.314 24.018 47.039 24.43C46.9043 24.6342 46.8324 24.8734 46.8324 25.118C46.8324 25.3626 46.9043 25.6018 47.039 25.806C46.902 26.768 47.177 27.868 46.352 28.556C45.939 28.83 45.527 28.556 45.39 28.28C45.115 28.693 45.252 29.38 45.665 29.792L45.252 30.067L46.214 30.755C45.527 31.167 46.077 31.992 45.664 32.542C45.94 33.092 45.802 33.504 46.352 34.054L45.939 34.467C45.665 34.879 46.077 35.292 46.077 35.567C46.764 35.842 46.214 35.017 46.764 35.154C47.039 35.154 47.177 35.429 47.177 35.567C47.452 36.254 48.002 36.667 48.414 36.804C48.277 36.391 48.139 35.842 48.277 35.429C48.414 35.979 48.964 36.804 48.277 37.216L45.596 38.316C44.084 38.866 41.953 38.041 41.54 40.103L39.89 39.141C40.166 38.179 38.928 36.666 40.303 35.979C41.265 35.704 41.815 36.666 42.433 37.079C43.121 36.804 43.396 37.629 44.083 37.766C44.083 37.079 44.771 37.904 44.908 37.491C45.596 37.629 45.596 37.079 46.283 37.079C46.421 36.666 45.458 36.666 45.733 36.117H45.596C45.321 36.117 44.908 35.979 44.908 35.704H44.358C44.084 35.292 43.534 35.842 43.396 35.292C42.571 35.154 42.021 35.704 41.471 35.704C42.021 35.292 42.709 34.879 43.121 34.467C43.259 34.329 43.809 34.192 43.671 34.054C44.496 33.642 44.496 32.542 44.634 31.854C44.221 31.854 43.946 32.542 43.396 32.267C42.984 32.955 42.021 32.542 42.021 33.367C41.609 33.367 41.609 34.192 41.196 34.054L41.471 34.467C41.059 35.292 39.547 35.292 39.203 35.979C38.928 35.567 38.378 35.154 38.653 34.604C38.928 34.742 39.341 34.879 39.615 34.742C40.028 34.054 40.99 34.054 41.128 33.504C41.403 33.23 41.128 32.68 41.54 32.404C41.953 31.717 41.54 31.03 41.403 30.48C41.54 29.93 40.99 29.38 40.578 29.243L41.953 29.518C42.365 29.243 42.915 29.243 43.19 28.693C43.877 28.418 43.877 27.73 44.152 27.18L44.015 25.943C43.602 26.081 43.19 27.043 42.64 26.768C42.228 27.318 41.815 27.043 41.403 27.455C40.853 27.18 40.578 28.143 39.89 28.143L39.753 28.968L39.616 28.83C39.478 28.28 39.616 27.455 39.341 26.906C39.066 27.043 39.066 26.493 38.791 26.356C38.378 26.493 38.378 25.806 38.103 26.081C37.553 25.806 36.729 25.531 36.041 25.531C36.316 26.218 36.316 26.768 36.866 27.318C37.004 27.593 36.729 27.73 37.141 27.868C37.141 28.693 38.241 28.555 38.653 28.693C38.103 28.83 37.691 29.105 37.553 29.93C36.179 30.205 37.003 31.58 36.591 32.405C36.729 33.092 37.004 33.779 37.553 34.192L37.416 35.017L35.972 34.054L36.11 32.542C35.835 32.13 35.835 31.717 35.835 31.305C35.422 31.167 35.147 30.48 34.873 29.93L34.598 30.067C34.185 29.38 33.36 28.693 32.948 28.143L32.81 28.418C32.948 28.555 32.535 28.83 32.673 28.693L32.398 28.968C32.535 29.518 32.261 29.655 32.398 30.068C32.398 30.205 32.535 30.48 32.261 30.48L32.535 31.167C32.261 31.58 32.81 31.717 32.948 31.992C32.81 32.68 33.773 32.542 33.498 33.23C34.46 33.642 35.56 34.192 36.041 35.017C35.216 35.017 34.666 34.742 33.911 34.879C33.635 35.429 32.948 35.017 32.948 35.704C31.986 35.842 32.535 36.392 32.261 37.079C32.535 37.216 32.398 37.766 32.535 38.041C32.948 38.179 32.81 38.866 33.223 39.279C33.36 38.866 33.498 38.591 33.91 38.316C34.46 38.316 34.46 37.354 35.147 37.354C35.147 36.941 35.835 37.216 35.697 36.666C36.247 36.392 36.11 35.429 36.935 35.566C38.172 36.116 38.585 37.354 38.722 38.316C37.897 38.041 36.797 37.491 36.179 38.179C35.559 38.866 36.247 39.553 36.247 40.241C36.385 40.653 35.697 41.203 35.972 41.753C36.247 42.578 37.21 42.715 37.897 43.128C37.76 43.54 37.072 43.815 37.347 44.228C37.622 44.64 38.035 44.915 38.309 44.915C38.309 44.365 38.722 43.953 38.997 43.54C39.959 43.953 41.127 44.228 42.09 44.365C47.108 45.74 51.714 43.403 56.388 42.578L55.975 43.265C55.838 43.678 55.975 44.365 56.388 44.503C56.8 44.778 57.35 44.778 57.763 44.365C58.038 44.09 57.9 43.54 57.625 43.403C58.313 43.403 58.725 43.54 59.275 43.678C58.725 44.228 58.45 44.503 58.45 45.19C60.375 43.953 62.23 45.603 64.43 45.053C65.943 44.365 64.568 42.578 65.118 41.478L66.08 42.166C65.805 42.578 65.805 42.99 65.805 43.403C65.943 43.815 66.218 44.09 66.63 44.09C67.455 43.265 67.592 44.64 68.142 44.915C68.417 45.053 68.967 45.053 69.38 44.915L70.067 45.19C70.479 44.778 70.892 45.053 71.442 45.053C72.129 44.915 72.129 44.09 72.679 43.815L72.816 43.953C73.229 44.09 73.641 44.09 74.191 43.678C74.329 43.265 74.329 42.716 73.916 42.166L75.016 41.478C75.429 42.303 74.741 43.54 75.154 44.365C75.429 44.915 75.979 45.19 76.666 45.19C78.453 45.053 80.172 44.09 81.821 45.19C81.959 44.503 81.409 44.09 80.996 43.815C81.409 43.54 81.959 43.403 82.646 43.403C82.371 43.54 82.371 43.678 82.371 43.953C82.509 44.228 82.646 44.64 83.059 44.64C83.471 44.778 84.159 44.64 84.433 44.228C84.708 43.678 84.433 42.99 84.158 42.578C86.083 42.715 87.389 43.403 89.314 43.815C93.37 44.915 97.7 44.778 101.481 43.403C101.893 43.678 102.306 44.365 102.306 44.778C102.718 44.503 103.131 44.228 103.131 43.678L102.581 42.99C102.993 42.715 103.543 42.578 104.093 42.166C104.505 41.753 104.368 41.066 104.23 40.653C103.818 39.691 105.193 38.729 104.23 38.041C103.818 37.629 103.268 37.766 102.718 37.904C103.405 36.941 103.405 35.567 103.543 34.467C103.818 34.329 103.955 34.192 104.23 34.467C104.918 35.292 104.093 36.804 104.643 37.629L104.78 37.491C105.193 37.629 105.193 38.179 105.468 38.316C105.605 38.041 105.743 38.179 105.88 38.316C105.88 39.278 106.705 38.591 107.117 39.553C107.392 39.279 107.53 39.828 107.942 39.828C108.217 39.416 108.767 39.966 109.18 39.966C108.423 39.691 108.148 39.416 108.148 39.004Z" fill="black"></path>
  <path d="M54.3961 23.743C53.9841 23.606 53.4341 23.606 53.0211 23.606L53.7091 24.431C53.9841 24.293 54.2591 24.156 54.3961 23.743ZM84.6411 25.668C84.2291 25.806 83.9541 26.081 84.3661 26.493C84.7791 26.631 85.3291 26.631 85.3291 26.081C85.1911 25.943 84.9161 25.668 84.6411 25.668ZM87.4601 27.73C87.1851 27.868 87.0471 27.455 87.0471 27.318C87.0471 27.043 87.0471 26.905 87.3221 26.905L87.7351 27.318C87.4601 27.593 87.4601 27.593 87.4601 27.73ZM87.5971 26.768L87.0471 26.631C86.6351 26.905 86.4971 26.493 86.2221 26.768C85.9471 27.18 86.2221 27.593 86.4971 28.005C86.6351 27.868 86.6351 27.868 86.6351 27.73C86.7721 28.693 87.7351 27.868 88.0101 28.418C88.1471 28.28 88.4221 28.418 88.4221 28.143C88.0101 27.73 87.8721 27.18 87.5971 26.768ZM49.6531 25.806C49.6531 25.943 49.3781 25.806 49.3781 25.943C49.3781 25.806 49.6531 25.806 49.6531 25.806ZM48.4161 28.83C48.8281 28.555 48.5531 27.868 48.8281 27.455L48.9661 28.418C49.5161 28.005 49.5161 27.18 49.7911 26.493H49.3781C49.3781 26.081 49.7911 26.081 50.0661 25.668L49.9281 25.531L50.6841 25.393C50.8221 25.256 51.0971 25.256 50.9591 24.981C50.2721 24.981 49.7221 24.843 49.1721 24.843C48.8971 24.981 48.4851 25.393 48.7601 25.668H49.0351C48.7601 26.081 48.7601 26.631 48.6221 27.18C48.4851 26.768 48.6221 26.355 48.6221 25.943C47.8661 26.905 48.5531 28.143 48.4161 28.83Z" fill="black"></path>
  <path d="M87.0481 27.18L87.1851 27.593C87.3221 27.593 87.4601 27.593 87.4601 27.455C87.3221 27.318 87.3231 27.043 87.0481 27.18ZM69.9311 27.18C69.6561 27.318 69.5191 26.905 69.5191 26.63L69.7941 25.805C70.0691 25.805 70.2061 26.08 70.2061 26.355C70.3441 26.63 70.3441 27.18 69.9311 27.18ZM70.7561 26.218C70.4811 25.668 69.5191 25.53 69.2441 26.08C68.9691 26.355 69.1061 26.905 69.3811 27.318C69.9311 27.455 70.2061 28.28 70.7561 27.868L70.3441 27.593C70.6191 27.18 70.7561 26.768 70.7561 26.218ZM48.0041 27.18L48.6911 25.805C47.0411 26.493 48.6911 28.83 46.7661 29.38C47.0411 29.655 47.4541 29.38 47.7281 29.242C48.4161 28.692 48.0041 27.868 48.0041 27.18ZM72.6121 26.218L72.0621 26.08L72.2001 26.355C72.0621 26.768 72.0621 27.18 71.6501 27.318C71.5121 27.455 71.2371 27.18 71.2371 27.043C71.2371 26.493 71.3751 26.08 71.5121 25.805L70.9621 25.668C71.2371 26.08 70.5501 26.905 71.1001 27.455C72.3371 28.28 72.2001 26.355 72.6121 26.218ZM57.0781 28.143C56.8031 27.868 56.3911 27.318 56.1161 27.73C56.2531 28.143 56.6661 28.28 57.0781 28.143ZM68.2821 26.355C68.1451 25.393 67.1821 26.355 66.7701 26.355C66.7701 26.493 66.9081 26.63 66.9081 26.768L67.1831 26.355C67.5951 26.493 67.5951 27.318 67.5951 27.73C67.8701 27.593 68.2831 27.593 68.2831 27.455C67.8701 27.18 67.8701 26.493 67.5951 26.08C68.0081 26.08 68.2831 26.493 68.5581 26.905C68.8321 27.043 68.9701 26.493 68.8321 26.218C68.6951 26.218 68.4201 26.218 68.2821 26.355Z" fill="black"></path>
  <path d="M56.1148 27.456L56.2518 27.181C56.5268 27.731 56.6638 28.555 57.4888 28.418C56.9388 28.006 56.8018 27.043 56.2518 26.493L56.1148 26.906C55.9768 26.631 55.8398 26.218 55.4268 26.218C55.4268 26.768 55.7018 27.318 56.1148 27.456ZM73.4368 26.631C73.2485 26.4588 73.0039 26.361 72.7488 26.356L72.8868 26.631C72.6118 27.043 72.6118 27.593 72.1988 27.868C72.4748 28.006 72.6118 28.143 72.8868 28.143L72.7488 28.006C72.8868 27.456 72.8868 26.906 73.4368 26.631ZM66.5628 26.493L66.0128 26.906C66.4248 27.043 66.6998 27.731 66.6998 28.143C66.9748 28.28 67.1128 28.006 67.3878 27.868C66.7688 27.731 66.5628 26.906 66.5628 26.493ZM73.9868 27.593C73.8488 27.318 73.7118 27.318 73.5738 27.181C73.2988 27.318 73.1618 27.593 73.4368 27.868C73.7118 28.006 73.8488 27.731 73.9868 27.593ZM66.0138 28.555C65.7388 28.83 65.3258 28.418 65.1888 28.143C65.1888 27.868 65.0508 27.73 65.3258 27.593C65.7388 27.456 66.0138 27.868 66.1508 28.143L66.0138 28.555ZM65.4638 27.318C65.0508 27.593 64.5008 27.868 64.6388 28.28C64.9138 28.693 65.3258 29.105 65.7388 28.968C66.1508 28.693 66.4258 28.418 66.4258 28.006C66.1508 27.73 66.0138 27.181 65.4638 27.318Z" fill="black"></path>
  <path d="M76.3932 32.2672C76.1182 32.1292 75.9802 31.9922 75.9802 31.5792C76.3932 31.5792 77.0802 31.1672 77.3552 31.3052L77.0802 30.6172C76.6682 31.0302 76.1182 31.1672 75.7052 31.0302L76.5302 29.6552C76.1182 29.3802 75.2932 29.9302 74.8802 29.5172C75.2932 29.1052 75.4302 28.6922 75.8432 28.5552C75.5682 27.7302 74.8802 28.6922 74.4682 28.5552C74.3302 28.1422 75.4302 27.4552 74.4682 27.1802V27.3182C74.1932 27.5932 73.7812 28.1422 73.2312 28.1422C73.3682 28.4182 73.3682 28.4182 73.6432 28.5552C73.3682 28.1422 74.0552 28.0052 74.1932 27.8682C74.1932 28.2802 73.9182 28.5552 73.9182 28.9682C74.3302 28.8302 74.7432 28.5552 74.8802 28.6922C74.6052 28.9672 74.4682 29.5172 74.1932 29.3802L74.8802 30.2052L75.1552 30.0672C75.4302 30.0672 75.2932 30.3422 75.4302 30.4802C75.2932 30.6172 75.2932 30.7552 75.1552 30.7552C75.8432 31.1672 75.4302 32.6792 76.3932 32.2672ZM48.4162 29.1052C48.9662 28.9672 49.6532 28.8302 50.0662 28.8302C50.0662 28.4182 49.6532 28.1422 49.6532 27.8682C49.5162 28.2802 48.8282 28.8302 48.4162 29.1052ZM52.1962 28.0052C51.9038 28.1605 51.6646 28.3998 51.5092 28.6922H51.6472C51.9222 28.8302 52.4702 28.5552 52.1962 28.0052ZM63.8132 28.9672C63.8132 28.5552 64.2262 28.8302 64.5012 28.6922L64.0882 28.4182L63.6762 28.9682C63.5382 30.2052 64.7762 29.1052 65.0512 29.6552C64.7762 30.0672 64.6382 29.7922 64.2262 29.7922C64.2262 30.0672 64.5012 30.2052 64.6382 30.2052C64.7762 29.9302 65.3262 29.5172 65.0512 29.2422C64.9132 28.4172 64.2262 29.3802 63.8132 28.9672ZM94.8152 29.5172C94.6772 29.1052 94.1272 28.9672 93.8522 28.6922V28.9672C93.9902 29.3802 94.4022 29.6552 94.8152 29.5172ZM50.0652 28.9672C49.2412 29.2422 48.1412 29.2422 47.8652 29.9302L49.1032 29.5172C49.3782 29.3802 50.3392 29.6552 50.0652 28.9672ZM85.4662 29.1052C85.6042 29.3802 85.6042 29.5172 85.7412 29.6552L86.1542 29.3802L85.4662 29.1052ZM50.2032 29.9302L50.0662 29.6552C49.4765 29.7738 48.9159 30.0072 48.4162 30.3422L48.5532 30.6172C49.2412 30.6172 49.5162 30.0672 50.2032 29.9302Z" fill="black"></path>
  <path d="M64.0881 30.0671C64.0881 29.9301 63.9511 29.6551 63.8131 29.5171C63.5381 29.6551 63.4011 29.9301 63.5381 30.2051C63.6761 30.4801 64.0881 30.4801 64.0881 30.0681V30.0671ZM85.8781 30.3421C86.1541 30.0681 86.2911 29.9301 86.1541 29.6551C85.7411 29.9301 85.6031 30.0671 85.8781 30.3421ZM48.9661 31.1671C49.5161 30.8921 50.3401 30.7551 50.3401 30.0671L48.9661 30.7551C48.6911 30.7551 48.8281 31.1671 48.9661 31.1671ZM64.2261 30.8921C63.8131 30.6171 63.2631 30.6171 62.9891 30.2051L62.7141 30.8921C62.8511 30.8921 62.8511 31.0301 62.8511 30.8921C63.2631 31.0301 63.9511 31.0301 64.0881 31.5801C64.0881 31.3051 64.3631 31.0301 64.2261 30.8921C64.2261 30.7551 64.2261 30.7551 64.2261 30.8921ZM89.1091 31.0301C88.6971 30.8921 88.6971 30.6171 88.2841 30.7551L88.4221 31.3051L89.1091 31.0301ZM101.551 31.0301C101.689 30.8921 101.551 30.8921 101.551 31.0301L101.276 30.7551V30.6171C101.001 30.6171 100.864 30.7551 100.589 30.8921C100.726 31.0301 101.001 31.0301 101.139 31.0301V31.1671C101.276 31.3051 101.551 31.3051 101.551 31.0301L101.689 31.3051C101.826 31.3051 101.964 31.4421 101.964 31.1671L101.826 30.8921L101.551 31.0301ZM88.1471 30.7551L87.8721 31.1671C88.0101 31.3051 88.1471 31.1671 88.1471 31.1671V30.7551ZM49.1031 32.2671H49.5161C50.0661 31.9921 50.0661 31.3051 50.0661 30.8921C49.3781 31.0301 49.5161 31.8551 49.1031 32.2671ZM85.6031 31.0301L85.4661 31.3051C85.6041 31.5801 85.7411 31.7171 86.1541 31.5801C86.5661 31.1671 85.7401 31.1671 85.6031 31.0301ZM62.5081 32.6801C62.9211 32.8171 63.4711 32.8171 63.7461 33.0921C63.7461 32.9551 64.0211 32.6801 63.8831 32.5421C63.6081 32.9551 63.1961 32.4051 62.9211 32.4051L64.1581 31.8551V31.7171C63.7461 31.5801 63.0581 31.4421 62.6461 31.1671L62.5081 31.5801C62.7831 31.3051 63.1961 31.7171 63.4711 31.7171C63.0581 32.1301 62.0961 32.1301 62.2331 32.8171L62.5081 32.6801Z" fill="black"></path>
  <path d="M88.5589 31.717L88.9719 31.167C88.6969 31.167 88.5599 31.167 88.4219 31.304L88.5589 31.717ZM100.451 31.167L100.313 31.579H100.726V31.167H100.451ZM101.276 31.579L101.414 31.992C101.139 32.267 100.864 31.717 100.589 31.992C100.726 31.717 100.177 31.717 100.177 31.717L100.314 32.129C100.451 32.267 100.864 32.542 101.139 32.404H101.276C101.414 32.267 101.826 32.129 101.551 31.992C101.689 31.992 101.689 31.992 101.689 32.129C101.826 31.992 101.826 31.854 101.964 31.717C101.689 31.305 101.551 31.579 101.276 31.579Z" fill="black"></path>
  <path d="M100.864 31.7172C101.139 31.8552 101.277 31.8552 101.277 31.5802L101.414 31.4422C101.139 31.1672 100.727 31.5802 100.864 31.7172ZM86.4292 31.3052C86.4292 31.5802 86.1542 31.5802 86.2912 31.7172C86.4292 31.8552 86.7042 32.1302 86.8412 31.7172C87.0472 31.4422 86.5662 31.4422 86.4292 31.3052ZM87.1852 31.7172L87.0472 32.1302L87.3222 32.2672C87.5972 32.5422 87.5972 32.1302 87.7352 31.9922C87.5972 31.7172 87.3222 31.8552 87.1852 31.7172ZM77.2172 32.2672C77.0802 31.9922 76.6672 31.9922 76.5302 32.1302C76.3932 32.2672 76.5302 32.4042 76.6682 32.5422C76.9432 32.8172 77.2172 32.6792 77.2172 32.2672ZM87.8722 32.1302C87.4602 32.5422 88.0102 32.6802 88.1472 32.6802L88.2842 32.2672L87.8722 32.1302ZM91.5152 32.6802C91.3782 32.5422 91.1032 32.4042 90.9652 32.2672V32.8172C91.1032 32.8172 91.5152 32.9552 91.5152 32.6802ZM90.8972 32.8172L90.7592 32.4042L90.3472 32.8172C90.6222 32.8172 90.8972 33.0922 90.8972 32.8172ZM75.9802 33.2292C75.9802 33.5042 75.9802 33.7792 76.1182 34.0542L76.3932 33.7792C76.9432 33.6422 77.3552 33.9172 77.7672 34.1922C77.7672 34.0542 77.9052 33.7792 77.6302 33.7792C77.4932 34.0542 77.3552 33.6422 77.0802 33.6422C77.2182 33.5042 77.4932 33.2292 77.7672 33.2292L77.6302 32.5422L76.6682 33.2292C76.5302 33.3672 76.2552 33.3672 75.9802 33.2292ZM88.5602 32.5422L88.2842 32.9542C88.5592 32.9542 88.6972 33.3672 88.9722 33.0922C89.2472 32.8172 88.6972 32.6792 88.5602 32.5422ZM89.1102 33.5042L89.5222 33.7792C89.6592 33.6422 89.7972 33.5042 89.7972 33.3672L89.2472 33.0922L89.1102 33.5042ZM62.5072 33.6422C62.7822 33.5042 63.8822 33.5042 63.4702 34.1922C63.1952 34.4672 62.6452 34.3292 62.3702 34.1922C62.2322 34.0542 62.2322 33.7792 62.5072 33.6422ZM63.5382 34.4672C63.4012 34.0542 63.8132 33.7792 63.5382 33.5042C63.2642 33.2292 62.9882 33.0922 62.7142 33.0922C62.4392 33.2292 62.3012 33.2292 62.1642 33.5042C61.8892 33.9172 62.1642 34.4672 62.4392 34.7422C62.7142 34.8792 63.2632 34.8792 63.5382 34.4672ZM89.9342 33.5042C89.6592 33.6422 89.6592 33.9172 89.9342 33.9172C90.0722 34.0542 90.0722 34.0542 90.2092 33.9172C90.6222 33.7792 90.0722 33.5042 89.9342 33.5042Z" fill="black"></path>
  <path d="M76.9431 34.879C77.0801 34.742 77.3551 34.742 77.2181 34.467C77.2181 34.054 76.3931 34.054 76.5301 34.467L76.9431 34.879ZM63.6761 36.116C63.1261 36.529 63.1261 35.566 63.1261 35.429C63.4011 35.291 63.8141 35.154 63.8141 35.429L63.9511 35.291C63.8131 35.017 63.9511 34.741 63.6761 34.604C63.4011 35.017 62.7141 35.017 62.4391 35.154V35.016L62.3691 35.154C62.5071 35.291 62.5071 35.566 62.6451 35.841L62.9201 35.566C63.3321 35.291 63.3321 36.116 63.3321 36.391H62.7821C62.6451 36.529 62.9201 36.804 62.9201 37.079C63.1951 36.804 63.8821 36.529 64.4321 36.666L63.8821 35.841L63.6761 36.116Z" fill="black"></path>
  <path d="M76.6678 35.429C76.9428 35.566 77.4928 35.429 77.2178 35.841C76.9428 35.979 76.6678 35.841 76.6678 35.429ZM75.9798 35.429C76.5298 35.291 76.5298 35.566 76.5298 35.979C76.6678 36.254 76.6678 36.529 77.0798 36.391C77.4928 36.116 77.4928 35.566 77.6298 35.016C77.2178 35.154 76.3928 35.016 76.1178 34.604L75.9798 35.429ZM74.8798 38.729C75.1548 38.591 75.7048 38.591 75.9798 38.591C76.2548 38.591 76.3928 38.178 76.2548 38.178L76.1178 38.316C75.8428 38.041 75.1548 37.903 75.2928 37.354C75.4298 37.216 75.5678 37.629 75.7048 37.491C75.2928 37.216 75.5678 36.941 75.7048 36.666C75.8428 36.804 76.1178 36.666 76.1178 36.941C75.9798 37.079 75.8428 37.216 75.8428 37.079C75.8428 37.354 76.1178 37.354 76.2548 37.354C76.5298 37.354 75.9798 36.941 76.3928 36.941C76.5298 37.079 76.8048 37.079 76.6678 37.354C76.5298 37.629 76.3928 37.491 76.2548 37.629L76.3928 37.766C77.0798 38.178 77.0798 37.079 77.3548 36.804C76.6678 36.941 76.1178 36.529 75.8428 35.979C75.5678 36.666 75.4298 37.354 75.0178 37.766C75.2928 37.629 75.7048 38.178 75.8428 38.316C75.2928 38.453 74.8798 38.178 74.3308 38.453C74.6058 38.866 75.2928 39.141 75.4308 39.691C75.5678 39.553 75.8428 39.553 75.7048 39.278C75.2928 39.416 75.1548 38.867 74.8798 38.729ZM52.3338 37.216C52.4708 37.629 51.3718 37.766 51.6468 38.178L53.0208 37.354C53.2958 37.216 53.7088 37.491 53.7088 37.079C53.8458 36.941 54.1208 37.354 54.2588 36.941C53.5708 36.529 53.0208 37.216 52.3338 37.216ZM83.8168 37.629C84.0918 37.904 83.6788 38.866 84.5038 38.591C84.3658 38.316 84.5038 37.491 83.8168 37.629ZM84.6408 37.904V38.728C84.6408 39.003 85.0538 39.003 85.1908 38.866V38.316C85.1908 38.041 84.9158 38.042 84.6408 37.904ZM85.3288 38.178C85.6038 38.453 85.1908 39.553 86.0158 39.416V39.141C86.0158 38.728 86.0158 37.904 85.3288 38.178ZM86.2908 38.316L86.4288 39.553C86.5658 39.553 86.8408 39.691 86.8408 39.416C86.8408 38.866 86.9788 38.178 86.2908 38.316ZM87.0468 38.591L87.1848 39.691C87.3218 39.553 87.4598 39.828 87.5968 39.553C87.5968 39.141 87.5968 38.591 87.0468 38.591ZM73.7118 39.416V39.003H74.5368C74.3988 38.866 74.2618 38.728 74.2618 38.591C73.9868 38.728 73.4368 39.003 73.5738 39.553C73.7118 40.103 74.5368 39.828 74.8118 39.828C74.9488 39.828 74.9488 39.966 74.8118 40.103C74.6738 40.378 74.3988 40.103 74.1238 40.103C74.2618 40.241 74.2618 40.378 74.3988 40.516C74.6738 40.378 74.9488 40.241 74.9488 39.828C74.8798 39.278 73.9868 39.553 73.7118 39.416ZM88.0098 38.866C87.8718 39.003 88.1468 39.278 88.1468 39.553C88.2848 39.691 88.5598 39.553 88.5598 39.416C88.4218 39.141 88.2848 38.866 88.0098 38.866ZM58.5198 39.416C58.2458 39.278 58.3828 39.691 58.3828 39.828C58.5208 39.966 58.6578 39.416 58.9328 39.691C58.9328 40.103 59.0708 40.516 58.7948 40.928L59.4828 40.791L59.3448 40.653C59.2078 40.241 59.2078 39.691 59.4828 39.416L59.7578 39.691L59.8948 39.553C59.8948 39.003 58.9328 39.416 58.5208 39.416H58.5198ZM80.1728 39.416C79.2108 39.003 79.4858 40.103 79.2108 40.378L78.5238 39.553C78.2488 39.416 78.2488 39.691 77.9738 39.691C78.1108 39.691 78.1108 39.691 78.1108 39.828C78.2488 40.103 78.3858 40.79 78.1108 41.065C78.2488 41.203 78.5238 40.928 78.5238 40.928C78.2488 40.791 78.2488 40.378 78.3858 40.103L78.9358 40.928C79.3478 41.066 79.3478 40.241 79.6238 40.103L79.7608 40.241C79.7608 40.516 79.8978 40.791 79.6238 40.928C79.8978 40.928 80.3108 41.066 80.4478 40.791L80.3108 40.653C80.1728 40.241 79.7608 39.691 80.1728 39.416ZM81.4108 40.791C81.1358 40.653 80.9978 40.103 81.1358 39.828C81.5478 39.416 81.9608 39.828 81.9608 40.378C81.9608 40.516 81.6858 40.791 81.4108 40.791ZM81.1358 39.416C80.7228 39.691 80.5858 39.966 80.7228 40.378C80.9978 40.928 81.5478 40.791 81.8228 40.928C82.2358 40.791 82.5108 40.241 82.5108 39.828C82.2358 39.416 81.5478 39.278 81.1358 39.416ZM73.1618 39.416L72.0618 39.966C72.0618 40.103 72.1998 40.378 72.3368 40.378C72.3368 40.378 72.4748 40.241 72.3368 40.103C72.4748 39.966 72.6118 39.828 72.7498 39.828C72.8868 39.966 73.0248 40.103 72.8868 40.241L72.4748 40.378L72.7498 40.791C72.6118 40.516 72.8868 40.516 73.0248 40.378C73.1618 40.516 73.2988 40.791 73.1618 40.928C73.0238 41.066 72.7498 41.066 72.4748 40.928C72.3368 41.066 72.6118 41.203 72.7498 41.34L73.8498 40.79C73.2998 40.516 73.2998 39.828 73.1618 39.416ZM57.6268 40.79C57.2138 40.79 57.4888 40.515 57.3518 40.24C57.4898 40.102 57.6268 40.377 57.7638 40.377L57.9018 40.24C57.9018 40.102 57.7638 39.827 57.7638 39.827C57.6268 39.965 57.6268 40.102 57.4888 40.102C57.2148 40.24 57.3518 39.827 57.2148 39.69C57.4888 39.552 57.9018 39.415 58.0388 39.827L58.1768 39.69L58.0388 39.415C57.6268 39.552 56.9388 39.277 56.6648 39.552L56.8018 39.69C56.9398 40.102 57.0768 40.652 56.8018 41.064L58.1768 40.927C58.3138 40.652 58.3138 40.515 58.1768 40.515C58.0388 40.652 57.9018 40.79 57.6268 40.79ZM84.0908 40.652C83.6788 40.377 83.6788 39.415 82.9228 39.552C83.1978 39.827 82.9228 40.377 82.9228 40.79L82.6478 40.927C82.7858 41.202 83.0598 41.065 83.3348 41.065C83.0598 40.789 83.1978 40.377 83.3348 40.102C83.6098 40.515 83.8848 41.064 84.2978 41.339C84.4348 40.927 84.4348 40.377 84.7098 39.965L84.1598 39.827C84.5038 39.965 84.2288 40.515 84.0908 40.652ZM66.5628 40.24C66.2878 40.515 66.5628 40.927 66.8378 40.927C67.1128 40.79 67.1128 40.652 67.1128 40.515C67.0438 40.102 66.7008 40.102 66.5628 40.24ZM53.5708 40.24C53.4338 40.377 53.0208 40.102 53.1588 40.515H53.2958C53.4338 40.79 53.5708 41.339 53.4338 41.615C53.1588 41.752 52.8838 41.889 52.7458 41.615C52.7458 41.339 52.3338 40.79 52.6088 40.515C52.3338 40.652 52.0588 40.652 51.9218 40.79C52.0588 40.79 52.0588 40.927 52.0588 40.927C52.3338 41.477 52.3338 42.164 53.1588 42.027C54.1208 41.889 53.2958 40.515 53.5708 40.24ZM87.1848 41.34C87.0468 41.614 86.6348 41.752 86.4968 41.614L86.6348 40.652C87.0468 40.515 87.4598 40.928 87.1848 41.34ZM86.1538 40.24C86.1538 40.377 86.0158 40.377 86.1538 40.24C86.1538 40.79 86.1538 41.34 85.6038 41.614C86.0158 41.752 86.7038 41.889 87.2538 41.752C87.5278 41.614 87.8038 41.339 87.6658 40.927C87.4598 40.377 86.7038 40.515 86.1538 40.24ZM54.7398 40.652C54.8768 40.927 55.0148 40.927 55.1518 41.065C55.4268 40.927 55.4268 40.789 55.4268 40.652C55.7018 40.102 54.7398 40.24 54.7398 40.652ZM85.0538 40.515C84.7788 40.79 84.9158 41.339 85.3288 41.202C85.4658 41.339 85.7408 41.064 85.7408 40.927C85.6038 40.515 85.1908 40.377 85.0538 40.515ZM51.6468 41.752C51.5386 41.9976 51.3424 42.1938 51.0968 42.302C50.8218 42.164 50.9588 41.889 50.9588 41.752C50.9588 41.477 51.3718 41.752 51.3718 41.752C51.3718 41.477 51.3718 41.477 51.2338 41.339C51.2338 41.477 50.9588 41.614 50.8218 41.614C50.8218 41.477 50.6838 41.202 50.9588 41.202C51.2338 41.064 51.3718 41.339 51.6468 41.339L51.3718 41.064C50.9588 41.202 50.4088 41.202 50.1338 41.477H50.2718C50.4088 41.889 50.6838 42.302 50.5468 42.852C51.0968 42.714 51.5088 42.714 51.9218 42.439L51.6468 41.752ZM88.8348 41.477V41.202L89.2468 41.339C89.2468 41.477 89.1088 41.614 88.8348 41.477ZM89.6588 41.477C89.5218 40.927 88.6968 40.927 88.2848 40.789L88.4218 40.927C88.2848 41.339 88.4218 41.889 88.0098 42.302L88.8348 42.439C88.6968 42.302 88.6968 42.027 88.8348 41.752C88.9718 41.889 88.9718 42.027 89.2468 42.302C89.2468 42.439 89.6588 42.714 89.7968 42.577L89.5218 41.752C89.3838 41.752 89.6588 41.614 89.6588 41.477ZM68.2808 41.614C68.5558 41.752 68.6938 41.339 68.6938 41.202C68.5558 40.927 68.2808 40.789 68.0068 41.064C67.8688 41.339 68.0068 41.614 68.2808 41.614ZM49.9278 42.577C49.7908 42.164 49.5158 41.477 49.7908 41.202C49.5158 41.064 49.1028 41.202 48.9658 41.339C48.9658 41.477 49.1028 41.477 49.1028 41.477C49.2408 41.889 49.5158 42.439 49.2408 42.852C49.5158 42.714 49.9278 42.852 50.0658 42.714C50.0658 42.577 49.9278 42.577 49.9278 42.577ZM91.1028 42.439C91.1028 42.714 90.6908 42.852 90.5528 42.714C90.2778 42.439 90.4148 42.027 90.4148 41.752C90.8968 41.202 91.5148 41.889 91.1028 42.439ZM90.2088 41.614C89.9338 42.027 90.0718 42.302 90.2088 42.714C90.4838 42.989 91.0338 42.989 91.4468 42.989C91.8588 42.714 91.8588 42.164 91.7218 41.752C91.2398 41.339 90.6218 41.064 90.2088 41.614ZM48.0028 42.714C47.8658 42.852 47.7278 42.989 47.5908 42.852L47.3158 41.752C48.0038 41.614 48.2768 42.302 48.0028 42.714ZM46.7658 41.614C46.6288 41.889 46.9038 41.752 47.0408 41.889C47.0408 42.439 47.3158 42.852 47.0408 43.264C47.4538 43.402 47.7288 43.127 48.1408 42.989C48.5528 42.852 48.8278 42.439 48.6908 41.889C48.1408 41.064 47.4538 41.752 46.7658 41.614ZM92.2028 41.614C92.3398 42.027 92.3398 42.989 91.9278 43.127H92.7528L92.6148 42.989C92.7528 42.714 92.4778 41.889 92.8898 41.614H92.2028ZM93.3028 41.614L93.1648 42.027C93.4398 42.027 93.3028 41.752 93.4398 41.752C93.5778 41.752 93.7148 41.752 93.7148 41.889C93.5768 42.302 93.8528 42.852 93.4398 43.127H94.2648C93.9898 42.989 94.1268 42.302 94.1268 41.752C94.4018 41.752 94.5398 42.027 94.6768 42.164C94.8148 41.889 94.6768 41.752 94.6768 41.614H93.3028Z" fill="black"></path>
</svg>
