<?xml version="1.0" encoding="UTF-8"?>
<svg xmlns="http://www.w3.org/2000/svg" width="140" height="80" viewBox="0 0 140 80" fill="none">
  <path d="M110.246 40.1442H103.943C104.123 41.5468 104.86 42.1753 106.277 42.1753C107.474 42.1753 108.327 41.6727 109.069 41.1701C109.688 41.6727 110.067 42.5106 110.147 43.2856C109.308 43.9555 108.012 44.6883 105.957 44.6883C103.026 44.6883 100.91 42.7839 100.91 39.4528C100.91 36.3122 103.024 34.113 105.856 34.113C108.529 34.113 110.345 35.8932 110.345 38.6786C110.352 39.1692 110.319 39.6595 110.246 40.1442ZM107.534 38.3847C107.534 37.4217 107.095 36.5424 105.878 36.4803C104.741 36.4803 104.083 37.2553 103.943 38.3847H107.534Z" fill="black"></path>
  <path d="M120.698 44.6882C119.342 44.6675 118.584 44.3951 118.105 43.3899H117.906C117.088 44.3951 116.07 44.7097 114.874 44.7097C113.079 44.7097 111.463 43.7253 111.463 41.5683C111.463 39.4983 113.099 38.4062 115.791 38.4269H117.467V38.0708C117.467 37.2329 116.968 36.6889 115.671 36.6889C114.595 36.6889 113.558 37.1708 113.039 37.5682C112.42 37.1915 111.942 36.5001 111.782 35.581C112.341 35.0577 113.916 34.1155 116.051 34.1155C118.604 34.1155 120.439 35.3095 120.439 38.4716V41.3199C120.439 41.9484 120.698 42.1785 121.377 42.3466C121.416 43.327 121.197 44.1442 120.698 44.6882ZM117.465 40.2485H116.045C114.908 40.2485 114.429 40.6674 114.429 41.3795C114.429 42.0916 114.888 42.5106 115.646 42.5106C116.609 42.5106 117.467 42.008 117.467 40.2485H117.465Z" fill="black"></path>
  <path d="M129.176 34.3647C129.156 35.3906 128.877 36.3519 128.338 37.0657C127.967 36.9618 127.585 36.9125 127.201 36.9191C126.583 36.9191 126.064 37.045 125.746 37.2122V44.333C124.761 44.5008 123.757 44.5008 122.773 44.333V35.6001C123.432 34.9717 124.907 34.0708 126.982 34.0708C127.88 34.0708 128.617 34.176 129.176 34.3647Z" fill="black"></path>
  <path d="M94.5456 34.1164C93.9974 34.1022 93.4509 34.1862 92.9296 34.3648V29.5417V29.449C92.4052 29.5425 91.8907 29.6892 91.3932 29.887C90.8947 30.0638 90.4138 30.2909 89.957 30.5651V30.6479V43.7047C91.0541 44.3116 92.57 44.6676 94.1457 44.6676C97.5765 44.6676 99.7509 42.6365 99.7509 39.2649C99.7509 35.8933 97.5197 34.1164 94.5456 34.1164ZM94.3461 42.0321C93.8645 42.0317 93.3857 41.954 92.9264 41.8019V37.045C93.3821 36.8756 93.8626 36.7915 94.3461 36.7966C95.9014 36.7966 96.7594 37.8863 96.7594 39.3933C96.7618 41.0029 95.8864 42.0288 94.3484 42.0288L94.3461 42.0321Z" fill="black"></path>
  <path d="M54.6925 34.5527C54.0947 38.3011 53.1396 41.4632 51.5622 44.3322C51.3335 44.3908 51.0987 44.4186 50.8634 44.415C50.6087 44.4155 50.3547 44.3877 50.1055 44.3322C49.2482 42.5736 48.4903 40.0813 48.0549 37.464C47.5762 40.0813 46.7386 42.5736 45.901 44.3322C45.652 44.3887 45.3978 44.4165 45.1431 44.415C44.908 44.4186 44.6735 44.3908 44.4451 44.3322C42.9687 41.4218 41.9513 38.3011 41.4331 34.5527C41.7364 34.4537 42.0524 34.4043 42.3701 34.4062C42.5777 34.4041 42.785 34.4252 42.9884 34.4691C43.5073 37.82 44.3055 40.689 45.1628 42.5313L45.2227 42.7201C45.2425 42.6572 45.2827 42.5943 45.3016 42.5313C46.0998 40.521 46.8001 37.7149 47.2363 34.7415C47.4937 34.6988 47.754 34.6777 48.0147 34.6786C48.3016 34.677 48.5881 34.6981 48.872 34.7415C49.3712 38.3019 49.9691 40.521 50.8437 42.5313L50.9636 42.8245C51.003 42.7201 51.0235 42.6365 51.063 42.5313C51.9408 40.7304 52.619 37.82 53.1979 34.4691C53.381 34.425 53.5685 34.4039 53.7563 34.4062C54.0737 34.4044 54.3894 34.4538 54.6925 34.5527Z" fill="black"></path>
  <path d="M64.2477 43.1805C64.228 43.7668 64.0482 44.3538 63.7091 44.6047C62.4929 44.5004 61.9937 43.9555 61.8344 43.2012H61.7555C61.0575 44.1857 60.0401 44.6254 58.9028 44.6254C56.9082 44.6254 55.6313 43.4107 55.6313 41.5684C55.6313 39.6417 57.051 38.5106 59.7806 38.4899L61.6735 38.4692V37.7985C61.6735 36.333 60.7357 35.7467 59.3792 35.7467C58.3823 35.7467 57.4248 36.2493 56.8459 36.7519C56.4271 36.4795 56.1479 36.0192 56.0083 35.5787C56.6069 34.9295 58.0029 34.176 59.4588 34.176C61.414 34.176 63.269 35.0761 63.269 38.0295V42.0081C63.2706 42.6986 63.4898 42.9296 64.2477 43.1805ZM61.675 39.8685L59.7822 39.8892C57.8475 39.8892 57.2892 40.497 57.2892 41.5229C57.2892 42.5703 57.9666 43.1789 59.1031 43.1789C60.4384 43.1805 61.675 42.3848 61.675 39.8718V39.8685Z" fill="black"></path>
  <path d="M80.9237 39.8925H73.9423C74.0621 41.7141 75.2586 43.0762 76.9748 43.0762C78.53 43.0762 79.2485 42.4684 79.7667 42.0495C80.1658 42.259 80.5451 42.7616 80.6445 43.2012C79.6216 44.1335 78.3088 44.6402 76.9542 44.6254C74.2017 44.6254 72.2671 42.5943 72.2671 39.4322C72.2671 36.3744 74.2617 34.176 76.8147 34.176C79.228 34.176 81.0034 35.9976 81.0034 38.5528C81.0055 39.0008 80.9789 39.4484 80.9237 39.8925ZM79.3282 38.4899C79.3282 37.1494 78.6499 35.6838 76.8147 35.6838C75.1789 35.6838 74.1418 36.9614 73.9628 38.4899H79.3282Z" fill="black"></path>
  <path d="M88.2845 35.9767C87.7234 35.8313 87.147 35.7609 86.5691 35.7672C85.7513 35.7672 85.0328 35.9328 84.5185 36.2698V44.3321C84.2497 44.3917 83.9754 44.4195 83.7007 44.4149C83.426 44.4185 83.1518 44.3907 82.8828 44.3321V35.5163C83.6605 34.825 85.1172 34.1758 86.6685 34.1758C87.3534 34.1629 88.0352 34.2749 88.6836 34.507C88.7187 35.0309 88.5775 35.551 88.2845 35.9767Z" fill="black"></path>
  <path d="M70.8909 42.3639C70.5912 42.6364 69.8529 43.1174 69.095 43.1174C68.0776 43.1174 67.281 42.7407 67.281 40.9646V35.9138H71.0107C71.0665 35.6881 71.093 35.4556 71.0896 35.2224C71.0929 34.9964 71.0664 34.771 71.0107 34.5526H67.2802V31.2861C67.0033 31.3362 66.7315 31.4142 66.4687 31.5188C66.2045 31.6123 65.9496 31.7327 65.7076 31.8782V34.5526H64.0884C64.0328 34.771 64.0062 34.9964 64.0096 35.2224C64.0062 35.4556 64.0327 35.6881 64.0884 35.9138H65.7045V41.2958C65.7045 43.6623 67.0807 44.6078 68.9759 44.6078C69.945 44.5983 70.8788 44.225 71.6086 43.5554C71.5233 43.0765 71.2665 42.6501 70.8909 42.3639Z" fill="black"></path>
  <path d="M31.5453 47.4281C31.6013 48.1492 31.61 49.1751 31.3632 50.1323C31.3353 50.2072 31.3191 50.2863 31.315 50.3666C31.3079 50.5038 31.3361 50.6404 31.3967 50.7622C31.4573 50.8839 31.548 50.9862 31.6593 51.0584C31.7706 51.1306 31.8984 51.17 32.0292 51.1724C32.16 51.1748 32.289 51.1402 32.4026 51.0721H32.416C34.539 49.8769 36.2534 48.0156 37.3201 45.748C36.0612 46.9059 34.4439 47.5431 32.7702 47.5407C32.3595 47.5411 31.9497 47.5034 31.5453 47.4281Z" fill="black"></path>
  <path d="M33.7497 41.2867C33.4975 41.049 33.1705 40.9178 32.8316 40.9182C32.8056 40.9182 32.7788 40.9182 32.7528 40.9182C32.4342 40.9371 32.1317 41.0714 31.8968 41.2982C31.6619 41.525 31.5092 41.8303 31.4647 42.162C31.4201 42.4938 31.4866 42.8315 31.6526 43.1176C31.8186 43.4037 32.074 43.6205 32.3753 43.7311C32.6765 43.8417 33.0049 43.8392 33.3046 43.7241C33.6043 43.6089 33.8567 43.3883 34.0188 43.0997C34.1809 42.8111 34.2427 42.4724 34.1936 42.1414C34.1445 41.8104 33.9876 41.5074 33.7497 41.2842V41.2867Z" fill="black"></path>
  <path d="M31.372 29.949C29.9873 29.4434 28.5325 29.1818 27.0665 29.1748H27.0579C26.9372 29.1748 26.8725 29.1798 26.8725 29.1798C21.9408 29.1733 17.2078 31.2197 13.7109 34.8706V34.8797C13.1896 35.4217 12.7319 36.0271 12.3473 36.6831C11.5705 38.0162 11.0681 39.6349 11.0065 41.6006V41.6677C10.9963 41.9417 10.9979 42.2175 11.0129 42.4957C11.0255 42.7308 11.0476 42.9643 11.0775 43.1945C11.1785 43.7145 11.2708 44.0656 11.2708 44.0656C11.2956 44.2598 11.3913 44.4363 11.5377 44.5578C11.6841 44.6794 11.8697 44.7365 12.0554 44.7172C12.2412 44.6979 12.4125 44.6036 12.5333 44.4542C12.6541 44.3048 12.715 44.1121 12.703 43.9165L12.6967 43.8735C12.6068 43.298 12.535 42.7143 12.4901 42.1231C12.4861 42.054 12.4951 41.9847 12.5167 41.9192C12.5383 41.8538 12.572 41.7935 12.6158 41.7417C12.6597 41.69 12.7128 41.6479 12.7722 41.6178C12.8316 41.5876 12.8961 41.5701 12.962 41.5663C13.0278 41.5624 13.0938 41.5722 13.156 41.5952C13.2182 41.6182 13.2755 41.6538 13.3246 41.7001C13.3737 41.7463 13.4136 41.8023 13.442 41.8648C13.4704 41.9273 13.4867 41.9951 13.4901 42.0643C13.6053 43.533 13.8735 44.984 14.2898 46.3914L14.4215 46.8145L14.4791 47.0017C14.5429 47.1714 14.662 47.3117 14.8153 47.3977C14.9686 47.4836 15.146 47.5094 15.3158 47.4706C15.4856 47.4318 15.6367 47.3308 15.7421 47.1857C15.8474 47.0406 15.9002 46.8609 15.8909 46.6787C15.8863 46.6038 15.8717 46.5299 15.8475 46.4593C15.8436 46.4486 15.8388 46.4378 15.8349 46.4278C15.7336 45.7085 15.8183 44.9739 16.0802 44.3007C16.0802 44.2957 16.0802 44.2891 16.0802 44.2833C16.1417 44.12 16.1686 43.9445 16.159 43.7691L16.1417 43.6135C16.0136 42.8828 15.9293 42.1444 15.8893 41.4027L15.8846 41.3149C15.8806 41.2458 15.8896 41.1765 15.9112 41.1111C15.9328 41.0457 15.9665 40.9853 16.0103 40.9336C16.0542 40.8819 16.1073 40.8397 16.1667 40.8096C16.2261 40.7795 16.2906 40.762 16.3565 40.7581C16.4223 40.7543 16.4883 40.7641 16.5505 40.7871C16.6127 40.81 16.67 40.8457 16.7191 40.8919C16.7682 40.9382 16.8081 40.9942 16.8365 41.0567C16.8649 41.1192 16.8812 41.187 16.8846 41.2562C16.8846 41.2661 16.8846 41.2752 16.8846 41.2851L16.8886 41.3439C16.9735 42.9266 17.275 44.4882 17.7837 45.9807C18.2868 47.4572 18.9847 48.8522 19.8572 50.1249C19.959 50.2745 20.1087 50.3808 20.2789 50.4243C20.4491 50.4679 20.6285 50.4458 20.7845 50.3621C20.9405 50.2785 21.0628 50.1388 21.1289 49.9685C21.1951 49.7982 21.2008 49.6087 21.1451 49.4343C20.8296 48.1799 20.9937 46.8311 21.0915 46.2631C21.1147 46.1797 21.1308 46.0944 21.1396 46.0081C21.1396 45.9931 21.1451 45.9849 21.1451 45.9849V45.9741C21.1516 45.902 21.1529 45.8295 21.149 45.7572C21.139 45.5558 21.0902 45.3586 21.0055 45.1776L20.9724 45.1047C20.7303 44.4385 20.5406 43.7525 20.4053 43.0537C20.2826 42.4258 20.2035 41.7893 20.1687 41.1493C20.1545 40.8935 20.1498 40.6385 20.1506 40.3843C20.1472 40.2415 20.1972 40.103 20.2898 39.9984C20.3823 39.8937 20.5102 39.8312 20.6461 39.8242C20.782 39.8172 20.9151 39.8662 21.017 39.9608C21.1189 40.0553 21.1816 40.188 21.1916 40.3305C21.1916 40.5789 21.1916 40.8388 21.2019 41.0881C21.3107 43.1597 21.9264 45.1668 22.9895 46.9158C24.0525 48.6648 25.5271 50.0966 27.2708 51.0729H27.285C27.4155 51.1519 27.5661 51.1863 27.7161 51.1714C27.866 51.1565 28.0078 51.0931 28.1219 50.9899C28.236 50.8867 28.3167 50.7488 28.3529 50.5953C28.389 50.4418 28.3788 50.2803 28.3237 50.1332C27.9696 48.7595 28.1415 47.2434 28.2259 46.6887C28.2444 46.6174 28.2566 46.5445 28.2622 46.4709C28.2622 46.4461 28.2622 46.4212 28.2661 46.3956C28.2701 46.3699 28.2661 46.3343 28.2661 46.3036C28.2509 46.0106 28.1345 45.7333 27.9388 45.5237L27.9183 45.503C27.7874 45.368 27.6628 45.2264 27.5429 45.0807C26.8647 44.2536 26.3752 43.2748 26.1118 42.219C25.8484 41.1632 25.8181 40.0582 26.0231 38.9883C26.0563 38.8653 26.1298 38.7586 26.2306 38.687C26.3315 38.6155 26.4532 38.5837 26.5742 38.5973C26.6953 38.6108 26.8078 38.6689 26.892 38.7612C26.9762 38.8536 27.0266 38.9742 27.0342 39.1017C27.0365 39.1429 27.0344 39.1843 27.0279 39.2251C26.8714 40.051 26.8801 40.9021 27.0536 41.7244C27.227 42.5466 27.5614 43.322 28.0356 44.0013C28.5097 44.6806 29.1131 45.249 29.8077 45.6704C30.5022 46.0918 31.2725 46.357 32.0699 46.4492C32.8672 46.5414 33.6741 46.4585 34.4393 46.2058C35.2046 45.9532 35.9114 45.5362 36.5149 44.9815C37.1185 44.4267 37.6056 43.7463 37.9453 42.9834C38.285 42.2205 38.4699 41.3918 38.4883 40.5499C38.4883 40.5499 38.7801 32.5323 31.372 29.949ZM32.9628 44.8737C32.917 44.8737 32.8721 44.8778 32.8271 44.8778C32.3599 44.8776 31.9029 44.7336 31.5127 44.4637C31.1226 44.1938 30.8163 43.8098 30.6317 43.3592C30.4471 42.9085 30.3923 42.411 30.474 41.928C30.5558 41.445 30.7705 40.9978 31.0918 40.6415C31.413 40.2853 31.8265 40.0356 32.2814 39.9234C32.7363 39.8112 33.2125 39.8413 33.6512 40.0101C34.0899 40.1789 34.4719 40.4789 34.75 40.8731C35.0281 41.2673 35.1901 41.7384 35.216 42.2282C35.2503 42.8922 35.0326 43.5433 34.6106 44.0391C34.1885 44.5349 33.5966 44.835 32.9643 44.8737H32.9628Z" fill="black"></path>
</svg>
